SplineFontDB: 2.0
FontName: Sawasdee-BoldOblique
FullName: Sawasdee Bold Oblique
FamilyName: Sawasdee
Weight: Bold
Copyright: Created by Pol Udomwittayanukul,,, with FontForge 2.0 (http://fontforge.sf.net)
Version: 001.000
ItalicAngle: -12
UnderlinePosition: -75
UnderlineWidth: 50
Ascent: 750
Descent: 250
XUID: [1021 180 1442959360 14302000]
UniqueID: 4076113
FSType: 8
OS2Version: 0
OS2_WeightWidthSlopeOnly: 0
OS2_UseTypoMetrics: 1
CreationTime: 1178430034
ModificationTime: 1181039250
PfmFamily: 17
TTFWeight: 700
TTFWidth: 5
LineGap: 90
VLineGap: 0
OS2TypoAscent: 0
OS2TypoAOffset: 1
OS2TypoDescent: 0
OS2TypoDOffset: 1
OS2TypoLinegap: 90
OS2WinAscent: 0
OS2WinAOffset: 1
OS2WinDescent: 0
OS2WinDOffset: 1
HheadAscent: 2
HheadAOffset: 1
HheadDescent: 40
HheadDOffset: 1
OS2Vendor: 'PfEd'
Lookup: 4 0 1 "'liga' Standard Ligatures in Latin lookup 0"  {"'liga' Standard Ligatures in Latin lookup 0"  } ['liga' ('latn' <'dflt' > ) ]
Lookup: 4 0 0 "'frac' Diagonal Fractions in Latin lookup 42"  {"'frac' Diagonal Fractions in Latin lookup 42"  } ['frac' ('latn' <'dflt' > ) ]
Lookup: 6 0 0 "'ccmp' Glyph Composition/Decomposition in Thai lookup 0"  {"'ccmp' Glyph Composition/Decomposition in Thai lookup 0"  } ['ccmp' ('thai' <'KUY ' 'PAL ' 'THA ' 'dflt' > ) ]
Lookup: 6 0 0 "'ccmp' Glyph Composition/Decomposition in Thai lookup 1"  {"'ccmp' Glyph Composition/Decomposition in Thai lookup 1"  } ['ccmp' ('thai' <'KUY ' 'PAL ' 'THA ' 'dflt' > ) ]
Lookup: 5 0 0 "Required Feature in Thai lookup 2"  {"Required Feature in Thai lookup 2"  } [' RQD' ('thai' <'PAL ' > ) ]
Lookup: 1 0 0 "Single Substitution lookup 3"  {"Single Substitution lookup 3"  } []
Lookup: 1 0 0 "Single Substitution lookup 4"  {"Single Substitution lookup 4"  } []
Lookup: 2 0 0 "Multiple Substitution lookup 5"  {"Multiple Substitution lookup 5"  } []
Lookup: 1 0 0 "Single Substitution lookup 6"  {"Single Substitution lookup 6"  } []
Lookup: 2 0 0 "Multiple Substitution lookup 7"  {"Multiple Substitution lookup 7"  } []

StartChar: exclam
Encoding: 1 33 1
Width: 192
Flags: W
HStem: -4 80<83.5836 123.72> 479 20G<169.77 234.361>
VStem: 63.6523 170.709<36 499>
Fore
112.154 76 m 0
 134.12 76 148.323 57.9775 143.652 36 c 0
 138.983 14.0342 117.127 -4 95.1494 -4 c 0
 73.1836 -4 58.9805 14.0225 63.6523 36 c 0
 68.3213 57.9658 90.1768 76 112.154 76 c 0
142.793 118 m 1
 99.3711 118 l 1
 169.77 499 l 1
 234.361 499 l 1
 142.793 118 l 1
EndSplineSet
EndChar
StartChar: quotedbl
Encoding: 2 34 2
Width: 256
Flags: W
Fore
189.458 378 m 1
 147.234 378 l 1
 168.122 532 l 1
 234.039 532 l 1
 189.458 378 l 1
269.458 378 m 1
 227.234 378 l 1
 248.121 532 l 1
 314.039 532 l 1
 269.458 378 l 1
EndSplineSet
EndChar
StartChar: numbersign
Encoding: 3 35 3
Width: 358
Flags: W
HStem: -1 21G<19.585 75.2598 159.585 214.261> 143 54<29.874 87.1943 166.071 227.193 306.071 365.396> 303 54<97.8828 159.207 239.085 298.207 379.085 434.404> 481 20G<251.018 306.692 391.018 446.692>
VStem: 18.3955 428.296<143 501>
Fore
214.261 -1 m 1
 159.585 -1 l 1
 227.193 143 l 1
 142.868 143 l 1
 75.2598 -1 l 1
 19.585 -1 l 1
 87.1943 143 l 1
 18.3955 143 l 1
 29.874 197 l 1
 111.398 197 l 1
 159.207 303 l 1
 86.4043 303 l 1
 97.8828 357 l 1
 183.41 357 l 1
 251.018 501 l 1
 306.692 501 l 1
 239.085 357 l 1
 323.41 357 l 1
 391.018 501 l 1
 446.692 501 l 1
 379.085 357 l 1
 445.883 357 l 1
 434.404 303 l 1
 353.88 303 l 1
 306.071 197 l 1
 376.874 197 l 1
 365.396 143 l 1
 281.868 143 l 1
 214.261 -1 l 1
166.071 197 m 1
 250.398 197 l 1
 298.207 303 l 1
 213.88 303 l 1
 166.071 197 l 1
EndSplineSet
EndChar
StartChar: dollar
Encoding: 4 36 4
Width: 358
Flags: W
VStem: 47.0322 54.1268<106.119 166.704> 350.896 53.221<381.416 423.835>
Fore
47.0322 155.844 m 1
 101.159 162.684 l 1
 97.8408 116.198 101.614 61.3457 165.629 47.6279 c 1
 211.54 263.622 l 1
 170.352 283.613 120.127 313.055 134.935 382.721 c 0
 147.329 441.031 198.401 492.751 262.514 503.438 c 1
 271.954 547.85 l 1
 324.874 547.85 l 1
 315.365 503.116 l 1
 396.5 485.961 402.248 411.795 404.117 398.654 c 1
 350.896 381.416 l 1
 349.651 389.969 347.268 434.995 305.075 450.091 c 1
 272.891 298.675 l 1
 329.687 272.94 397.666 240.225 378.451 149.823 c 0
 361.053 67.9727 285.658 10.6543 209.102 -1.42871 c 1
 199.659 -45.8496 l 1
 145.76 -45.8496 l 1
 154.33 -5.52832 l 1
 91.5811 3.44531 38.7393 45.0332 47.0322 155.844 c 1
259.497 240.276 m 1
 218.665 48.1748 l 1
 267.481 59.3691 312.987 95.4229 324.146 147.914 c 0
 334.527 196.757 303.485 219.333 259.497 240.276 c 1
223.522 319.998 m 1
 250.677 447.75 l 1
 218.177 438.484 194.146 412.322 187.449 380.812 c 0
 181.501 352.828 196.52 335.655 223.522 319.998 c 1
EndSplineSet
EndChar
StartChar: percent
Encoding: 5 37 5
Width: 487
Flags: W
HStem: -5.85156 52.4981<337.242 417.631> 151.641 52.498<359.556 439.945> 295.861 52.498<158.331 238.722> 453.354 52.498<180.647 261.037>
Fore
496.394 99.1436 m 0
 484.09 41.2598 425.706 -5.85156 366.276 -5.85156 c 0
 306.847 -5.85156 268.49 41.2598 280.794 99.1436 c 0
 293.097 157.027 351.481 204.139 410.911 204.139 c 0
 470.341 204.139 508.697 157.027 496.394 99.1436 c 0
333.714 99.1436 m 0
 327.556 70.1729 346.517 46.6465 377.435 46.6465 c 0
 408.355 46.6465 437.316 70.1748 443.474 99.1436 c 0
 449.632 128.114 430.67 151.641 399.752 151.641 c 0
 368.832 151.641 339.871 128.111 333.714 99.1436 c 0
317.484 400.856 m 0
 305.182 342.973 246.797 295.861 187.367 295.861 c 0
 127.937 295.861 89.5811 342.973 101.884 400.856 c 0
 114.188 458.74 172.572 505.852 232.002 505.852 c 0
 291.433 505.852 329.788 458.74 317.484 400.856 c 0
154.804 400.856 m 0
 148.646 371.886 167.607 348.359 198.526 348.359 c 0
 229.446 348.359 258.407 371.889 264.564 400.856 c 0
 270.723 429.827 251.762 453.354 220.844 453.354 c 0
 189.923 453.354 160.962 429.824 154.804 400.856 c 0
502.032 500.033 m 1
 567.139 500.033 l 1
 96.2266 -0.124023 l 1
 31.1211 -0.124023 l 1
 502.032 500.033 l 1
EndSplineSet
EndChar
StartChar: ampersand
Encoding: 6 38 6
Width: 504
Flags: W
HStem: -5.80566 50.5879<141.001 297.007> 454.263 51.543<297.132 378.889>
VStem: 77.1426 396.191<178.616 192.73 182.23 192.73>
Fore
418.454 192.73 m 1
 473.334 192.73 l 1
 470.899 181.276 l 2
 463.294 145.496 445.474 112.271 421.397 84.1836 c 1
 465.993 -0.0332031 l 1
 400.843 -0.0332031 l 1
 377.327 43.4746 l 1
 335.956 12.6035 285.162 -5.80566 234.154 -5.80566 c 0
 125.913 -5.80566 55.0586 78.3359 77.1426 182.23 c 0
 92.8984 256.356 151.375 320.365 222.69 351.107 c 1
 218.592 369.041 218.656 386.947 222.212 403.675 c 0
 235.149 464.544 292.407 505.806 355.641 505.806 c 0
 414.965 505.806 462.045 466.968 445.954 391.266 c 2
 443.52 379.812 l 1
 390.6 379.812 l 1
 393.034 391.266 l 2
 403.747 441.664 370.996 454.263 344.685 454.263 c 0
 308.106 454.263 281.583 434.027 275.132 403.675 c 0
 272.03 389.084 273.081 371.508 283.215 350.037 c 2
 396.498 131.281 l 1
 405.803 146.622 412.142 163.034 416.02 181.276 c 2
 418.454 192.73 l 1
355.785 85.0107 m 1
 240.325 305.698 l 1
 185.906 284.353 141.564 236.345 129.859 181.276 c 0
 114.004 106.683 164.979 44.7822 244.907 44.7822 c 0
 284.984 44.7822 324.573 60.5088 355.785 85.0107 c 1
EndSplineSet
EndChar
StartChar: quoteright
Encoding: 300 8217 7
Width: 160
Flags: W
VStem: 88.9072 132.444<355 458>
Fore
169.309 430.948 m 1
 150.242 430.479 131.006 446.969 136.114 471 c 0
 140.783 492.966 162.64 511 184.616 511 c 0
 206.467 511 229.088 494.4 221.351 458 c 0
 208.148 395.887 146.912 357.939 145.95 357.262 c 1
 138.458 355 l 1
 88.9072 355 l 1
 121.765 376.545 l 2
 139.976 388.486 159.694 412.588 169.309 430.948 c 1
EndSplineSet
EndChar
StartChar: parenleft
Encoding: 8 40 8
Width: 175
Flags: W
VStem: 61.5713 196.462<228.584 539>
Fore
61.5713 228.584 m 0
 87.9629 352.75 144.815 452.413 209.366 539 c 1
 258.033 539 l 1
 196.116 444.759 145.348 350.368 118.617 224.613 c 0
 90.8477 93.9678 103.381 -8.99707 123.529 -102 c 1
 74.8086 -102 l 1
 50.2695 -12.21 33.4639 96.3506 61.5713 228.584 c 0
EndSplineSet
EndChar
StartChar: parenright
Encoding: 9 41 9
Width: 175
Flags: W
VStem: 8.10938 202.495<-102 228.584>
Fore
210.604 228.584 m 0
 182.496 96.3506 118.022 -14.3779 56.8301 -102 c 1
 8.10938 -102 l 1
 66.5664 -10.917 124.1 93.9678 151.869 224.613 c 0
 178.599 350.368 167.353 447.344 146.103 539 c 1
 194.771 539 l 1
 222.427 452.689 236.995 352.75 210.604 228.584 c 0
EndSplineSet
EndChar
StartChar: asterisk
Encoding: 10 42 10
Width: 330
Flags: W
HStem: 393.29 210.71<265.384 290.364>
VStem: 160.229 222.989<502.092 502.092>
Fore
265.384 604 m 1
 321.384 604 l 1
 307.2 537.269 l 1
 381.707 554.501 l 1
 383.218 502.092 l 1
 312.992 486.304 l 1
 341.692 423.786 l 1
 290.364 393.29 l 1
 261.814 455.478 l 1
 206.828 393.29 l 1
 168.465 423.786 l 1
 223.742 486.304 l 1
 160.229 502.092 l 1
 184.019 554.501 l 1
 251.2 537.269 l 1
 265.384 604 l 1
EndSplineSet
EndChar
StartChar: plus
Encoding: 11 43 11
Width: 314
Flags: W
HStem: 223 54<70.8779 177.4 242.878 349.4>
VStem: 59.4004 301.478<223 277>
Fore
206.318 105 m 1
 152.318 105 l 1
 177.4 223 l 1
 59.4004 223 l 1
 70.8779 277 l 1
 188.878 277 l 1
 213.96 395 l 1
 267.96 395 l 1
 242.878 277 l 1
 360.878 277 l 1
 349.4 223 l 1
 231.4 223 l 1
 206.318 105 l 1
EndSplineSet
EndChar
StartChar: comma
Encoding: 12 44 12
Width: 192
Flags: W
VStem: 26.5742 122.102<-81 22>
Fore
65.7832 -81 m 1
 26.5742 -81 l 1
 55.335 -61.335 90.0693 -26.333 94.6855 -4.99902 c 1
 72.8633 -4.8623 58.7861 13.1064 63.4395 35 c 0
 68.1084 56.9658 89.9639 75 111.941 75 c 0
 135.117 75 156.158 57.2002 148.676 22 c 0
 133.515 -49.3311 65.835 -80.9639 65.7832 -81 c 1
EndSplineSet
EndChar
StartChar: hyphen
Encoding: 13 45 13
Width: 302
Flags: W
HStem: 173 54<84.25 302.772>
VStem: 72.7725 241.478<173 227>
Fore
314.25 227 m 1
 302.772 173 l 1
 72.7725 173 l 1
 84.25 227 l 1
 314.25 227 l 1
EndSplineSet
EndChar
StartChar: period
Encoding: 14 46 14
Width: 192
Flags: W
HStem: -4 80<83.5836 123.72>
VStem: 63.6523 79.9997<17.6533 54.348 36 36>
Fore
112.154 76 m 0
 134.12 76 148.323 57.9775 143.652 36 c 0
 138.983 14.0342 117.127 -4 95.1494 -4 c 0
 73.1836 -4 58.9805 14.0225 63.6523 36 c 0
 68.3213 57.9658 90.1768 76 112.154 76 c 0
EndSplineSet
EndChar
StartChar: slash
Encoding: 15 47 15
Width: 392
Flags: W
Fore
457.632 512 m 1
 524.066 512 l 1
 40.6465 -12 l 1
 -25.7881 -12 l 1
 457.632 512 l 1
EndSplineSet
EndChar
StartChar: zero
Encoding: 16 48 16
Width: 396
VWidth: 965
Flags: W
HStem: -4.85156 51.543<135.295 283.175> 453.309 51.543<223.104 370.984>
VStem: 78.6992 348.88<231.652 268.348 250 250>
Fore
198.969 -4.85156 m 0
 94.3047 -4.85156 50.4854 117.266 78.6992 250 c 0
 106.912 382.734 202.646 504.852 307.31 504.852 c 0
 411.974 504.852 455.793 382.734 427.579 250 c 0
 399.365 117.266 303.633 -4.85156 198.969 -4.85156 c 0
131.62 250 m 0
 105.499 127.114 152.517 46.6914 209.925 46.6914 c 0
 266.271 46.6914 348.223 125.626 374.659 250 c 0
 400.779 372.886 353.762 453.309 296.354 453.309 c 0
 240.008 453.309 158.057 374.374 131.62 250 c 0
EndSplineSet
EndChar
StartChar: one
Encoding: 17 49 17
Width: 395
VWidth: 966
Flags: W
VStem: 171.872 161.199<0.129883 505.062>
Fore
259.694 413.216 m 1
 208.673 386.985 l 1
 191.732 431.593 l 1
 333.071 505.062 l 1
 225.744 0.129883 l 1
 171.872 0.129883 l 1
 259.694 413.216 l 1
EndSplineSet
EndChar
StartChar: two
Encoding: 18 50 18
Width: 395
VWidth: 965
Flags: W
HStem: 0.0351562 51.5429<92.0391 368.508> 453.422 51.543<226.51 366.68>
VStem: 25.5078 400.932<0.0351562 341.746>
Fore
368.508 0.0351562 m 1
 25.5078 0.0351562 l 1
 30.7822 24.8516 l 2
 67.0674 195.558 349.125 222.364 374.5 341.746 c 0
 388.146 405.944 350.669 453.422 297.298 453.422 c 0
 242.846 453.422 185.283 405.93 171.641 341.746 c 2
 169.206 330.292 l 1
 116.286 330.292 l 1
 118.721 341.746 l 2
 137.536 430.269 220.523 504.965 307.273 504.965 c 0
 394.023 504.965 445.257 430.27 426.44 341.746 c 0
 395.224 194.885 147.907 162.313 92.0391 51.5781 c 1
 379.463 51.5781 l 1
 368.508 0.0351562 l 1
EndSplineSet
EndChar
StartChar: three
Encoding: 19 51 19
Width: 396
VWidth: 965
Flags: W
HStem: -4.85156 51.543<132.805 289.003> 260.5 51.543<255.547 309.376> 453.309 51.543<241.947 352.72>
VStem: 69.9678 341.103<153.596 379.812>
Fore
72.4023 165.05 m 1
 126.302 165.05 l 1
 123.867 153.596 l 2
 111.431 95.083 150.828 46.6914 210.904 46.6914 c 0
 270.98 46.6914 330.95 95.083 343.388 153.596 c 0
 355.825 212.108 316.427 260.5 256.351 260.5 c 2
 244.591 260.5 l 1
 255.547 312.043 l 1
 267.307 312.043 l 2
 309.376 312.043 349.473 338.98 358.151 379.812 c 0
 366.738 420.209 339.939 453.309 297.334 453.309 c 0
 254.729 453.309 213.858 420.211 205.271 379.812 c 2
 202.837 368.358 l 1
 149.917 368.358 l 1
 152.352 379.812 l 2
 167.104 449.22 237.223 504.852 308.29 504.852 c 0
 379.356 504.852 425.824 449.219 411.071 379.812 c 0
 403.03 341.979 378.526 309.634 346.778 288.382 c 1
 387.174 260.576 407.394 210.361 395.328 153.596 c 0
 376.738 66.1406 288.76 -4.85156 198.969 -4.85156 c 0
 109.177 -4.85156 51.3789 66.1416 69.9678 153.596 c 2
 72.4023 165.05 l 1
EndSplineSet
EndChar
StartChar: four
Encoding: 20 52 20
Width: 395
VWidth: 966
Flags: W
HStem: 89.3652 51.5428<116.085 288.18 352.055 381.916>
VStem: -1.06836 435.636<89.3652 529.104>
Fore
299.136 140.908 m 1
 348.928 375.16 l 1
 116.085 140.908 l 1
 299.136 140.908 l 1
322.23 0.59668 m 1
 269.312 0.59668 l 1
 288.18 89.3652 l 1
 -1.06836 89.3652 l 1
 434.568 529.104 l 1
 352.055 140.908 l 1
 410.512 140.908 l 1
 381.916 89.3652 l 1
 341.1 89.3652 l 1
 322.23 0.59668 l 1
EndSplineSet
EndChar
StartChar: five
Encoding: 21 53 21
Width: 395
VWidth: 965
Flags: W
HStem: -5.94238 51.543<131.725 294.751> 312.86 49.634<225.474 351.559> 448.399 51.543<202.228 408.628>
Fore
265.502 312.86 m 0
 221.031 312.86 175.062 287.629 138.227 238.409 c 1
 85.9688 238.409 l 1
 164.114 499.942 l 1
 437.224 499.942 l 1
 408.628 448.399 l 1
 202.228 448.399 l 1
 166.368 328.318 l 1
 199.279 349.409 237.146 362.494 276.053 362.494 c 0
 375.376 362.494 434.574 278.384 413.296 178.276 c 0
 392.018 78.168 297.062 -5.94238 197.739 -5.94238 c 0
 107.866 -5.94238 50.7197 63.832 56.7539 150.922 c 2
 57.6582 163.959 l 1
 110.512 163.959 l 1
 110.139 154.413 l 2
 107.684 91.4941 149.487 45.6006 208.694 45.6006 c 0
 274.892 45.6006 344.523 103.698 360.578 179.23 c 0
 376.634 254.764 331.7 312.86 265.502 312.86 c 0
EndSplineSet
EndChar
StartChar: six
Encoding: 22 54 22
Width: 395
VWidth: 965
Flags: W
HStem: -4.98828 50.5889<122.637 294.751> 314.86 50.589<238.539 351.982>
VStem: 61.1211 352.801<162.882 199.578 181.23 181.23>
Fore
361.002 181.23 m 0
 377.057 256.763 332.123 314.86 265.926 314.86 c 0
 199.728 314.86 130.097 256.764 114.041 181.23 c 0
 97.9863 105.698 142.496 45.6006 208.692 45.6006 c 0
 274.891 45.6006 344.946 105.697 361.002 181.23 c 0
61.1211 181.23 m 0
 81.9561 279.25 153.577 329.604 308.035 500.988 c 1
 371.682 500.988 l 1
 246.874 362.887 l 1
 256.818 364.562 266.821 365.449 276.679 365.449 c 0
 376.003 365.449 435.2 281.339 413.922 181.23 c 0
 392.643 81.1221 297.263 -4.98828 197.939 -4.98828 c 0
 98.6152 -4.98828 39.8428 81.1221 61.1211 181.23 c 0
EndSplineSet
EndChar
StartChar: seven
Encoding: 23 55 23
Width: 396
VWidth: 965
Flags: W
HStem: 448.536 51.543<156.088 418.657>
VStem: 116.522 394.498<-0.0791016 500.079>
Fore
156.088 500.079 m 1
 511.02 500.079 l 1
 174.649 -0.0791016 l 1
 116.522 -0.0791016 l 1
 418.657 448.536 l 1
 127.491 448.536 l 1
 156.088 500.079 l 1
EndSplineSet
EndChar
StartChar: eight
Encoding: 24 56 24
Width: 396
VWidth: 965
Flags: W
HStem: -4.85156 51.543<131.826 288.024> 260.5 51.543<212.065 320.588> 453.309 51.543<242.092 350.616>
VStem: 69.9678 339.753<153.596 382.676>
Fore
409.721 382.676 m 0
 401.792 345.378 377.051 311.884 344.856 289.651 c 1
 386.366 261.934 407.629 211.466 395.328 153.596 c 0
 376.738 66.1406 288.76 -4.85156 198.969 -4.85156 c 0
 109.177 -4.85156 51.3789 66.1416 69.9678 153.596 c 0
 82.2686 211.465 124.983 261.934 178.275 289.652 c 1
 155.534 311.884 145.033 345.38 152.96 382.676 c 0
 167.354 450.396 237.31 504.852 307.31 504.852 c 0
 377.31 504.852 424.114 450.395 409.721 382.676 c 0
122.888 153.596 m 0
 110.451 95.083 149.849 46.6914 209.925 46.6914 c 0
 270.001 46.6914 329.971 95.083 342.408 153.596 c 0
 354.845 212.108 315.447 260.5 255.371 260.5 c 0
 195.295 260.5 135.325 212.108 122.888 153.596 c 0
266.327 312.043 m 0
 308.066 312.043 348.683 344.485 356.8 382.676 c 0
 364.918 420.867 338.094 453.309 296.354 453.309 c 0
 254.614 453.309 213.998 420.866 205.88 382.676 c 0
 197.763 344.484 224.587 312.043 266.327 312.043 c 0
EndSplineSet
EndChar
StartChar: nine
Encoding: 25 57 25
Width: 395
VWidth: 965
Flags: W
HStem: 135.551 50.589<152.509 261.101> 453.399 50.589<209.316 381.429>
VStem: 90.5684 352.801<301.422 338.117 319.77 319.77>
Fore
143.488 319.77 m 0
 127.434 244.237 172.368 186.14 238.565 186.14 c 0
 304.764 186.14 374.394 244.236 390.449 319.77 c 0
 406.504 395.302 361.57 453.399 295.373 453.399 c 0
 229.175 453.399 159.544 395.303 143.488 319.77 c 0
443.369 319.77 m 0
 422.534 221.75 350.913 171.396 196.455 0.0117188 c 1
 132.81 0.0117188 l 1
 257.617 138.113 l 1
 247.673 136.438 237.669 135.551 227.812 135.551 c 0
 128.488 135.551 69.29 219.661 90.5684 319.77 c 0
 111.848 419.878 206.803 503.988 306.126 503.988 c 0
 405.45 503.988 464.647 419.878 443.369 319.77 c 0
EndSplineSet
EndChar
StartChar: colon
Encoding: 26 58 26
Width: 192
Flags: W
HStem: -4 80<83.5836 123.72> 265 80<140.761 180.898>
VStem: 63.6523 137.178<36 305>
Fore
112.154 76 m 0
 134.12 76 148.323 57.9775 143.652 36 c 0
 138.983 14.0342 117.127 -4 95.1494 -4 c 0
 73.1836 -4 58.9805 14.0225 63.6523 36 c 0
 68.3213 57.9658 90.1768 76 112.154 76 c 0
169.332 345 m 0
 191.298 345 205.501 326.977 200.83 305 c 0
 196.161 283.034 174.305 265 152.327 265 c 0
 130.361 265 116.158 283.023 120.83 305 c 0
 125.499 326.966 147.354 345 169.332 345 c 0
EndSplineSet
EndChar
StartChar: semicolon
Encoding: 27 59 27
Width: 192
Flags: W
HStem: 265 80<140.761 180.898>
VStem: 26.5742 174.256<-81 305>
Fore
169.332 345 m 0
 191.298 345 205.501 326.977 200.83 305 c 0
 196.161 283.034 174.305 265 152.327 265 c 0
 130.361 265 116.158 283.023 120.83 305 c 0
 125.499 326.966 147.354 345 169.332 345 c 0
111.941 75 m 0
 135.117 75 156.158 57.2002 148.676 22 c 0
 133.515 -49.3311 65.835 -80.9639 65.7832 -81 c 1
 26.5742 -81 l 1
 55.335 -61.335 90.0693 -26.333 94.6855 -4.99902 c 1
 72.8633 -4.8623 58.7861 13.1064 63.4395 35 c 0
 68.1084 56.9658 89.9639 75 111.941 75 c 0
EndSplineSet
EndChar
StartChar: less
Encoding: 28 60 28
Width: 396
Flags: W
HStem: -1 364<363.78 390.412>
VStem: 27.4707 440.312<181 363>
Fore
390.412 -1 m 1
 286.409 -1 l 1
 27.4707 181 l 1
 363.78 363 l 1
 467.783 363 l 1
 131.475 181 l 1
 390.412 -1 l 1
EndSplineSet
EndChar
StartChar: equal
Encoding: 29 61 29
Width: 362
Flags: W
HStem: 133 54<75.748 354.271> 233 54<97.0039 375.525>
VStem: 64.2705 322.733<133 287>
Fore
387.004 287 m 1
 375.525 233 l 1
 85.5254 233 l 1
 97.0039 287 l 1
 387.004 287 l 1
365.748 187 m 1
 354.271 133 l 1
 64.2705 133 l 1
 75.748 187 l 1
 365.748 187 l 1
EndSplineSet
EndChar
StartChar: greater
Encoding: 30 62 30
Width: 396
Flags: W
HStem: -1 364<82.5332 109.165>
VStem: 5.16211 440.313<-1 181>
Fore
109.165 -1 m 1
 5.16211 -1 l 1
 341.471 181 l 1
 82.5332 363 l 1
 186.536 363 l 1
 445.475 181 l 1
 109.165 -1 l 1
EndSplineSet
EndChar
StartChar: question
Encoding: 31 63 31
Width: 397
Flags: W
HStem: -4.85156 76.3604<178.4 218.167> 453.309 51.543<229.4 364.137>
VStem: 135.777 286.634<361.677 375.79 361.677 373.131>
Fore
206.399 71.5088 m 0
 227.927 71.5088 241.943 54.3057 237.484 33.3281 c 0
 233.027 12.3623 211.706 -4.85156 190.169 -4.85156 c 0
 168.642 -4.85156 154.625 12.3516 159.084 33.3281 c 0
 163.541 54.2949 184.861 71.5088 206.399 71.5088 c 0
241.646 108.234 m 1
 188.726 108.234 l 1
 199.179 157.413 l 2
 223.932 273.864 357.28 315.682 369.491 373.131 c 0
 379.788 421.572 350.309 453.309 304.214 453.309 c 0
 246.665 453.309 198.875 409.562 191.132 373.131 c 2
 188.697 361.677 l 1
 135.777 361.677 l 1
 138.212 373.131 l 2
 153.161 443.46 233.604 504.852 315.17 504.852 c 0
 392.551 504.852 438.476 448.707 422.411 373.131 c 0
 403.497 284.147 271.729 249.768 252.1 157.413 c 2
 241.646 108.234 l 1
EndSplineSet
EndChar
StartChar: at
Encoding: 32 64 32
Width: 688
Flags: W
HStem: -157.212 50.589<147.915 393.488> -5.44629 52.4981<233.959 361.172 520.083 580.217> 300.948 51.543<333.507 495.034> 452.714 52.498<266.806 619.387>
Fore
554.008 348.674 m 1
 609.493 348.674 l 1
 529.82 174.91 l 2
 526.342 168.036 515.68 148.051 511.253 127.229 c 0
 499.912 73.873 526.551 47.0518 548.111 47.0518 c 0
 572.808 47.0518 617.13 81.2939 638.255 180.682 c 0
 670.734 333.484 578.963 452.714 444.218 452.714 c 0
 307.747 452.714 166.269 329.975 132.912 173.046 c 0
 99.5557 16.1162 188.856 -106.623 325.326 -106.623 c 0
 377.758 -106.623 420.059 -90.0459 465.006 -66.1533 c 1
 484.152 -109.225 l 1
 429.129 -139.005 378.325 -157.212 314.573 -157.212 c 0
 143.396 -157.212 40.7461 -6.98242 79.2158 174 c 0
 117.685 354.982 284.198 505.212 455.376 505.212 c 0
 623.499 505.212 728.888 358.106 691.175 180.682 c 0
 660.563 36.665 582.816 -5.44629 536.952 -5.44629 c 0
 491.613 -5.44629 461.862 28.3789 455.546 74.7061 c 1
 407.164 29.5791 343.21 -4.49121 283.335 -4.49121 c 0
 206.348 -4.49121 165.977 51.9707 182.379 129.139 c 0
 206.478 242.512 336.951 352.491 442.515 352.491 c 0
 486.35 352.491 517.7 334.623 533.924 305.514 c 1
 554.008 348.674 l 1
433.519 300.948 m 0
 356.587 300.948 255.141 213.265 237.462 130.093 c 0
 227.232 81.9639 248.155 48.0059 295.474 48.0059 c 0
 370.487 48.0059 473.283 133.016 491.53 218.861 c 0
 501.761 266.99 480.838 300.948 433.519 300.948 c 0
EndSplineSet
EndChar
StartChar: A
Encoding: 33 65 33
Width: 463
VWidth: 966
Flags: W
HStem: 148.444 51.543<193.719 356.433>
VStem: 8.2793 446.826<0.49707 0.49707>
Fore
193.719 199.987 m 1
 356.433 199.987 l 1
 311.561 371.634 l 1
 193.719 199.987 l 1
159.287 148.444 m 1
 65.1201 0.49707 l 1
 8.2793 0.49707 l 1
 339.101 505.81 l 1
 455.105 0.49707 l 1
 398.265 0.49707 l 1
 366.992 148.444 l 1
 159.287 148.444 l 1
EndSplineSet
EndChar
StartChar: B
Encoding: 34 66 34
Width: 434
VWidth: 965
Flags: W
HStem: -0.0791016 51.543<111.859 243.178> 250.954 51.543<165.218 354.858> 448.536 51.543<196.259 385.434>
VStem: 47.9834 397.051<-0.0791016 374.085>
Fore
111.859 51.4639 m 1
 243.178 51.4639 l 2
 310.043 51.4639 369.85 98.7539 381.102 151.687 c 0
 392.341 204.566 352.582 250.954 285.581 250.954 c 2
 154.262 250.954 l 1
 111.859 51.4639 l 1
391.134 374.085 m 2
 391.337 375.039 l 2
 399.346 412.718 370.726 448.536 321.698 448.536 c 2
 196.259 448.536 l 1
 165.218 302.497 l 1
 290.656 302.497 l 2
 340.042 302.497 383.156 336.553 391.134 374.085 c 2
334.614 500.079 m 2
 409.202 500.079 459.908 444.06 445.034 374.085 c 0
 437.101 336.76 411.698 304.039 378.479 281.607 c 1
 422.386 255.866 445.992 208.008 434.021 151.687 c 0
 415.858 66.2363 324.116 -0.0791016 232.223 -0.0791016 c 2
 47.9834 -0.0791016 l 1
 154.295 500.079 l 1
 334.614 500.079 l 2
EndSplineSet
EndChar
StartChar: C
Encoding: 35 67 35
Width: 543
VWidth: 965
Flags: W
HStem: -4.85156 50.5889<153.921 405.31> 452.354 52.498<240.349 525.929>
Fore
496.377 136.701 m 1
 533.454 108.771 l 1
 461.189 33.668 379.311 -4.85156 292.648 -4.85156 c 0
 148.935 -4.85156 56.1943 109.121 86.1387 250 c 0
 116.084 390.879 257.275 504.852 400.989 504.852 c 0
 530.748 504.852 579.036 418.139 593.213 391.751 c 1
 544.41 360.893 l 1
 532.834 381.835 494.522 452.354 389.831 452.354 c 0
 274.845 452.354 162.683 361.14 138.856 249.046 c 0
 115.029 136.951 188.416 45.7373 303.401 45.7373 c 0
 407.585 45.7373 475.807 115.669 496.377 136.701 c 1
EndSplineSet
EndChar
StartChar: D
Encoding: 36 68 36
Width: 452
VWidth: 965
Flags: W
HStem: -0.0791016 51.543<111.859 285.052> 448.536 51.543<196.259 404.063>
VStem: 47.9834 424.577<-0.0791016 250>
Fore
111.859 51.4639 m 1
 169.679 51.4639 l 2
 285.052 51.4639 395.841 138.036 419.639 250 c 0
 443.438 361.964 369.451 448.536 254.079 448.536 c 2
 196.259 448.536 l 1
 111.859 51.4639 l 1
47.9834 -0.0791016 m 1
 154.295 500.079 l 1
 265.035 500.079 l 2
 408.408 500.079 502.528 390.993 472.56 250 c 0
 442.59 109.006 302.095 -0.0791016 158.724 -0.0791016 c 2
 47.9834 -0.0791016 l 1
EndSplineSet
EndChar
StartChar: E
Encoding: 37 69 37
Width: 389
VWidth: 965
Flags: W
HStem: -0.0791016 51.543<111.859 355.703> 262.408 51.543<167.652 391.896> 448.536 51.543<196.259 452.038>
VStem: 47.9834 415.011<-0.0791016 500.079>
Fore
402.852 313.951 m 1
 391.896 262.408 l 1
 156.696 262.408 l 1
 111.859 51.4639 l 1
 366.659 51.4639 l 1
 355.703 -0.0791016 l 1
 47.9834 -0.0791016 l 1
 154.295 500.079 l 1
 462.994 500.079 l 1
 452.038 448.536 l 1
 196.259 448.536 l 1
 167.652 313.951 l 1
 402.852 313.951 l 1
EndSplineSet
EndChar
StartChar: F
Encoding: 38 70 38
Width: 389
VWidth: 965
Flags: W
HStem: 262.408 51.543<167.652 391.896> 448.536 51.543<196.259 452.038>
VStem: 47.9834 415.011<-0.0791016 500.079>
Fore
402.852 313.951 m 1
 391.896 262.408 l 1
 156.696 262.408 l 1
 100.903 -0.0791016 l 1
 47.9834 -0.0791016 l 1
 154.295 500.079 l 1
 462.994 500.079 l 1
 452.038 448.536 l 1
 196.259 448.536 l 1
 167.652 313.951 l 1
 402.852 313.951 l 1
EndSplineSet
EndChar
StartChar: G
Encoding: 39 71 39
Width: 587
VWidth: 965
Flags: W
HStem: -4.85156 51.543<154.122 441.537> 224.229 51.542<340.537 547.021> 453.309 51.543<240.552 526.134>
Fore
593.498 392.758 m 1
 544.614 361.848 l 1
 533.036 382.789 494.726 453.309 390.034 453.309 c 0
 275.048 453.309 162.886 362.095 139.059 250 c 0
 115.232 137.905 188.618 46.6914 303.604 46.6914 c 0
 409.706 46.6914 513.443 124.339 547.021 224.229 c 1
 329.581 224.229 l 1
 340.537 275.771 l 1
 612.976 275.771 l 1
 607.498 250 l 2
 577.554 109.121 436.363 -4.85156 292.648 -4.85156 c 0
 148.935 -4.85156 56.1943 109.121 86.1387 250 c 0
 116.084 390.879 257.275 504.852 400.989 504.852 c 0
 537.664 504.852 585.775 406.817 593.498 392.758 c 1
EndSplineSet
EndChar
StartChar: H
Encoding: 40 72 40
Width: 468
VWidth: 965
Flags: W
HStem: 262.408 51.543<167.652 423.257>
VStem: 47.9834 478.712<-0.0791016 500.079>
Fore
473.775 500.079 m 1
 526.695 500.079 l 1
 420.383 -0.0791016 l 1
 367.463 -0.0791016 l 1
 423.257 262.408 l 1
 156.696 262.408 l 1
 100.903 -0.0791016 l 1
 47.9834 -0.0791016 l 1
 154.295 500.079 l 1
 207.215 500.079 l 1
 167.652 313.951 l 1
 434.212 313.951 l 1
 473.775 500.079 l 1
EndSplineSet
EndChar
StartChar: I
Encoding: 41 73 41
Width: 148
VWidth: 965
Flags: W
VStem: 47.9834 159.232<-0.0791016 500.079>
Fore
100.903 -0.0791016 m 1
 47.9834 -0.0791016 l 1
 154.295 500.079 l 1
 207.215 500.079 l 1
 100.903 -0.0791016 l 1
EndSplineSet
EndChar
StartChar: J
Encoding: 42 74 42
Width: 345
VWidth: 965
Flags: W
HStem: -4.96484 51.5429<120.82 231.536>
VStem: 61.7686 342.102<135.347 499.965>
Fore
352.911 499.965 m 1
 403.871 499.965 l 1
 326.369 135.347 l 2
 310.2 59.2773 239.215 -4.96484 164.245 -4.96484 c 0
 89.2725 -4.96484 45.5996 59.2764 61.7686 135.347 c 2
 64.2031 146.8 l 1
 117.123 146.8 l 1
 114.688 135.347 l 2
 103.885 84.5166 133.596 46.5781 176.181 46.5781 c 0
 218.762 46.5781 264.604 84.5176 275.409 135.347 c 2
 352.911 499.965 l 1
EndSplineSet
EndChar
StartChar: K
Encoding: 43 75 43
Width: 409
VWidth: 965
Flags: W
VStem: 47.9834 450.397<-0.0791016 500.079>
Fore
154.295 500.079 m 1
 207.215 500.079 l 1
 167.275 312.178 l 1
 419.246 500.079 l 1
 498.38 500.079 l 1
 244.403 311.289 l 1
 401.798 -0.0791016 l 1
 334.809 -0.0791016 l 1
 198.797 276.604 l 1
 152.372 242.063 l 1
 100.903 -0.0791016 l 1
 47.9834 -0.0791016 l 1
 154.295 500.079 l 1
EndSplineSet
EndChar
StartChar: L
Encoding: 44 76 44
Width: 389
VWidth: 965
Flags: W
HStem: -0.0791016 51.543<111.859 356.683>
VStem: 47.9834 319.655<-0.0791016 51.4639>
Fore
356.683 -0.0791016 m 1
 47.9834 -0.0791016 l 1
 154.295 500.079 l 1
 207.215 500.079 l 1
 111.859 51.4639 l 1
 367.638 51.4639 l 1
 356.683 -0.0791016 l 1
EndSplineSet
EndChar
StartChar: M
Encoding: 45 77 45
Width: 590
VWidth: 966
Flags: W
VStem: 527.923 54.2921<0.164062 230.772> 530.143 58.639<274.354 326.997>
Fore
60.377 0.164062 m 1x40
 8.03516 0.164062 l 1
 219.38 505.127 l 1
 321.899 127.687 l 1
 588.782 504.962 l 1x40
 582.215 0.164062 l 1
 527.923 0.164062 l 1x80
 530.143 326.997 l 1
 292.377 -5.4502 l 1
 199.783 326.892 l 1
 60.377 0.164062 l 1x40
EndSplineSet
EndChar
StartChar: N
Encoding: 46 78 46
Width: 561
VWidth: 965
Flags: W
Fore
47.9834 -0.0791016 m 1
 155.521 505.845 l 1
 486.483 121.865 l 1
 566.875 500.079 l 1
 619.795 500.079 l 1
 512.258 -5.8457 l 1
 181.295 378.135 l 1
 100.903 -0.0791016 l 1
 47.9834 -0.0791016 l 1
EndSplineSet
EndChar
StartChar: O
Encoding: 47 79 47
Width: 587
VWidth: 965
Flags: W
HStem: -4.85156 51.543<154.122 453.086> 453.309 51.543<240.552 539.515>
Fore
607.498 250 m 0
 577.554 109.121 436.363 -4.85156 292.648 -4.85156 c 0
 148.935 -4.85156 56.1943 109.121 86.1387 250 c 0
 116.084 390.879 257.275 504.852 400.989 504.852 c 0
 544.703 504.852 637.443 390.879 607.498 250 c 0
139.059 250 m 0
 115.232 137.905 188.618 46.6914 303.604 46.6914 c 0
 418.59 46.6914 530.752 137.905 554.578 250 c 0
 578.404 362.095 505.019 453.309 390.034 453.309 c 0
 275.048 453.309 162.886 362.095 139.059 250 c 0
EndSplineSet
EndChar
StartChar: P
Encoding: 48 80 48
Width: 405
VWidth: 965
Flags: W
HStem: 223.251 52.498<159.533 352.391> 448.514 51.543<196.256 389.331>
VStem: 47.9883 401.265<-0.0566406 361.653>
Fore
47.9883 -0.0566406 m 1
 154.29 500.057 l 1
 340.49 500.057 l 2
 417.829 500.057 465.336 437.319 449.253 361.653 c 0
 433.173 286.004 359.08 223.251 282.635 223.251 c 2
 148.374 223.251 l 1
 100.909 -0.0566406 l 1
 47.9883 -0.0566406 l 1
159.533 275.749 m 1
 293.793 275.749 l 2
 338.868 275.749 385.051 313.189 395.352 361.653 c 0
 405.661 410.154 375.532 448.514 329.534 448.514 c 2
 196.256 448.514 l 1
 159.533 275.749 l 1
EndSplineSet
EndChar
StartChar: Q
Encoding: 49 81 49
Width: 587
VWidth: 965
Flags: W
HStem: -4.85156 51.543<154.122 369.524> 453.309 51.543<240.552 539.515>
Fore
446.188 93.7373 m 1
 387.257 185.094 l 1
 456.097 185.094 l 1
 490.803 131.8 l 1
 522.329 165.213 545.252 206.115 554.579 250 c 0
 578.405 362.095 505.019 453.309 390.034 453.309 c 0
 275.048 453.309 162.886 362.095 139.059 250 c 0
 115.232 137.905 188.618 46.6914 303.604 46.6914 c 0
 354.312 46.6914 403.918 64.4688 446.188 93.7373 c 1
575.726 -0.0791016 m 1
 505.727 -0.0791016 l 1
 471.253 53.2998 l 1
 418.524 16.9912 355.896 -4.85156 292.648 -4.85156 c 0
 148.935 -4.85156 56.1943 109.121 86.1387 250 c 0
 116.084 390.879 257.275 504.852 400.989 504.852 c 0
 544.704 504.852 637.444 390.879 607.499 250 c 0
 594.675 189.668 561.831 134.46 516.453 90.6426 c 1
 575.726 -0.0791016 l 1
EndSplineSet
EndChar
StartChar: R
Encoding: 50 82 50
Width: 414
VWidth: 965
Flags: W
HStem: 224.229 51.542<159.537 268.041> 448.536 51.543<196.259 389.337>
VStem: 47.9834 401.274<-0.0791016 361.677>
Fore
47.9834 -0.0791016 m 1
 154.295 500.079 l 1
 340.494 500.079 l 2
 417.833 500.079 465.34 437.342 449.257 361.677 c 0
 436.299 300.713 385.63 248.201 326.152 230.296 c 1
 406.926 -0.0791016 l 1
 346.783 -0.0791016 l 1
 268.041 224.229 l 1
 148.581 224.229 l 1
 100.903 -0.0791016 l 1
 47.9834 -0.0791016 l 1
159.537 275.771 m 1
 293.797 275.771 l 2
 338.872 275.771 385.055 313.212 395.355 361.677 c 0
 405.665 410.177 375.537 448.536 329.538 448.536 c 2
 196.259 448.536 l 1
 159.537 275.771 l 1
EndSplineSet
EndChar
StartChar: S
Encoding: 51 83 51
Width: 397
VWidth: 965
Flags: W
HStem: -5.7832 52.4971<141.78 284.151> 453.286 52.497<237.335 340.687>
VStem: 65.4922 356.473<145.395 397.608>
Fore
421.965 397.608 m 1
 368.72 380.363 l 1
 367.216 391.374 l 2
 361.452 433.596 330.252 453.286 295.47 453.286 c 0
 250.751 453.286 215.078 420.862 206.956 382.652 c 0
 185.988 284.006 431.297 313.119 396.379 148.846 c 0
 376.659 56.0684 282.979 -5.7832 196.912 -5.7832 c 0
 123.3 -5.7832 57.8037 40.0723 65.4922 145.395 c 2
 66.3232 156.772 l 1
 120.45 163.613 l 1
 119.668 152.337 l 2
 114.446 76.9785 157.078 46.7139 208.07 46.7139 c 0
 266.594 46.7139 330.182 86.3779 343.662 149.8 c 0
 369.714 272.363 123.157 237.375 154.239 383.607 c 0
 168.021 448.447 230.776 505.783 306.629 505.783 c 0
 361.414 505.783 411.886 472.156 420.521 408.281 c 2
 421.965 397.608 l 1
EndSplineSet
EndChar
StartChar: T
Encoding: 52 84 52
Width: 323
VWidth: 965
Flags: W
HStem: 448.536 51.543<114.295 230.739 283.659 411.061>
VStem: 103.339 318.677<448.536 500.079>
Fore
422.016 500.079 m 1
 411.061 448.536 l 1
 283.659 448.536 l 1
 188.303 -0.0791016 l 1
 135.383 -0.0791016 l 1
 230.739 448.536 l 1
 103.339 448.536 l 1
 114.295 500.079 l 1
 422.016 500.079 l 1
EndSplineSet
EndChar
StartChar: U
Encoding: 53 85 53
Width: 468
VWidth: 965
Flags: W
HStem: -4.96484 51.5429<152.673 337.373>
VStem: 88.9414 437.73<192.616 499.965>
Fore
154.271 499.965 m 1
 207.19 499.965 l 1
 141.861 192.616 l 2
 124.189 109.474 173.998 46.5781 245.081 46.5781 c 0
 316.075 46.5781 390.705 109.264 408.422 192.616 c 2
 473.751 499.965 l 1
 526.671 499.965 l 1
 461.342 192.616 l 2
 438.461 84.9678 337.514 -4.96484 233.145 -4.96484 c 0
 128.774 -4.96484 66.0605 84.9678 88.9414 192.616 c 2
 154.271 499.965 l 1
EndSplineSet
EndChar
StartChar: V
Encoding: 54 86 54
Width: 450
VWidth: 965
Flags: W
VStem: 114.382 434.681<500.485 500.485>
Fore
491.418 500.485 m 1
 549.063 500.485 l 1
 227.352 -5.57812 l 1
 114.382 500.485 l 1
 171.15 500.485 l 1
 255.502 132.978 l 1
 491.418 500.485 l 1
EndSplineSet
EndChar
StartChar: W
Encoding: 55 87 55
Width: 679
VWidth: 965
Flags: W
Fore
114.297 500.088 m 1
 168.636 500.088 l 1
 230.259 152.235 l 1
 446.7 505.678 l 1
 512.872 152.343 l 1
 721.39 500.088 l 1
 777.675 500.088 l 1
 479.056 -5.28809 l 1
 413.579 345.252 l 1
 199.136 -5.19922 l 1
 114.297 500.088 l 1
EndSplineSet
EndChar
StartChar: X
Encoding: 56 88 56
Width: 356
VWidth: 965
Flags: W
VStem: 7.9834 426.883<-0.0791016 500.079>
Fore
133.873 500.079 m 1
 193.588 500.079 l 1
 247.345 325.894 l 1
 375.15 500.079 l 1
 434.866 500.079 l 1
 265.12 269.083 l 1
 348.131 -0.0791016 l 1
 288.443 -0.0791016 l 1
 223.001 211.365 l 1
 67.6709 -0.0791016 l 1
 7.9834 -0.0791016 l 1
 205.419 269.083 l 1
 133.873 500.079 l 1
EndSplineSet
EndChar
StartChar: Y
Encoding: 57 89 57
Width: 438
VWidth: 965
Flags: W
VStem: 114.295 422.865<500.079 500.079>
Fore
114.295 500.079 m 1
 176.393 500.079 l 1
 276.729 269.556 l 1
 475.062 500.079 l 1
 537.16 500.079 l 1
 291.431 214.238 l 1
 245.876 -0.0791016 l 1
 192.956 -0.0791016 l 1
 238.511 214.238 l 1
 114.295 500.079 l 1
EndSplineSet
EndChar
StartChar: Z
Encoding: 58 90 58
Width: 420
VWidth: 965
Flags: W
HStem: -0.0791016 51.543<117.585 395.062> 448.536 51.543<160.042 408.119>
Fore
160.042 500.079 m 1
 517.722 500.079 l 1
 117.585 51.4639 l 1
 423.659 51.4639 l 1
 395.062 -0.0791016 l 1
 7.9834 -0.0791016 l 1
 408.119 448.536 l 1
 131.446 448.536 l 1
 160.042 500.079 l 1
EndSplineSet
EndChar
StartChar: bracketleft
Encoding: 59 91 59
Width: 162
Flags: W
HStem: -117 54<76.6094 125.131> 488 54<193.728 253.728>
VStem: 11.1309 254.075<-117 542>
Fore
76.6094 -63 m 1
 136.609 -63 l 1
 125.131 -117 l 1
 11.1309 -117 l 1
 151.206 542 l 1
 265.206 542 l 1
 253.728 488 l 1
 193.728 488 l 1
 76.6094 -63 l 1
EndSplineSet
EndChar
StartChar: backslash
Encoding: 60 92 60
Width: 438
Flags: W
HStem: -1 21G<371.353 437.787> 481 20G<106.017 172.451>
VStem: 106.017 331.77<-1 501>
Fore
106.017 501 m 1
 172.451 501 l 1
 437.787 -1 l 1
 371.353 -1 l 1
 106.017 501 l 1
EndSplineSet
EndChar
StartChar: bracketright
Encoding: 61 93 61
Width: 161
Flags: W
HStem: -117 54<-14.3906 45.6094> 488 54<114.206 162.728>
VStem: -25.8691 254.075<-117 542>
Fore
162.728 488 m 1
 102.728 488 l 1
 114.206 542 l 1
 228.206 542 l 1
 88.1309 -117 l 1
 -25.8691 -117 l 1
 -14.3906 -63 l 1
 45.6094 -63 l 1
 162.728 488 l 1
EndSplineSet
EndChar
StartChar: asciicircum
Encoding: 62 94 62
Width: 416
Flags: W
HStem: 227 274<291.555 436.867>
VStem: 75.4893 361.378<227 227>
Fore
291.555 501 m 1
 339.476 501 l 1
 436.867 227 l 1
 374.254 227 l 1
 301.122 433.792 l 1
 138.19 227 l 1
 75.4893 227 l 1
 291.555 501 l 1
EndSplineSet
EndChar
StartChar: underscore
Encoding: 63 95 63
Width: 350
Flags: W
HStem: -53 54<0.212891 338.734>
VStem: -11.2656 361.479<-53 1>
Fore
350.213 1 m 1
 338.734 -53 l 1
 -11.2656 -53 l 1
 0.212891 1 l 1
 350.213 1 l 1
EndSplineSet
EndChar
StartChar: quoteleft
Encoding: 299 8216 64
Width: 160
Flags: W
VStem: 122.723 130.315<408 512>
Fore
174.701 435.05 m 1
 193.79 435.593 213.067 419.03 207.96 395 c 0
 203.291 373.034 181.435 355 159.458 355 c 0
 137.607 355 114.492 371.603 122.723 408 c 0
 127.546 429.324 137.46 462.303 192.383 505.195 c 1
 193.829 512 l 1
 253.038 512 l 1
 221.782 490.63 l 2
 204.185 478.597 184.341 453.771 174.701 435.05 c 1
EndSplineSet
EndChar
StartChar: a
Encoding: 65 97 65
Width: 367
VWidth: 946
Flags: W
HStem: -5.78027 50.4903<99.8973 209.494> 161.387 43.211<207.654 309.048> 295.29 50.49<175.589 291.534>
VStem: 54.8916 305.489<93.3301 193.491>
Fore
334.326 -0.169922 m 1
 276.232 -0.169922 l 1
 272.61 13.3877 272.473 33.4902 276.302 46.3467 c 1
 240.578 16.9473 195.867 -5.78027 150.445 -5.78027 c 0
 68.6289 -5.78027 45.4326 48.8311 54.8916 93.3301 c 0
 78.3545 203.714 233.354 204.599 309.048 204.598 c 1
 315.089 263.27 279.397 295.29 238.939 295.29 c 0
 190.208 295.29 157.079 255.855 147.087 245.263 c 1
 109.951 272.576 l 1
 124.505 288.405 174.733 345.78 249.672 345.78 c 0
 321.803 345.78 378.841 290.168 360.381 193.491 c 2
 336.508 81.1748 l 2
 330.041 50.7471 329.127 16.5254 334.326 -0.169922 c 1
161.178 44.71 m 0
 207.427 44.71 261.476 79.9814 290.973 115.915 c 1
 300.638 161.387 l 1
 218.122 159.688 119.939 150.384 107.812 93.3301 c 0
 103.679 73.8818 114.039 44.71 161.178 44.71 c 0
EndSplineSet
EndChar
StartChar: b
Encoding: 66 98 66
Width: 409
VWidth: 951
Flags: W
HStem: -4.80762 50.4902<159.404 299.106> 294.393 50.49<234.469 351.968>
VStem: 33.0596 379.579<-0.132812 170.037>
Fore
112.155 51.9551 m 1
 106.719 27.0674 100.289 15.1123 92.1328 -0.132812 c 1
 33.0596 -0.132812 l 1
 51.5791 25.0088 64.4854 76.6338 69.4336 99.9121 c 2
 154.434 499.808 l 1
 207.354 499.808 l 1
 162.615 289.329 l 1
 197.574 322.067 246.394 344.883 286.144 344.883 c 0
 379.104 344.883 432.609 263.991 412.639 170.037 c 0
 392.668 76.085 304.773 -4.80762 211.814 -4.80762 c 0
 171.499 -4.80762 133.083 19.7568 112.155 51.9551 c 1
137.259 170.037 m 0
 122.266 99.502 163.655 45.6826 222.546 45.6826 c 0
 281.438 45.6826 345.705 99.5 360.698 170.037 c 0
 375.691 240.574 334.301 294.393 275.411 294.393 c 0
 216.519 294.393 152.252 240.575 137.259 170.037 c 0
EndSplineSet
EndChar
StartChar: c
Encoding: 67 99 67
Width: 374
VWidth: 946
Flags: W
HStem: -4.84473 51.4248<130.001 288.544> 293.42 51.425<182.132 336.596>
VStem: 69.1348 326.272<170 251.8>
Fore
320.21 113.398 m 1
 360.633 88.2012 l 1
 339.35 61.2646 282.765 -4.84473 195.63 -4.84473 c 0
 102.669 -4.84473 49.1641 76.0459 69.1348 170 c 0
 89.1045 263.952 176.999 344.845 269.959 344.845 c 0
 361.887 344.845 388.397 270.994 395.407 251.8 c 1
 344.271 226.602 l 1
 336.748 246.641 318.696 293.42 259.028 293.42 c 0
 199.877 293.42 136.251 241.403 121.272 170.935 c 0
 106.279 100.397 147.669 46.5801 206.561 46.5801 c 0
 269.625 46.5801 308.921 99.2988 320.21 113.398 c 1
EndSplineSet
EndChar
StartChar: d
Encoding: 68 100 68
Width: 409
VWidth: 951
Flags: W
HStem: -4.80762 50.4902<129.814 248.048> 294.393 50.49<182.677 321.642>
VStem: 69.1426 398.394<170.037 499.808>
Fore
376.38 -0.132812 m 1
 317.307 -0.132812 l 1
 315.63 15.123 314.281 27.0508 319.428 51.9551 c 1
 284.812 19.7568 235.953 -4.80762 195.638 -4.80762 c 0
 102.677 -4.80762 49.1719 76.084 69.1426 170.037 c 0
 89.1133 263.99 177.008 344.883 269.967 344.883 c 0
 309.717 344.883 348.837 322.067 369.879 289.329 c 1
 414.617 499.808 l 1
 467.537 499.808 l 1
 382.537 99.9121 l 2
 376.069 69.4844 371.181 16.5635 376.38 -0.132812 c 1
344.522 170.037 m 0
 359.516 240.574 318.126 294.393 259.235 294.393 c 0
 200.344 294.393 136.076 240.575 121.083 170.037 c 0
 106.09 99.502 147.481 45.6826 206.37 45.6826 c 0
 265.263 45.6826 329.529 99.5 344.522 170.037 c 0
EndSplineSet
EndChar
StartChar: e
Encoding: 69 101 69
Width: 397
VWidth: 946
Flags: W
HStem: -4.84473 51.4248<133.961 240.983> 158.78 49.555<136.131 348.696> 294.355 50.49<199.022 322.686>
VStem: 69.1348 332.404<163.824 188.348 170 184.843>
Fore
136.131 208.335 m 1
 348.696 208.335 l 1
 344.507 259.438 308.268 294.355 260.208 294.355 c 0
 213.142 294.355 162.054 259.445 136.131 208.335 c 1
119.141 158.78 m 1
 110.6 93.957 150.715 46.5801 206.561 46.5801 c 0
 249.59 46.5801 294.344 68.8535 330.011 113.398 c 1
 370.434 88.2012 l 1
 306.917 7.81445 230.517 -4.84473 195.63 -4.84473 c 0
 102.669 -4.84473 49.1641 76.0459 69.1348 170 c 0
 89.126 264.052 178.022 344.845 270.94 344.845 c 0
 359.509 344.845 412.795 271.982 401.539 184.843 c 2
 397.819 158.78 l 1
 119.141 158.78 l 1
EndSplineSet
EndChar
StartChar: f
Encoding: 70 102 70
Width: 197
VWidth: 951
Flags: W
HStem: 289.043 50.489<91.9863 109.674 173.326 241.63> 453.668 41.14<237.046 289.706>
VStem: 48.2773 250.174<0.192383 494.808>
Fore
109.674 289.043 m 1
 81.2539 289.043 l 1
 91.9863 339.532 l 1
 120.406 339.532 l 1
 124.196 357.362 l 2
 140.062 432.005 211.772 494.808 286.691 494.808 c 2
 298.451 494.808 l 1
 289.706 453.668 l 1
 277.947 453.668 l 2
 237.046 453.668 188.097 409.022 177.115 357.362 c 2
 173.326 339.532 l 1
 270.002 339.532 l 1
 241.63 289.043 l 1
 162.594 289.043 l 1
 101.197 0.192383 l 1
 48.2773 0.192383 l 1
 109.674 289.043 l 1
EndSplineSet
EndChar
StartChar: g
Encoding: 71 103 71
Width: 408
VWidth: 940
Flags: W
HStem: -164.32 50.49<121.207 249.022> -5.37012 50.4902<127.734 247.194> 293.83 50.49<180.597 322.258>
VStem: 54.1553 394.447<-111.773 339.645>
Fore
369.506 287.557 m 1
 374.943 312.445 381.372 324.399 389.528 339.645 c 1
 448.602 339.645 l 1
 430.082 314.503 417.177 262.879 412.229 239.6 c 2
 363.537 10.5254 l 2
 343.524 -83.626 253.63 -164.32 160.754 -164.32 c 0
 104.289 -164.32 75.752 -137.615 54.1553 -111.773 c 1
 100.201 -76.6396 l 1
 114.017 -93.1758 133.036 -113.83 172.465 -113.83 c 0
 231.355 -113.83 295.624 -60.0107 310.617 10.5254 c 2
 319.047 50.1826 l 1
 284.087 17.4443 235.269 -5.37012 195.519 -5.37012 c 0
 102.558 -5.37012 49.0527 75.5215 69.0234 169.475 c 0
 88.9932 263.428 176.889 344.32 269.848 344.32 c 0
 310.163 344.32 348.578 319.756 369.506 287.557 c 1
342.443 169.475 m 0
 357.437 240.012 316.047 293.83 257.155 293.83 c 0
 198.264 293.83 133.997 240.013 119.004 169.475 c 0
 104.011 98.9395 145.401 45.1201 204.291 45.1201 c 0
 263.184 45.1201 327.45 98.9375 342.443 169.475 c 0
EndSplineSet
EndChar
StartChar: h
Encoding: 72 104 72
Width: 362
VWidth: 951
Flags: W
HStem: 294.555 50.49<226.994 326.681>
VStem: 48.0068 310.681<0.0302734 207.6>
Fore
48.0068 0.0302734 m 1
 154.271 499.97 l 1
 207.192 499.97 l 1
 160.574 280.653 l 1
 194.055 315.575 238.119 345.045 275.201 345.045 c 0
 353.453 345.045 373.871 279.033 358.688 207.6 c 2
 314.567 0.0302734 l 1
 261.647 0.0302734 l 1
 305.768 207.6 l 2
 313.623 244.556 312.098 294.555 263.489 294.555 c 0
 216.956 294.555 145.963 211.909 137.097 170.2 c 2
 100.927 0.0302734 l 1
 48.0068 0.0302734 l 1
EndSplineSet
EndChar
StartChar: i
Encoding: 73 105 73
Width: 147
VWidth: 949
Flags: W
HStem: 377.763 72.929<142.348 181.747>
VStem: 47.6055 152.661<0.307617 414.228>
Fore
169.798 450.692 m 0
 190.925 450.692 204.549 434.374 200.267 414.228 c 0
 195.982 394.07 175.412 377.763 154.296 377.763 c 0
 133.169 377.763 119.545 394.081 123.827 414.228 c 0
 128.111 434.384 148.683 450.692 169.798 450.692 c 0
100.525 0.307617 m 1
 47.6055 0.307617 l 1
 119.734 339.647 l 1
 172.654 339.647 l 1
 100.525 0.307617 l 1
EndSplineSet
EndChar
StartChar: j
Encoding: 74 106 74
Width: 147
VWidth: 946
Flags: W
HStem: -97.3125 45.8154<-27.6367 10.8291> 377.383 72.929<141.736 181.136>
VStem: -37.375 237.031<-97.3125 413.848>
Fore
120.316 340.268 m 1
 173.236 340.268 l 1
 103.479 12.082 l 2
 91.0117 -46.5684 34.6973 -97.3125 -25.6143 -97.3125 c 2
 -37.375 -97.3125 l 1
 -27.6367 -51.4971 l 1
 -15.876 -51.4971 l 2
 10.8291 -51.4971 42.7734 -24.541 50.5586 12.082 c 2
 120.316 340.268 l 1
169.187 450.312 m 0
 190.313 450.312 203.938 433.994 199.656 413.848 c 0
 195.371 393.69 174.801 377.383 153.685 377.383 c 0
 132.558 377.383 118.934 393.701 123.216 413.848 c 0
 127.5 434.004 148.071 450.312 169.187 450.312 c 0
EndSplineSet
EndChar
StartChar: k
Encoding: 75 107 75
Width: 343
VWidth: 951
Flags: W
HStem: 0.0302734 499.94<100.927 154.271>
VStem: 48.0068 335.999<0.0302734 340.37>
Fore
100.927 0.0302734 m 1
 48.0068 0.0302734 l 1
 154.271 499.97 l 1
 207.192 499.97 l 1
 149.039 226.384 l 1
 304.949 340.37 l 1
 384.006 340.37 l 1
 201.383 206.629 l 1
 343.075 0.0302734 l 1
 273.881 0.0302734 l 1
 155.104 173.015 l 1
 134.62 158.548 l 1
 100.927 0.0302734 l 1
EndSplineSet
EndChar
StartChar: l
Encoding: 76 108 76
Width: 148
VWidth: 951
Flags: W
HStem: 0.0302734 499.94<100.927 154.271>
VStem: 48.0068 159.185<0.0302734 499.97>
Fore
100.927 0.0302734 m 1
 48.0068 0.0302734 l 1
 154.271 499.97 l 1
 207.192 499.97 l 1
 100.927 0.0302734 l 1
EndSplineSet
EndChar
StartChar: m
Encoding: 77 109 77
Width: 534
VWidth: 946
Flags: W
HStem: 294.485 49.555<221.232 305.069 409.393 497.928>
VStem: 48.3066 481.982<-0.0400391 206.595>
Fore
159.31 273.896 m 1
 166.893 308.898 167.271 316.127 164.614 340.3 c 1
 105.541 340.3 l 1
 110.74 323.604 105.851 270.683 99.3828 240.255 c 2
 48.3066 -0.0400391 l 1
 101.227 -0.0400391 l 1
 137.397 170.13 l 2
 147.639 218.312 216.162 294.485 251.051 294.485 c 0
 292.603 294.485 292.296 244.171 284.508 207.53 c 2
 240.388 -0.0400391 l 1
 293.307 -0.0400391 l 1
 329.278 169.195 l 2
 338.701 213.526 406.062 293.55 443.912 293.55 c 0
 485.463 293.55 485.157 243.235 477.369 206.595 c 2
 433.447 -0.0400391 l 1
 486.367 -0.0400391 l 1
 530.289 206.595 l 2
 544.79 274.818 530.072 344.04 455.624 344.04 c 0
 420.062 344.04 377.582 312.795 345.952 273.53 c 1
 340.362 314.232 317.077 344.04 267.464 344.04 c 0
 231.901 344.04 187.207 312.25 159.31 273.896 c 1
EndSplineSet
EndChar
StartChar: n
Encoding: 78 110 78
Width: 362
VWidth: 946
Flags: W
HStem: 294.518 50.49<226.832 326.237>
VStem: 47.5635 310.681<-0.0078125 207.562>
Fore
163.871 340.332 m 1
 166.525 316.196 166.178 309.066 158.872 274.689 c 1
 189.787 309.478 237.892 345.008 274.76 345.008 c 0
 353.012 345.008 373.428 278.995 358.245 207.562 c 2
 314.124 -0.0078125 l 1
 261.204 -0.0078125 l 1
 305.324 207.562 l 2
 313.18 244.519 311.655 294.518 263.048 294.518 c 0
 216.513 294.518 145.52 211.872 136.654 170.162 c 2
 100.483 -0.0078125 l 1
 47.5635 -0.0078125 l 1
 98.6396 240.287 l 2
 105.107 270.715 109.997 323.637 104.798 340.332 c 1
 163.871 340.332 l 1
EndSplineSet
EndChar
StartChar: o
Encoding: 79 111 79
Width: 430
VWidth: 946
Flags: W
HStem: -4.84473 50.4892<132.485 319.438> 294.355 50.49<185.35 372.303>
VStem: 69.1348 364.56<151.652 188.348 170 170>
Fore
433.695 170 m 0
 413.113 73.1689 314.837 -4.84473 214.25 -4.84473 c 0
 113.663 -4.84473 48.5527 73.1689 69.1348 170 c 0
 89.7168 266.831 187.992 344.845 288.579 344.845 c 0
 389.166 344.845 454.277 266.83 433.695 170 c 0
122.055 170 m 0
 107.473 101.397 154.057 45.6445 225.963 45.6445 c 0
 297.867 45.6445 368.153 101.397 382.735 170 c 0
 397.317 238.603 350.732 294.355 278.828 294.355 c 0
 206.922 294.355 136.637 238.603 122.055 170 c 0
EndSplineSet
EndChar
StartChar: p
Encoding: 80 112 80
Width: 409
VWidth: 941
Flags: W
HStem: -4.55762 50.4902<160.192 299.158> 294.643 50.49<233.786 352.021>
VStem: 16.2842 396.407<-150.133 170.287>
Fore
105.454 340.457 m 1
 164.527 340.457 l 1
 166.205 325.202 167.554 313.274 162.406 288.369 c 1
 197.022 320.568 245.881 345.133 286.196 345.133 c 0
 379.157 345.133 432.662 264.241 412.691 170.287 c 0
 392.722 76.335 304.826 -4.55762 211.867 -4.55762 c 0
 172.117 -4.55762 132.998 18.2568 111.955 50.9951 c 1
 69.2041 -150.133 l 1
 16.2842 -150.133 l 1
 99.2979 240.412 l 2
 105.765 270.84 110.653 323.762 105.454 340.457 c 1
137.312 170.287 m 0
 122.319 99.752 163.708 45.9326 222.6 45.9326 c 0
 281.491 45.9326 345.759 99.75 360.752 170.287 c 0
 375.745 240.824 334.354 294.643 275.464 294.643 c 0
 216.571 294.643 152.305 240.825 137.312 170.287 c 0
EndSplineSet
EndChar
StartChar: q
Encoding: 81 113 81
Width: 409
VWidth: 941
Flags: W
HStem: -4.55762 50.4902<129.867 247.366> 294.643 50.49<182.73 322.431>
VStem: 69.1953 379.579<170.287 340.457>
Fore
369.679 288.369 m 1
 375.116 313.258 381.545 325.212 389.701 340.457 c 1
 448.774 340.457 l 1
 430.254 315.315 417.35 263.691 412.401 240.412 c 2
 331.514 -140.133 l 1
 278.594 -140.133 l 1
 319.22 50.9951 l 1
 284.26 18.2568 235.441 -4.55762 195.691 -4.55762 c 0
 102.73 -4.55762 49.2256 76.334 69.1953 170.287 c 0
 89.166 264.24 177.062 345.133 270.021 345.133 c 0
 310.336 345.133 348.751 320.568 369.679 288.369 c 1
344.575 170.287 m 0
 359.568 240.824 318.18 294.643 259.288 294.643 c 0
 200.397 294.643 136.129 240.825 121.136 170.287 c 0
 106.144 99.752 147.534 45.9326 206.423 45.9326 c 0
 265.316 45.9326 329.582 99.75 344.575 170.287 c 0
EndSplineSet
EndChar
StartChar: r
Encoding: 82 114 82
Width: 248
VWidth: 946
Flags: W
HStem: 0.0419922 346.434<100.823 255.621>
VStem: 47.9033 264.601<0.0419922 300.177>
Fore
162.354 289.588 m 1
 192.609 318.121 224.268 335.962 255.621 346.476 c 1
 312.504 300.177 l 1
 172.908 300.177 142.993 198.438 137.987 174.887 c 2
 100.823 0.0419922 l 1
 47.9033 0.0419922 l 1
 98.9795 240.337 l 2
 105.447 270.765 110.337 323.688 105.138 340.382 c 1
 164.211 340.382 l 1
 165.852 325.455 167.207 313.836 162.354 289.588 c 1
EndSplineSet
EndChar
StartChar: s
Encoding: 83 115 83
Width: 304
VWidth: 946
Flags: W
HStem: -5.64062 50.332<122.928 205.563> 295.595 49.91<185.744 240.16>
Fore
310.688 266.007 m 1
 257.449 249.091 l 1
 255.915 259.9 l 2
 252.3 285.365 234.505 295.595 215.656 295.595 c 0
 192.647 295.595 172.456 280.512 167.646 257.886 c 0
 156.169 203.89 317.324 215.159 293.614 103.61 c 0
 279.681 38.0605 213.076 -5.64062 150.364 -5.64062 c 0
 97.2432 -5.64062 50.376 26.999 55.8457 100.276 c 2
 56.6748 111.382 l 1
 110.827 118.089 l 1
 109.981 106.932 l 2
 106.612 62.5107 131.833 44.6914 161.515 44.6914 c 0
 195.398 44.6914 233.072 67.7461 240.695 103.61 c 0
 256.066 175.927 92.0664 155.89 113.746 257.886 c 0
 125.527 313.312 177.946 345.505 226.123 345.505 c 0
 257.688 345.505 301.232 330.158 309.143 276.49 c 2
 310.688 266.007 l 1
EndSplineSet
EndChar
StartChar: t
Encoding: 84 116 84
Width: 197
VWidth: 948
Flags: W
HStem: 289.28 50.49<91.0469 109.715 173.366 241.671>
VStem: 48.3184 221.724<0.429688 339.77>
Fore
101.237 0.429688 m 1
 48.3184 0.429688 l 1
 109.715 289.28 l 1
 80.3145 289.28 l 1
 91.0469 339.77 l 1
 120.447 339.77 l 1
 136.346 414.57 l 1
 189.266 414.57 l 1
 173.366 339.77 l 1
 270.042 339.77 l 1
 241.671 289.28 l 1
 162.635 289.28 l 1
 101.237 0.429688 l 1
EndSplineSet
EndChar
StartChar: u
Encoding: 85 117 85
Width: 360
VWidth: 945
Flags: W
HStem: -5.00781 50.4902<133.809 244.343>
VStem: 76.1504 308.721<132.438 340.008>
Fore
120.271 340.008 m 1
 173.191 340.008 l 1
 129.07 132.438 l 2
 118.417 82.3184 146.542 45.4824 188.986 45.4824 c 0
 231.568 45.4824 277.247 82.6475 287.83 132.438 c 2
 331.951 340.008 l 1
 384.871 340.008 l 1
 340.751 132.438 l 2
 324.912 57.9229 254.205 -5.00781 179.235 -5.00781 c 0
 104.264 -5.00781 60.3115 57.9219 76.1504 132.438 c 2
 120.271 340.008 l 1
EndSplineSet
EndChar
StartChar: v
Encoding: 86 118 86
Width: 339
VWidth: 945
Flags: W
HStem: -5.2168 345.445<80.3174 169.745>
VStem: 80.3174 323.51<340.228 340.228>
Fore
80.3174 340.228 m 1
 137.214 340.228 l 1
 196.452 125.606 l 1
 346.016 340.228 l 1
 403.827 340.228 l 1
 169.745 -5.2168 l 1
 80.3174 340.228 l 1
EndSplineSet
EndChar
StartChar: w
Encoding: 87 119 87
Width: 553
VWidth: 946
Flags: W
HStem: -5.07812 350.132<351.692 389.095>
Fore
80.3047 340.169 m 1
 138.034 340.169 l 1
 194.023 129.13 l 1
 351.692 345.054 l 1
 417.519 129.362 l 1
 561.26 340.169 l 1
 617.969 340.169 l 1
 389.095 -5.07812 l 1
 324.36 220.856 l 1
 164.603 -5.01074 l 1
 80.3047 340.169 l 1
EndSplineSet
EndChar
StartChar: x
Encoding: 88 120 88
Width: 334
VWidth: 946
Flags: W
VStem: 7.96387 377.542<-0.169922 340.17>
Fore
94.0645 340.17 m 1
 154.836 340.17 l 1
 214.002 223.483 l 1
 322.774 340.17 l 1
 385.506 340.17 l 1
 236.499 179.359 l 1
 326.922 -0.169922 l 1
 264.128 -0.169922 l 1
 196.2 135.123 l 1
 70.7588 -0.169922 l 1
 7.96387 -0.169922 l 1
 174.707 179.359 l 1
 94.0645 340.17 l 1
EndSplineSet
EndChar
StartChar: y
Encoding: 89 121 89
Width: 338
VWidth: 940
Flags: W
VStem: 39.082 363.647<-163.482 340.482>
Fore
80.3721 340.482 m 1
 135.998 340.482 l 1
 187.109 79.9912 l 1
 346.229 340.482 l 1
 402.729 340.482 l 1
 95.6025 -163.482 l 1
 39.082 -163.482 l 1
 145.154 10.3711 l 1
 80.3721 340.482 l 1
EndSplineSet
EndChar
StartChar: z
Encoding: 90 122 90
Width: 329
VWidth: 946
Flags: W
HStem: -0.169922 50.4902<119.79 296.826> 289.68 50.49<134.656 283.214>
VStem: 7.96387 386.096<-0.169922 340.17>
Fore
134.656 340.17 m 1
 394.06 340.17 l 1
 119.79 50.3203 l 1
 325.199 50.3203 l 1
 296.826 -0.169922 l 1
 7.96387 -0.169922 l 1
 283.214 289.68 l 1
 106.284 289.68 l 1
 134.656 340.17 l 1
EndSplineSet
EndChar
StartChar: braceleft
Encoding: 91 123 91
Width: 205
Flags: W
HStem: -116 44<113.936 162.344> 493 44<244.591 291.79>
VStem: 73.7207 227.422<191.578 537>
Fore
81.7656 229.422 m 1
 118.401 250.815 132.616 261.653 142.893 310 c 2
 164.148 410 l 2
 186.909 517.083 251.023 537 289.143 537 c 2
 301.143 537 l 1
 291.79 493 l 1
 279.79 493 l 2
 244.591 493 225.92 446.561 218.161 410.061 c 2
 197.118 311.061 l 2
 186.454 260.891 169.119 233.075 142.676 211.091 c 1
 157.64 191.994 165.954 164.448 154.594 111 c 2
 133.338 11 l 2
 125.58 -25.5 124.496 -72 159.696 -72 c 2
 171.696 -72 l 1
 162.344 -116 l 1
 150.344 -116 l 2
 112.217 -116 56.5791 -96.0723 79.3379 11 c 2
 100.594 111 l 2
 111.757 163.518 96.9902 173.503 73.7207 191.578 c 1
 81.7656 229.422 l 1
EndSplineSet
EndChar
StartChar: bar
Encoding: 92 124 92
Width: 150
Flags: W
VStem: 34.8213 186.636<-62 562>
Fore
88.8213 -62 m 1
 34.8213 -62 l 1
 167.457 562 l 1
 221.457 562 l 1
 88.8213 -62 l 1
EndSplineSet
EndChar
StartChar: braceright
Encoding: 93 125 93
Width: 206
Flags: W
HStem: -117 44<2.4834 50.4834> 493 43<131.931 180.55>
VStem: -6.86914 228.422<-117 228.422>
Fore
213.509 190.578 m 1
 176.872 169.185 162.657 158.347 152.381 110 c 2
 131.126 10 l 2
 108.74 -95.3125 44.7305 -117 5.13086 -117 c 2
 -6.86914 -117 l 1
 2.4834 -73 l 1
 14.4834 -73 l 2
 50.4834 -73 69.5908 -25.4502 77.126 10 c 2
 98.3809 110 l 2
 109.741 163.444 129.771 190.996 152.849 210.09 c 1
 135.747 232.077 129.228 259.827 139.893 310 c 2
 161.148 410 l 2
 168.906 446.5 169.99 493 134.79 493 c 2
 122.79 493 l 1
 131.931 536 l 1
 143.931 536 l 2
 183.53 536 238.32 514.312 215.936 409 c 2
 194.68 309 l 2
 183.517 256.482 198.283 246.497 221.553 228.422 c 1
 213.509 190.578 l 1
EndSplineSet
EndChar
StartChar: asciitilde
Encoding: 94 126 94
Width: 363
Flags: W
HStem: 115 55<240.51 323.254> 160 55<109.769 198.072>
VStem: 58.082 316.98<118 212>
Fore
331.062 212 m 1xa0
 375.062 212 l 1
 372.512 200 l 2
 359.583 139.179 320.829 115 282.444 115 c 0xa0
 228.069 115 185.134 160 142.009 160 c 0
 117.209 160 108.022 145.95 104.633 130 c 2
 102.082 118 l 1
 58.082 118 l 1
 60.6328 130 l 2
 74.1943 193.802 117.074 215 153.699 215 c 0x60
 213.699 215 252.885 170 294.135 170 c 0
 316.534 170 324.771 182.4 328.512 200 c 2
 331.062 212 l 1xa0
EndSplineSet
EndChar
StartChar: exclamdown
Encoding: 96 161 95
Width: 192
Flags: W
HStem: 265 80<140.761 180.898>
VStem: 25.0186 175.811<-182 305>
Fore
125.728 242 m 1
 169.149 242 l 1
 89.6104 -182 l 1
 25.0186 -182 l 1
 125.728 242 l 1
169.332 345 m 0
 191.298 345 205.501 326.977 200.83 305 c 0
 196.161 283.034 174.305 265 152.327 265 c 0
 130.361 265 116.158 283.023 120.83 305 c 0
 125.499 326.966 147.354 345 169.332 345 c 0
EndSplineSet
EndChar
StartChar: cent
Encoding: 97 162 96
Width: 384
Flags: W
VStem: 74.1348 326.272<170 251.8>
Fore
198.793 -92 m 1
 144.793 -92 l 1
 164.274 -0.345703 l 1
 94.2256 17.875 56.9375 89.0938 74.1348 170 c 0
 91.3311 250.904 158.896 322.124 236.69 340.346 c 1
 256.173 432 l 1
 310.173 432 l 1
 291.469 344.008 l 1
 370.131 335.811 393.836 269.792 400.407 251.8 c 1
 349.271 226.602 l 1
 342.488 244.672 327.143 284.484 280.443 292.135 c 1
 228.523 47.873 l 1
 281.686 56.0449 314.97 100.609 325.21 113.398 c 1
 365.633 88.2012 l 1
 345.755 63.0439 295.085 3.71777 217.496 -4.00977 c 1
 198.793 -92 l 1
175.811 53.9277 m 1
 225.21 286.335 l 1
 179.42 269.835 137.982 226.022 126.272 170.935 c 0
 114.562 115.838 137.25 70.9424 175.811 53.9277 c 1
EndSplineSet
EndChar
StartChar: sterling
Encoding: 98 163 97
Width: 395
Flags: W
HStem: -0.0751953 51.5703<142.837 340.403> 222.44 51.57<115.132 179.271 237.227 319.236> 455.46 50.615<285.214 401.013>
Fore
47.2715 43.6172 m 1
 106.613 73.4355 159.668 109.961 179.271 222.44 c 1
 86.7109 222.44 l 1
 115.132 274.01 l 1
 185.229 274.01 l 1
 189.181 315.771 190.535 356.543 198.772 395.295 c 0
 212.9 461.763 278.798 506.075 340.659 506.075 c 0
 387.085 506.075 439.798 482.296 433.197 387.135 c 1
 390.753 386.792 l 1
 389.844 391.814 396.713 455.46 329.901 455.46 c 0
 295.526 455.46 258.355 433.752 250.385 396.25 c 0
 243.365 363.229 241.721 320.534 237.227 275.92 c 1
 347.657 275.92 l 1
 319.236 224.35 l 1
 231.108 224.35 l 1
 219.701 160.108 196.55 100.802 142.837 51.4951 c 1
 368.824 51.4951 l 1
 340.403 -0.0751953 l 1
 50.6641 -0.0751953 l 1
 47.2715 43.6172 l 1
EndSplineSet
EndChar
StartChar: fraction
Encoding: 312 8260 98
Width: 395
Flags: W
Fore
458.632 512 m 1
 525.066 512 l 1
 41.6465 -12 l 1
 -24.7881 -12 l 1
 458.632 512 l 1
EndSplineSet
EndChar
StartChar: yen
Encoding: 100 165 99
Width: 434
Flags: W
HStem: 127.76 53.48<112.251 218.253 282.002 385.094> 206.07 53.48<129.866 217.398 327.514 404.648>
VStem: 100.884 432.012<127.76 500.21>
Fore
396.462 181.24 m 1
 385.094 127.76 l 1
 270.634 127.76 l 1
 243.434 -0.209961 l 1
 191.053 -0.209961 l 1
 218.253 127.76 l 1
 100.884 127.76 l 1
 112.251 181.24 l 1
 229.621 181.24 l 1
 234.898 206.07 l 1
 118.499 206.07 l 1
 129.866 259.55 l 1
 217.398 259.55 l 1
 114.323 500.21 l 1
 175.8 500.21 l 1
 274.585 269.566 l 1
 471.421 500.21 l 1
 532.896 500.21 l 1
 327.514 259.55 l 1
 416.016 259.55 l 1
 404.648 206.07 l 1
 287.279 206.07 l 1
 282.002 181.24 l 1
 396.462 181.24 l 1
EndSplineSet
EndChar
StartChar: florin
Encoding: 200 402 100
Width: 281
Flags: W
HStem: -53.8604 42.0206<-36.0049 23.165> 249.83 51.57<130.88 165.99 241.928 314.369> 461.84 42.02<342.628 401.799>
VStem: -44.9365 455.667<-53.8604 503.86>
Fore
344.733 301.4 m 1
 314.369 249.83 l 1
 220.365 249.83 l 1
 138.27 52.8867 l 2
 108.175 -23.2432 37.0254 -53.8604 -33.1768 -53.8604 c 2
 -44.9365 -53.8604 l 1
 -36.0049 -11.8398 l 1
 -24.2451 -11.8398 l 2
 23.165 -11.8398 68.7197 14.0625 87.875 62.8535 c 2
 165.99 249.83 l 1
 102.278 249.83 l 1
 130.88 301.4 l 1
 187.535 301.4 l 1
 227.557 397.193 l 2
 259.211 472.956 328.7 503.86 398.971 503.86 c 2
 410.73 503.86 l 1
 401.799 461.84 l 1
 390.039 461.84 l 2
 342.628 461.84 297.07 435.927 277.915 387.136 c 2
 241.928 301.4 l 1
 344.733 301.4 l 1
EndSplineSet
EndChar
StartChar: section
Encoding: 102 167 101
Width: 315
Flags: W
HStem: -44.085 51.5704<121.969 203.029> 452.515 51.57<209.914 281.225>
VStem: 305.882 53.7859<387.55 446.715>
Fore
54.4092 77.2002 m 1
 107.105 77.2002 l 1
 106.298 67.2129 l 2
 102.532 20.6582 130.219 7.48535 157.719 7.48535 c 0
 192.573 7.48535 228.467 30.0088 236.265 66.6953 c 0
 253.013 145.488 65.3662 120.619 91.8633 245.28 c 0
 94.3193 256.836 102.705 291.197 139.403 321.177 c 1
 115.478 347.469 120.24 378.782 123.327 393.305 c 0
 137.455 459.773 203.353 504.085 265.215 504.085 c 0
 317.409 504.085 365.055 472.135 359.668 396.792 c 2
 358.736 383.755 l 1
 305.146 383.755 l 1
 305.869 393.656 l 2
 309.74 446.574 272.093 452.515 255.223 452.515 c 0
 220.37 452.515 184.476 429.991 176.678 393.305 c 0
 159.923 314.481 347.807 340.467 321.281 215.675 c 0
 314.774 185.064 296.65 158.757 273.714 139.803 c 1
 297.669 113.505 292.905 82.1787 289.817 67.6504 c 0
 275.567 0.609375 208.801 -44.085 147.728 -44.085 c 0
 95.3447 -44.085 48.0957 -11.1201 53.4775 64.1631 c 2
 54.4092 77.2002 l 1
268.901 215.675 m 0
 277.886 257.942 226.396 269.812 179.349 292.492 c 1
 154.24 277.938 146.898 257.766 144.447 246.235 c 0
 135.108 202.298 187.609 191.102 232.927 168.504 c 1
 258.752 183.413 266.397 203.897 268.901 215.675 c 0
EndSplineSet
EndChar
StartChar: currency
Encoding: 99 164 102
Width: 437
Flags: W
HStem: 99 55<197 283.972> 358 54<262.661 349.915>
VStem: 53.5029 435.216<106.073 399.079>
Fore
422.658 343.754 m 1
 434.071 318.34 437.221 288.023 430.414 256 c 0
 423.389 222.946 406.297 191.699 383.066 166.079 c 1
 428.625 106.927 l 1
 382.673 69.0293 l 1
 336.88 127.183 l 1
 307.501 109.43 274.065 99 241.043 99 c 0
 207.164 99 177.989 109.448 156.126 127.236 c 1
 83.4033 68.1016 l 1
 53.5029 106.073 l 1
 126.252 165.228 l 1
 113.97 190.82 110.189 222.01 117.202 255 c 0
 124.396 288.847 141.492 320.215 164.696 345.845 c 1
 122.84 399 l 1
 168.881 436.971 l 1
 210.728 383.827 l 1
 239.844 401.504 272.564 412 305.573 412 c 0
 339.682 412 368.736 400.601 390.354 381.882 c 1
 459.002 436.818 l 1
 488.719 399.079 l 1
 422.658 343.754 l 1
171.414 256 m 0
 159.428 199.609 195.344 154 251.733 154 c 0
 308.125 154 363.429 199.61 375.414 256 c 0
 387.4 312.391 351.485 358 295.096 358 c 0
 238.704 358 183.4 312.39 171.414 256 c 0
EndSplineSet
EndChar
StartChar: quotesingle
Encoding: 7 39 103
Width: 176
Flags: W
Fore
189.458 378 m 1
 147.234 378 l 1
 168.122 532 l 1
 234.039 532 l 1
 189.458 378 l 1
EndSplineSet
EndChar
StartChar: quotedblleft
Encoding: 302 8220 104
Width: 248
Flags: W
VStem: 122.723 218.315<408 512>
Fore
174.701 435.05 m 1
 193.79 435.593 213.067 419.03 207.96 395 c 0
 203.291 373.034 181.435 355 159.458 355 c 0
 137.607 355 114.492 371.603 122.723 408 c 0
 127.546 429.324 137.46 462.303 192.383 505.195 c 1
 193.829 512 l 1
 253.038 512 l 1
 221.782 490.63 l 2
 204.185 478.597 184.341 453.771 174.701 435.05 c 1
262.437 434.048 m 1
 280.701 434.622 301.013 418.771 295.747 394 c 0
 291.078 372.034 269.222 354 247.245 354 c 0
 225.395 354 202.271 370.603 210.511 407 c 0
 215.475 428.93 225.617 461.628 280.366 505.118 c 1
 281.829 512 l 1
 341.038 512 l 1
 309.782 490.63 l 2
 292.196 478.605 272.122 453.104 262.437 434.048 c 1
EndSplineSet
EndChar
StartChar: guillemotleft
Encoding: 106 171 105
Width: 297
Flags: W
HStem: 38 264<286.793 297.204>
VStem: 54.1348 299.184<170 302>
Fore
286.793 302 m 1
 353.319 302 l 1
 230.66 170 l 1
 297.204 38 l 1
 230.678 38 l 1
 164.135 170 l 1
 286.793 302 l 1
176.792 302 m 1
 243.319 302 l 1
 120.662 170 l 1
 187.204 38 l 1
 120.677 38 l 1
 54.1348 170 l 1
 176.792 302 l 1
EndSplineSet
EndChar
StartChar: guilsinglleft
Encoding: 310 8249 106
Width: 159
Flags: W
HStem: 38 264<156.028 166.44>
VStem: 33.3711 189.184<170 302>
Fore
156.028 302 m 1
 222.555 302 l 1
 99.8984 170 l 1
 166.44 38 l 1
 99.9141 38 l 1
 33.3711 170 l 1
 156.028 302 l 1
EndSplineSet
EndChar
StartChar: guilsinglright
Encoding: 311 8250 107
Width: 159
Flags: W
HStem: 38 264<64.8281 75.2402>
VStem: 8.71387 189.183<38 170>
Fore
64.8281 302 m 1
 131.355 302 l 1
 197.897 170 l 1
 75.2402 38 l 1
 8.71387 38 l 1
 131.371 170 l 1
 64.8281 302 l 1
EndSplineSet
EndChar
StartChar: endash
Encoding: 297 8211 108
Width: 262
Flags: W
HStem: 143 54<77.874 256.396>
VStem: 66.3955 201.478<143 197>
Fore
267.874 197 m 1
 256.396 143 l 1
 66.3955 143 l 1
 77.874 197 l 1
 267.874 197 l 1
EndSplineSet
EndChar
StartChar: dagger
Encoding: 305 8224 109
Width: 392
Flags: W
HStem: 302.557 54.886<111.977 183.742 348.544 420.311> 307.552 44.905<166.365 239.223 293.312 365.678>
VStem: 100.311 331.666<302.557 357.443>
Fore
200.188 -108 m 1x60
 145.898 -108 l 1
 239.223 307.552 l 1x60
 100.311 302.557 l 1
 111.977 357.443 l 1xa0
 248.522 352.457 l 1
 277.448 512 l 1
 332.21 512 l 1
 293.312 352.457 l 1x60
 431.977 357.443 l 1
 420.311 302.557 l 1xa0
 283.522 307.552 l 1
 200.188 -108 l 1x60
EndSplineSet
EndChar
StartChar: daggerdbl
Encoding: 306 8225 110
Width: 392
Flags: W
HStem: 75.5576 54.8854<63.7266 135.508 300.289 372.061> 80.5449 44.8981<118.501 190.786 244.664 317.627> 274.557 54.886<106.025 177.797 342.59 414.359> 279.557 44.898<160.47 233.422 287.3 359.584>
VStem: 52.0605 373.964<75.5576 329.443>
Fore
200.366 -108 m 1x48
 145.722 -108 l 1
 190.786 80.5449 l 1x48
 52.0605 75.5576 l 1
 63.7266 130.443 l 1x88
 200.664 125.443 l 1
 233.422 279.557 l 1x58
 94.3594 274.557 l 1
 106.025 329.443 l 1x28
 242.63 324.455 l 1
 277.506 512 l 1
 332.152 512 l 1
 287.3 324.455 l 1x18
 426.025 329.443 l 1
 414.359 274.557 l 1x28
 277.422 279.557 l 1
 244.664 125.443 l 1x58
 383.727 130.443 l 1
 372.061 75.5576 l 1x88
 235.454 80.5449 l 1
 200.366 -108 l 1x48
EndSplineSet
EndChar
StartChar: periodcentered
Encoding: 118 183 111
Width: 192
Flags: W
HStem: 210 80<129.071 169.207>
VStem: 109.139 80<231.652 268.344 250 250>
Fore
157.642 290 m 0
 179.607 290 193.811 271.977 189.139 250 c 0
 184.47 228.034 162.614 210 140.637 210 c 0
 118.671 210 104.468 228.023 109.139 250 c 0
 113.809 271.966 135.664 290 157.642 290 c 0
EndSplineSet
EndChar
StartChar: paragraph
Encoding: 117 182 112
Width: 435
Flags: W
HStem: 447.772 51.571<395.076 429.996>
VStem: 106.18 387.158<320.758 499.343>
Fore
282.609 -81.3428 m 1
 230.23 -81.3428 l 1
 277.747 142.208 l 1
 141.22 144.219 87.1836 231.39 106.18 320.758 c 0
 125.397 411.175 218.419 499.343 358.508 499.343 c 2
 493.338 499.343 l 1
 369.909 -81.3428 l 1
 317.529 -81.3428 l 1
 429.996 447.772 l 1
 395.076 447.772 l 1
 282.609 -81.3428 l 1
EndSplineSet
EndChar
StartChar: bullet
Encoding: 307 8226 113
Width: 332
Flags: W
VStem: 78.5117 260<181.653 218.348 200 200>
Fore
236.568 332 m 0
 308.382 332 353.922 272.5 338.512 200 c 0
 323.101 127.5 252.266 68 180.454 68 c 0
 108.641 68 63.1006 127.5 78.5117 200 c 0
 93.9219 272.5 164.757 332 236.568 332 c 0
EndSplineSet
EndChar
StartChar: quotesinglbase
Encoding: 301 8218 114
Width: 192
Flags: W
VStem: 14.0225 132.104<-93 10>
Fore
109.391 63 m 0
 132.566 63 153.607 45.2002 146.126 10 c 0
 132.923 -52.1133 71.6865 -90.0605 70.7246 -90.7383 c 1
 63.2324 -93 l 1
 14.0225 -93 l 1
 45.2783 -71.6299 l 2
 63.1221 -59.4287 82.0391 -35.8359 92.1348 -16.999 c 1
 70.3125 -16.8623 56.2354 1.10645 60.8887 23 c 0
 65.5576 44.9658 87.4141 63 109.391 63 c 0
EndSplineSet
EndChar
StartChar: quotedblbase
Encoding: 304 8222 115
Width: 282
Flags: W
VStem: 14.0225 222.104<-93 10>
Fore
199.391 63 m 0
 222.566 63 243.607 45.2002 236.126 10 c 0
 222.923 -52.1133 161.688 -90.0605 160.725 -90.7383 c 1
 153.232 -93 l 1
 104.023 -93 l 1
 135.278 -71.6299 l 2
 153.122 -59.4287 172.04 -35.8359 182.136 -16.999 c 1
 160.312 -16.8623 146.235 1.10645 150.889 23 c 0
 155.558 44.9658 177.414 63 199.391 63 c 0
109.391 63 m 0
 132.566 63 153.607 45.2002 146.126 10 c 0
 132.923 -52.1133 71.6865 -90.0605 70.7246 -90.7383 c 1
 63.2324 -93 l 1
 14.0225 -93 l 1
 45.2783 -71.6299 l 2
 63.1221 -59.4287 82.0391 -35.8359 92.1348 -16.999 c 1
 70.3125 -16.8623 56.2354 1.10645 60.8887 23 c 0
 65.5576 44.9658 87.4141 63 109.391 63 c 0
EndSplineSet
EndChar
StartChar: quotedblright
Encoding: 303 8221 116
Width: 249
Flags: W
VStem: 88.9072 221.444<355 458>
Fore
258.309 430.948 m 1
 239.242 430.479 220.006 446.969 225.114 471 c 0
 229.783 492.966 251.64 511 273.616 511 c 0
 295.467 511 318.088 494.4 310.351 458 c 0
 297.148 395.887 235.912 357.939 234.95 357.262 c 1
 227.458 355 l 1
 177.906 355 l 1
 210.764 376.545 l 2
 228.976 388.486 248.694 412.588 258.309 430.948 c 1
169.309 430.948 m 1
 150.242 430.479 131.006 446.969 136.114 471 c 0
 140.783 492.966 162.64 511 184.616 511 c 0
 206.467 511 229.088 494.4 221.351 458 c 0
 208.148 395.887 146.912 357.939 145.95 357.262 c 1
 138.458 355 l 1
 88.9072 355 l 1
 121.765 376.545 l 2
 139.976 388.486 159.694 412.588 169.309 430.948 c 1
EndSplineSet
EndChar
StartChar: guillemotright
Encoding: 122 187 117
Width: 297
Flags: W
HStem: 38 264<72.1924 82.6045>
VStem: 16.0771 299.185<38 170>
Fore
72.1924 302 m 1
 138.72 302 l 1
 205.262 170 l 1
 82.6045 38 l 1
 16.0771 38 l 1
 138.734 170 l 1
 72.1924 302 l 1
182.192 302 m 1
 248.718 302 l 1
 315.262 170 l 1
 192.604 38 l 1
 126.077 38 l 1
 248.735 170 l 1
 182.192 302 l 1
EndSplineSet
EndChar
StartChar: ellipsis
Encoding: 308 8230 118
Width: 592
Flags: W
HStem: -17 80<80.821 120.956 281.821 321.956 480.821 520.956>
VStem: 60.8887 480<4.65205 41.346 23 23>
Fore
109.391 63 m 0
 131.357 63 145.561 44.9775 140.889 23 c 0
 136.22 1.03418 114.363 -17 92.3867 -17 c 0
 70.4209 -17 56.2178 1.02246 60.8887 23 c 0
 65.5576 44.9658 87.4141 63 109.391 63 c 0
509.391 63 m 0
 531.357 63 545.561 44.9775 540.889 23 c 0
 536.22 1.03418 514.363 -17 492.387 -17 c 0
 470.421 -17 456.218 1.02246 460.889 23 c 0
 465.558 44.9658 487.414 63 509.391 63 c 0
310.391 63 m 0
 332.357 63 346.561 44.9775 341.889 23 c 0
 337.22 1.03418 315.363 -17 293.387 -17 c 0
 271.421 -17 257.218 1.02246 261.889 23 c 0
 266.558 44.9658 288.414 63 310.391 63 c 0
EndSplineSet
EndChar
StartChar: perthousand
Encoding: 309 8240 119
Width: 742
Flags: W
HStem: -18 55<336.85 418.882 586.64 668.668> 147 55<360.228 442.26 610.017 692.047> 295 55<155.381 237.41> 460 55<178.76 260.79>
Fore
499.556 92 m 0
 486.665 31.3564 426.817 -18 366.174 -18 c 0
 305.531 -18 266.665 31.3574 279.556 92 c 0
 292.445 152.643 352.293 202 412.937 202 c 0
 473.579 202 512.445 152.643 499.556 92 c 0
333.556 92 m 0
 327.104 61.6475 346.315 37 377.864 37 c 0
 409.416 37 439.104 61.6504 445.556 92 c 0
 452.007 122.352 432.795 147 401.246 147 c 0
 369.694 147 340.006 122.349 333.556 92 c 0
749.343 91 m 0
 736.452 30.3564 676.604 -19 615.961 -19 c 0
 555.318 -19 516.453 30.3574 529.343 91 c 0
 542.232 151.643 602.081 201 662.724 201 c 0
 723.367 201 762.232 151.643 749.343 91 c 0
583.343 91 m 0
 576.891 60.6475 596.104 36 627.652 36 c 0
 659.203 36 688.892 60.6504 695.343 91 c 0
 701.794 121.352 682.582 146 651.033 146 c 0
 619.482 146 589.794 121.349 583.343 91 c 0
318.085 405 m 0
 305.195 344.357 245.348 295 184.704 295 c 0
 124.061 295 85.1953 344.357 98.085 405 c 0
 110.976 465.643 170.824 515 231.467 515 c 0
 292.109 515 330.976 465.643 318.085 405 c 0
152.085 405 m 0
 145.634 374.648 164.846 350 196.395 350 c 0
 227.945 350 257.635 374.651 264.085 405 c 0
 270.537 435.352 251.325 460 219.776 460 c 0
 188.225 460 158.536 435.349 152.085 405 c 0
506.994 509 m 1
 573.429 509 l 1
 90.0088 -15 l 1
 23.5742 -15 l 1
 506.994 509 l 1
EndSplineSet
EndChar
StartChar: questiondown
Encoding: 126 191 120
Width: 366
Flags: W
HStem: -189 54<86.1582 223.646> 265 80<237.762 277.898>
VStem: 27.1592 292.551<-53.1141 -39 -51 -39>
Fore
249.327 265 m 0
 227.361 265 213.158 283.023 217.83 305 c 0
 222.499 326.966 244.355 345 266.332 345 c 0
 288.298 345 302.501 326.977 297.83 305 c 0
 293.161 283.034 271.305 265 249.327 265 c 0
215.376 237 m 1
 269.376 237 l 1
 256.197 175 l 2
 230.265 52.998 93.9531 9.1875 81.1592 -51 c 0
 70.3721 -101.751 100.269 -135 147.305 -135 c 0
 206.029 -135 255.046 -89.1699 263.159 -51 c 2
 265.71 -39 l 1
 319.71 -39 l 1
 317.159 -51 l 2
 301.498 -124.682 219.057 -189 135.827 -189 c 0
 56.8672 -189 10.3301 -130.179 27.1592 -51 c 0
 46.9756 42.2246 181.631 78.2441 202.197 175 c 2
 215.376 237 l 1
EndSplineSet
EndChar
StartChar: grave
Encoding: 64 96 121
Width: 143
Flags: W
Fore
196.726 400 m 1
 149.538 400 l 1
 115.715 522 l 1
 181.576 522 l 1
 196.726 400 l 1
EndSplineSet
EndChar
StartChar: acute
Encoding: 115 180 122
Width: 212
Flags: W
HStem: 388 144<192.239 250.477>
VStem: 128.668 209.379<388 532>
Fore
250.477 532 m 1
 338.047 532 l 1
 192.239 388 l 1
 128.668 388 l 1
 250.477 532 l 1
EndSplineSet
EndChar
StartChar: circumflex
Encoding: 201 710 123
Width: 232
Flags: W
HStem: 478 113<225.316 336.749>
VStem: 98.4551 238.294<478 478>
Fore
225.316 591 m 1
 257.925 591 l 1
 336.749 478 l 1
 263.364 478 l 1
 228.092 527.351 l 1
 171.84 478 l 1
 98.4551 478 l 1
 225.316 591 l 1
EndSplineSet
EndChar
StartChar: tilde
Encoding: 206 732 124
Width: 218
Flags: W
HStem: 480.014 34.986<176.467 255.698>
VStem: 103.612 211.004<431 511>
Fore
106.162 443 m 2
 119.164 504.166 154.467 515 176.467 515 c 0
 213.358 515 238.223 481.32 255.698 480.014 c 2
 255.698 480.014 250.37 479.945 256.027 480 c 0
 257.868 480.018 265.835 483.8 269.065 499 c 2
 271.616 511 l 1
 314.616 511 l 1
 312.065 499 l 2
 300.312 443.7 275.536 425 244.337 425 c 0
 194.562 425 163.167 494.772 150.056 442.539 c 2
 147.159 431 l 1
 103.612 431 l 1
 106.162 443 l 2
EndSplineSet
EndChar
StartChar: macron
Encoding: 110 175 125
Width: 302
Flags: W
HStem: 393 54<131.013 349.535>
VStem: 119.535 241.478<393 447>
Fore
361.013 447 m 1
 349.535 393 l 1
 119.535 393 l 1
 131.013 447 l 1
 361.013 447 l 1
EndSplineSet
EndChar
StartChar: dotaccent
Encoding: 203 729 126
Width: 192
Flags: W
HStem: 403 80<170.095 210.231>
VStem: 150.162 80<424.652 461.344 443 443>
Fore
198.665 483 m 0
 220.631 483 234.834 464.977 230.162 443 c 0
 225.493 421.034 203.638 403 181.66 403 c 0
 159.694 403 145.491 421.023 150.162 443 c 0
 154.832 464.966 176.688 483 198.665 483 c 0
EndSplineSet
EndChar
StartChar: dieresis
Encoding: 103 168 127
Width: 224
Flags: W
HStem: 393 80<123.969 164.105 243.969 284.105>
VStem: 104.037 200<414.654 451.348 433 433>
Fore
152.539 473 m 0
 174.505 473 188.708 454.977 184.037 433 c 0
 179.368 411.034 157.512 393 135.535 393 c 0
 113.568 393 99.3652 411.023 104.037 433 c 0
 108.706 454.966 130.562 473 152.539 473 c 0
272.539 473 m 0
 294.505 473 308.708 454.977 304.037 433 c 0
 299.368 411.034 277.512 393 255.535 393 c 0
 233.568 393 219.365 411.023 224.037 433 c 0
 228.706 454.966 250.562 473 272.539 473 c 0
EndSplineSet
EndChar
StartChar: ring
Encoding: 204 730 128
Width: 192
Flags: W
HStem: 364 54<163.681 206.018> 478 54<176.433 218.77>
VStem: 107.226 168<429.653 466.349 448 448>
Fore
275.226 448 m 0
 265.331 401.45 219.919 364 173.37 364 c 0
 126.82 364 97.3311 401.452 107.226 448 c 0
 117.12 494.55 162.532 532 209.08 532 c 0
 255.63 532 285.119 494.548 275.226 448 c 0
161.226 448 m 0
 157.764 431.716 168.566 418 184.849 418 c 0
 201.133 418 217.765 431.717 221.226 448 c 0
 224.687 464.284 213.885 478 197.602 478 c 0
 181.318 478 164.687 464.283 161.226 448 c 0
EndSplineSet
EndChar
StartChar: cedilla
Encoding: 119 184 129
Width: 210
Flags: W
HStem: -154 158<99.9492 121.044 67.2666 99.9492>
VStem: 3.91113 151.457<-129.588 4>
Fore
99.9492 4 m 5
 155.368 4 l 5
 127.273 -32.249 l 5
 161.727 -45.1572 158.096 -74.8232 154.87 -90 c 5
 146.777 -128.074 108.634 -153.213 67.2666 -154 c 5
 47.9141 -154 28.8184 -148.274 12.5576 -136.075 c 6
 3.91113 -129.588 l 5
 42.5791 -84.2334 l 5
 51.3105 -91.0156 l 6
 81.7383 -114.65 129.367 -86.7988 77.6523 -77.8633 c 6
 39.2051 -72.4668 l 5
 99.9492 4 l 5
EndSplineSet
EndChar
StartChar: hungarumlaut
Encoding: 207 733 130
Width: 342
Flags: W
HStem: 388 144<192.239 250.477>
VStem: 128.668 339.379<388 532>
Fore
250.477 532 m 1
 338.047 532 l 1
 192.239 388 l 1
 128.668 388 l 1
 250.477 532 l 1
380.477 532 m 1
 468.047 532 l 1
 322.239 388 l 1
 258.668 388 l 1
 380.477 532 l 1
EndSplineSet
EndChar
StartChar: ogonek
Encoding: 205 731 131
Width: 203
Flags: W
HStem: -143 49<75.6045 106.105>
VStem: 19.8457 131.056<-76 12>
Fore
19.8457 -76 m 0
 27.4814 -40.0762 60.5742 -9.31836 85.4082 12 c 1
 150.902 12 l 1
 126.84 -8.35352 l 2
 86.3115 -42.6338 77.8916 -61.6709 75.0586 -75 c 0
 71.8271 -90.2002 87.3193 -94 95.0195 -94 c 0
 100.319 -94 107.47 -91.7676 114.223 -87.4004 c 2
 124.797 -80.5596 l 1
 147.686 -117.431 l 1
 135.252 -124.889 l 2
 114.769 -137.175 94.1064 -143 75.6045 -143 c 0
 36.9541 -143 11.3008 -116.2 19.8457 -76 c 0
EndSplineSet
EndChar
StartChar: caron
Encoding: 202 711 132
Width: 232
Flags: W
HStem: 478 113<122.474 233.906>
VStem: 122.474 238.294<591 591>
Fore
233.906 478 m 1
 201.298 478 l 1
 122.474 591 l 1
 195.858 591 l 1
 231.131 541.649 l 1
 287.383 591 l 1
 360.768 591 l 1
 233.906 478 l 1
EndSplineSet
EndChar
StartChar: emdash
Encoding: 298 8212 133
Width: 462
Flags: W
HStem: 143 54<77.874 456.396>
VStem: 66.3955 401.478<143 197>
Fore
467.874 197 m 1
 456.396 143 l 1
 66.3955 143 l 1
 77.874 197 l 1
 467.874 197 l 1
EndSplineSet
EndChar
StartChar: AE
Encoding: 133 198 134
Width: 558
Flags: W
HStem: -0.209961 51.5704<378.531 520.452> 147.815 51.57<192.395 326.552> 262.415 51.57<384.391 548.835> 448.64 51.57<387.89 608.019>
VStem: 323.51 55.021<51.3604 145.772> 328.276 55.336<199.385 262.415> 333.899 53.991<333.189 421.378> 333.899 50.492<313.985 421.378>
Fore
559.797 313.985 m 1xf1
 548.835 262.415 l 1
 383.612 262.415 l 1xf4
 378.531 51.3604 l 1
 531.414 51.3604 l 1
 520.452 -0.209961 l 1
 323.51 -0.209961 l 1xf8
 326.552 147.815 l 1
 158.964 147.815 l 1
 64.7793 -0.209961 l 1
 7.95508 -0.209961 l 1
 326.921 500.21 l 1
 618.979 500.21 l 1
 608.019 448.64 l 1
 387.89 448.64 l 1xf2
 384.391 313.985 l 1
 559.797 313.985 l 1xf1
192.395 199.385 m 1
 328.276 199.385 l 1xf4
 333.899 421.378 l 1xf2
 192.395 199.385 l 1
EndSplineSet
EndChar
StartChar: ordfeminine
Encoding: 105 170 135
Width: 281
Flags: W
HStem: 196 50<141.163 210.154> 334 45<165.302 256.192> 420 49<174.023 262.422>
VStem: 253.562 52.633<204.958 241.798>
Fore
266.892 314.699 m 2
 269.292 325.995 l 1
 253.379 330.512 232.927 334 212.994 334 c 0
 176.308 334 143.806 323.705 136.429 289 c 0
 130.322 260.271 149.5 246 177.289 246 c 0
 221.9 246 259.97 294.387 266.892 314.699 c 2
152.97 383.652 m 1
 113.972 397.635 l 1
 128.07 415.119 170.267 469 233.689 469 c 0
 297.634 469 341.785 422.408 325.545 346 c 2
 310.453 275 l 2
 304.498 246.983 305.938 211.848 306.195 204.958 c 1
 253.562 193.79 l 1
 252.864 206.679 252.011 214.153 253.538 233.745 c 1
 230.051 212.632 200.117 196 166.661 196 c 0
 110.148 196 74.5684 233.2 86.4287 289 c 0
 100.66 355.951 163.378 379 219.559 379 c 0
 239.659 379 258.993 376.217 276.017 371.385 c 1
 274.067 402.155 252.926 420 221.273 420 c 0
 184.927 420 161.868 394.921 152.97 383.652 c 1
EndSplineSet
EndChar
StartChar: Lslash
Encoding: 191 321 136
Width: 389
VWidth: 965
Flags: W
HStem: -0.0791016 51.543<111.859 356.683>
VStem: 20.4736 347.164<51.4639 96.3193>
Fore
356.683 -0.0791016 m 1
 47.9834 -0.0791016 l 1
 77.5449 139 l 1
 20.4736 96.3193 l 1
 35.7939 168.397 l 1
 92.8672 211.082 l 1
 154.295 500.079 l 1
 207.215 500.079 l 1
 155.79 258.142 l 1
 300.945 366.703 l 1
 285.621 294.607 l 1
 140.468 186.056 l 1
 111.859 51.4639 l 1
 367.638 51.4639 l 1
 356.683 -0.0791016 l 1
EndSplineSet
EndChar
StartChar: Oslash
Encoding: 151 216 137
Width: 587
VWidth: 965
Flags: W
HStem: -4.85156 51.543<258.9 453.086> 453.309 51.543<240.552 434.582>
Fore
113.947 -54.5234 m 1
 74.8828 -25.5859 l 1
 141.58 51.1201 l 1
 91.9688 97.8066 69.0312 169.512 86.1387 250 c 0
 116.084 390.879 257.275 504.852 400.989 504.852 c 0
 443.13 504.852 480.887 495.053 512.453 477.649 c 1
 579.295 554.521 l 1
 618.391 525.56 l 1
 551.865 449.06 l 1
 601.609 402.379 624.629 330.592 607.498 250 c 0
 577.554 109.121 436.363 -4.85156 292.648 -4.85156 c 0
 250.393 -4.85156 212.543 5.00195 180.924 22.4951 c 1
 113.947 -54.5234 l 1
513.873 405.371 m 1
 218.888 66.1523 l 1
 243.156 53.6748 271.787 46.6914 303.604 46.6914 c 0
 418.59 46.6914 530.752 137.905 554.578 250 c 0
 567.808 312.242 551.066 368.045 513.873 405.371 c 1
474.485 433.984 m 1
 450.274 446.376 421.734 453.309 390.034 453.309 c 0
 275.048 453.309 162.886 362.095 139.059 250 c 0
 125.852 187.863 142.515 132.143 179.576 94.8184 c 1
 474.485 433.984 l 1
EndSplineSet
EndChar
StartChar: OE
Encoding: 193 338 138
Width: 670
Flags: W
HStem: -4.98535 51.5704<159.1 341.572> -0.209961 51.5704<387.997 632.814> 262.415 51.57<442.84 669.038> 448.64 51.57<471.461 727.241> 453.415 51.57<245.574 427.31>
Fore
442.84 313.985 m 1x30
 680 313.985 l 1
 669.038 262.415 l 1
 432.858 262.415 l 1
 387.997 51.3604 l 1
 643.776 51.3604 l 1
 632.814 -0.209961 l 1
 348.72 -0.209961 l 1x70
 332.192 -3.06738 314.812 -4.98535 297.62 -4.98535 c 0
 153.906 -4.98535 61.1787 109.048 91.1387 250 c 0
 121.1 390.952 262.304 504.985 406.018 504.985 c 0xa8
 423.209 504.985 439.774 503.067 455.087 500.21 c 1
 738.203 500.21 l 1
 727.241 448.64 l 1
 471.461 448.64 l 1
 442.84 313.985 l 1x30
334.354 47.96 m 1
 420.244 452.041 l 1
 412.209 452.952 403.681 453.415 395.057 453.415 c 0x28
 280.07 453.415 167.897 362.153 144.059 250 c 0
 120.22 137.847 193.596 46.585 308.582 46.585 c 0
 317.206 46.585 325.932 47.0488 334.354 47.96 c 1
EndSplineSet
EndChar
StartChar: ordmasculine
Encoding: 121 186 139
Width: 275
Flags: W
HStem: 195 53<139.676 241.753> 394 53<170.708 272.785>
VStem: 80.2305 252<302.652 339.348 321 321>
Fore
332.23 321 m 0
 317.435 251.39 249.058 195 179.448 195 c 0
 109.839 195 65.4346 251.391 80.2305 321 c 0
 95.0264 390.61 163.404 447 233.013 447 c 0
 302.623 447 347.026 390.609 332.23 321 c 0
134.23 321 m 0
 125.639 280.578 151.454 248 190.714 248 c 0
 229.975 248 269.639 280.579 278.23 321 c 0
 286.822 361.422 261.007 394 221.747 394 c 0
 182.486 394 142.822 361.421 134.23 321 c 0
EndSplineSet
EndChar
StartChar: ae
Encoding: 165 230 140
Width: 635
VWidth: 946
Flags: W
HStem: -5.78027 50.4903<99.8436 218.646 369.867 473.928> 161.384 47.214<211.443 300.046 369.077 581.642> 294.355 50.49<175.536 291.481 432.392 555.631>
Fore
161.123 44.71 m 0
 207.372 44.71 261.422 79.9814 290.919 115.915 c 1
 300.04 158.83 l 2
 300.17 159.68 300.307 160.531 300.448 161.384 c 1
 217.961 159.678 119.88 150.353 107.759 93.3301 c 0
 103.625 73.8818 113.985 44.71 161.123 44.71 c 0
369.077 208.335 m 1
 581.642 208.335 l 1
 577.454 259.438 541.213 294.355 493.154 294.355 c 0
 446.088 294.355 395.001 259.445 369.077 208.335 c 1
352.949 158.78 m 1
 351.282 150.939 l 2
 346.845 90.1719 385.938 46.5801 439.507 46.5801 c 0
 482.537 46.5801 527.289 68.8535 562.957 113.398 c 1
 603.38 88.2012 l 1
 539.863 7.81445 463.462 -4.84473 428.576 -4.84473 c 0
 369.782 -4.84473 326.771 27.5117 308.148 75.0654 c 1
 266.219 28.3232 202.895 -5.78027 150.392 -5.78027 c 0
 68.5752 -5.78027 45.3789 48.8311 54.8379 93.3301 c 0
 78.3008 203.714 234.151 208.599 309.844 208.598 c 1
 315.885 267.27 279.344 295.29 238.886 295.29 c 0
 190.155 295.29 157.025 255.855 147.033 245.263 c 1
 109.897 272.576 l 1
 124.451 288.405 174.681 345.78 249.618 345.78 c 0
 298.411 345.78 340.298 320.333 356.582 273.941 c 1
 395.306 316.543 448.891 344.845 503.886 344.845 c 0
 592.455 344.845 645.741 271.982 634.484 184.843 c 2
 630.767 158.78 l 1
 352.949 158.78 l 1
EndSplineSet
EndChar
StartChar: lslash
Encoding: 192 322 141
Width: 148
VWidth: 965
Flags: W
VStem: 32.2031 175.012<109.161 500.079>
Fore
100.903 -0.0791016 m 1
 47.9834 -0.0791016 l 1
 78.6299 144.103 l 1
 32.2031 109.161 l 1
 47.5508 181.365 l 1
 93.9775 216.307 l 1
 154.295 500.079 l 1
 207.215 500.079 l 1
 156.976 263.721 l 1
 202.308 297.839 l 1
 186.96 225.635 l 1
 141.628 191.517 l 1
 100.903 -0.0791016 l 1
EndSplineSet
EndChar
StartChar: oslash
Encoding: 183 248 142
Width: 430
VWidth: 946
Flags: W
HStem: -4.84473 50.4892<189.84 319.438> 294.355 50.49<185.35 298.961>
VStem: 57.3574 376.338<-28.1113 170>
Fore
433.695 170 m 0
 413.113 73.1689 314.837 -4.84473 214.25 -4.84473 c 0
 189.119 -4.84473 166.202 0.0253906 146.283 8.8418 c 1
 100.34 -53.1582 l 1
 57.3574 -28.1113 l 1
 105.115 36.6299 l 1
 72.5771 68.6572 57.752 116.451 69.1348 170 c 0
 89.7168 266.831 187.992 344.845 288.579 344.845 c 0
 302.857 344.845 316.42 343.273 329.125 340.299 c 1
 368.194 393.261 l 1
 411.67 366.977 l 1
 376.931 320.097 l 1
 423.546 289.596 447.276 233.894 433.695 170 c 0
294.554 293.434 m 1
 289.465 294.042 284.217 294.355 278.828 294.355 c 0
 206.922 294.355 136.637 238.603 122.055 170 c 0
 114.965 136.645 122.334 106.327 140.044 83.9785 c 1
 294.554 293.434 l 1
343.851 275.456 m 1
 179.974 54.3066 l 1
 193.599 48.7168 209.083 45.6445 225.963 45.6445 c 0
 297.867 45.6445 368.153 101.397 382.735 170 c 0
 392.179 214.424 375.973 253.459 343.851 275.456 c 1
EndSplineSet
EndChar
StartChar: oe
Encoding: 194 339 143
Width: 716
VWidth: 946
Flags: W
HStem: -4.84473 50.4892<132.485 299.906 447.961 554.983> 158.78 49.555<450.131 662.696> 294.355 50.49<185.35 372.303 513.023 636.686>
Fore
122.055 170 m 0
 107.473 101.397 154.057 45.6445 225.963 45.6445 c 0
 297.867 45.6445 368.153 101.397 382.735 170 c 0
 397.317 238.603 350.732 294.355 278.828 294.355 c 0
 206.922 294.355 136.637 238.603 122.055 170 c 0
433.141 158.78 m 1
 424.601 93.957 464.715 46.5801 520.561 46.5801 c 0
 563.59 46.5801 608.344 68.8535 644.011 113.398 c 1
 684.434 88.2012 l 1
 620.917 7.81445 544.517 -4.84473 509.63 -4.84473 c 0
 449.254 -4.84473 405.521 29.2764 387.753 78.9375 c 1
 345.034 28.6279 280.139 -4.84473 214.25 -4.84473 c 0
 113.663 -4.84473 48.5527 73.1689 69.1348 170 c 0
 89.7168 266.831 187.992 344.845 288.579 344.845 c 0
 354.562 344.845 405.278 311.275 426.556 260.846 c 1
 465.735 310.646 524.486 344.845 584.94 344.845 c 0
 673.509 344.845 726.795 271.982 715.539 184.843 c 2
 711.819 158.78 l 1
 433.141 158.78 l 1
450.131 208.335 m 1
 662.696 208.335 l 1
 658.507 259.438 622.268 294.355 574.208 294.355 c 0
 527.143 294.355 476.054 259.445 450.131 208.335 c 1
EndSplineSet
EndChar
StartChar: germandbls
Encoding: 158 223 144
Width: 372
Flags: W
HStem: -4.99023 46.0683<195.938 281.867> 506.15 50.615<239.962 344.048>
VStem: 48.2734 359.019<0.955078 422.11>
Fore
161.646 68.7178 m 5
 180.513 49.5596 202.392 41.0781 223.905 41.0781 c 4
 268.491 41.0781 311.505 77.5078 322.84 130.835 c 4
 336.072 193.09 228.519 212.688 244.816 289.365 c 4
 257.604 349.53 342.228 369.585 353.595 423.064 c 4
 364.895 476.226 332.008 506.15 291.876 506.15 c 4
 251.942 506.15 201.902 474.755 182.999 385.82 c 6
 101.193 0.955078 l 5
 48.2734 0.955078 l 5
 129.876 384.865 l 6
 154.479 500.616 234.011 556.765 304.594 556.765 c 4
 371.352 556.765 425.199 506.356 407.292 422.11 c 4
 390.951 345.232 304.375 315.985 298.514 288.41 c 4
 290.19 249.254 395.119 217.304 376.334 128.925 c 4
 360.06 52.3584 294.002 -4.99023 222.481 -4.99023 c 4
 186.536 -4.99023 149.211 9.49609 116.131 43.3076 c 5
 161.646 68.7178 l 5
EndSplineSet
EndChar
StartChar: logicalnot
Encoding: 107 172 145
Width: 446
Flags: W
HStem: 263 54<85.3809 429.902>
VStem: 73.9023 421.479<263 317>
Fore
495.381 317 m 1
 450.956 108 l 1
 396.956 108 l 1
 429.902 263 l 1
 73.9023 263 l 1
 85.3809 317 l 1
 495.381 317 l 1
EndSplineSet
EndChar
StartChar: trademark
Encoding: 314 8482 146
Width: 569
Flags: W
HStem: 552.316 47.75<168.604 228.033 277.033 346.613>
VStem: 561.327 46.229<338.396 479.51>
Fore
356.763 600.066 m 1
 346.613 552.316 l 1
 277.033 552.316 l 1
 231.563 338.396 l 1
 182.563 338.396 l 1
 228.033 552.316 l 1
 158.454 552.316 l 1
 168.604 600.066 l 1
 356.763 600.066 l 1
561.327 479.51 m 1
 447.673 332.852 l 1
 400.48 479.611 l 1
 342.168 338.352 l 1
 291.688 338.352 l 1
 408.2 605.435 l 1
 469.253 427.847 l 1
 607.556 604.307 l 1
 608.398 338.396 l 1
 558.954 338.396 l 1
 561.327 479.51 l 1
EndSplineSet
EndChar
StartChar: Eth
Encoding: 143 208 147
Width: 457
Flags: W
HStem: -0.209961 51.5704<112.097 285.29> 224.215 51.57<57.9404 95.918 159.8 293.878> 448.64 51.57<196.541 404.345>
VStem: 46.9785 425.841<231.652 238.328 224.215 250>
Fore
112.097 51.3604 m 1
 169.917 51.3604 l 2
 285.29 51.3604 396.088 137.978 419.899 250 c 0
 443.71 362.022 369.733 448.64 254.361 448.64 c 2
 196.541 448.64 l 1
 159.8 275.785 l 1
 304.84 275.785 l 1
 293.878 224.215 l 1
 148.838 224.215 l 1
 112.097 51.3604 l 1
106.88 275.785 m 1
 154.583 500.21 l 1
 265.323 500.21 l 2
 408.696 500.21 502.804 391.066 472.819 250 c 0
 442.834 108.933 302.327 -0.209961 158.955 -0.209961 c 2
 48.2148 -0.209961 l 1
 95.918 224.215 l 1
 46.9785 224.215 l 1
 57.9404 275.785 l 1
 106.88 275.785 l 1
EndSplineSet
EndChar
StartChar: onehalf
Encoding: 124 189 148
Width: 610
Flags: W
HStem: 0.145508 51.5693<418.159 569.922> 294.285 51.57<493.639 567.55>
Fore
580.884 51.7148 m 1
 569.922 0.145508 l 1
 345.851 0.145508 l 1
 351.129 24.9756 l 2
 375.568 139.957 557.734 161.859 572.282 230.3 c 0
 580.281 267.935 559.021 294.285 530.592 294.285 c 0
 502.167 294.285 469.701 267.932 461.702 230.3 c 2
 459.266 218.84 l 1
 406.886 218.84 l 1
 409.321 230.3 l 2
 422.477 292.188 480.882 345.855 542.524 345.855 c 0
 604.007 345.855 639.97 293.193 626.805 231.255 c 0
 606.415 135.33 462.884 110.661 418.159 51.7148 c 1
 580.884 51.7148 l 1
542.237 500.565 m 1
 606.679 500.565 l 1
 139.432 0.145508 l 1
 74.9922 0.145508 l 1
 542.237 500.565 l 1
185.288 417.573 m 1
 151.841 397.66 l 1
 131.344 440.529 l 1
 258.513 515.64 l 1
 183.246 161.54 l 1
 130.866 161.54 l 1
 185.288 417.573 l 1
EndSplineSet
Ligature2: "'frac' Diagonal Fractions in Latin lookup 42" one fraction two
Ligature2: "'frac' Diagonal Fractions in Latin lookup 42" one slash two
EndChar
StartChar: plusminus
Encoding: 112 177 149
Width: 317
Flags: W
HStem: 0.157227 51.5703<28.9951 299.334> 214.582 51.57<74.5723 178.071 241.413 344.912>
VStem: 18.0332 337.84<0.157227 266.152>
Fore
310.296 51.7275 m 1
 299.334 0.157227 l 1
 18.0332 0.157227 l 1
 28.9951 51.7275 l 1
 310.296 51.7275 l 1
206.499 101.893 m 1
 154.118 101.893 l 1
 178.071 214.582 l 1
 63.6104 214.582 l 1
 74.5723 266.152 l 1
 189.032 266.152 l 1
 212.985 378.843 l 1
 265.366 378.843 l 1
 241.413 266.152 l 1
 355.873 266.152 l 1
 344.912 214.582 l 1
 230.452 214.582 l 1
 206.499 101.893 l 1
EndSplineSet
EndChar
StartChar: Thorn
Encoding: 157 222 150
Width: 387
Flags: W
HStem: 101.02 52.525<128.893 299.54> 346.455 50.615<176.498 340.549>
VStem: 48.0352 354.821<-0.209961 249.045>
Fore
173.786 342.434 m 5
 134.491 157.566 l 5
 152.312 154.878 169.566 153.545 185.577 153.545 c 4
 273.241 153.545 336.315 189.574 349.159 250 c 4
 362.005 310.435 314.249 346.455 226.581 346.455 c 4
 210.57 346.455 192.75 345.122 173.786 342.434 c 5
48.0352 -0.209961 m 5
 154.403 500.21 l 5
 207.323 500.21 l 5
 184.61 393.357 l 5
 202.721 395.831 220.448 397.07 237.34 397.07 c 4
 357.427 397.07 421.734 337.86 402.856 249.045 c 4
 383.978 160.23 294.499 101.02 174.412 101.02 c 4
 157.521 101.02 140.32 102.259 123.262 104.732 c 5
 100.955 -0.209961 l 5
 48.0352 -0.209961 l 5
EndSplineSet
EndChar
StartChar: onequarter
Encoding: 123 188 151
Width: 610
Flags: W
HStem: 51.7148 52.5252<407.92 486.801 549.375 571.905>
Fore
572.314 500.565 m 1
 636.755 500.565 l 1
 169.51 0.145508 l 1
 105.069 0.145508 l 1
 572.314 500.565 l 1
497.965 104.24 m 1
 522.798 221.07 l 1
 407.92 104.24 l 1
 497.965 104.24 l 1
185.295 417.573 m 1
 151.848 397.66 l 1
 131.352 440.529 l 1
 258.521 515.64 l 1
 183.254 161.54 l 1
 130.873 161.54 l 1
 185.295 417.573 l 1
486.801 51.7148 m 1
 290.714 51.7148 l 1
 606.559 373.268 l 1
 549.375 104.24 l 1
 600.28 104.24 l 1
 571.905 51.7148 l 1
 539.181 51.7148 l 1
 528.219 0.145508 l 1
 475.839 0.145508 l 1
 486.801 51.7148 l 1
EndSplineSet
Ligature2: "'frac' Diagonal Fractions in Latin lookup 42" one fraction four
Ligature2: "'frac' Diagonal Fractions in Latin lookup 42" one slash four
EndChar
StartChar: divide
Encoding: 182 247 152
Width: 362
Flags: W
HStem: 117 80<194.303 234.439> 223 54<94.8779 373.4> 303 80<233.84 273.975>
VStem: 83.4004 301.478<223 277>
CounterMasks: 1 00
Fore
222.874 197 m 0
 244.84 197 259.043 178.977 254.371 157 c 0
 249.702 135.034 227.846 117 205.869 117 c 0
 183.903 117 169.7 135.023 174.371 157 c 0
 179.04 178.966 200.896 197 222.874 197 c 0
262.409 383 m 0
 284.375 383 298.578 364.977 293.907 343 c 0
 289.238 321.034 267.382 303 245.404 303 c 0
 223.438 303 209.235 321.023 213.907 343 c 0
 218.576 364.966 240.433 383 262.409 383 c 0
384.878 277 m 1
 373.4 223 l 1
 83.4004 223 l 1
 94.8779 277 l 1
 384.878 277 l 1
EndSplineSet
EndChar
StartChar: brokenbar
Encoding: 101 166 153
Width: 126
Flags: W
VStem: -2.68555 203.64<-182 522>
Fore
138.463 228 m 1
 84.4629 228 l 1
 146.954 522 l 1
 200.954 522 l 1
 138.463 228 l 1
51.3145 -182 m 1
 -2.68555 -182 l 1
 59.8066 112 l 1
 113.807 112 l 1
 51.3145 -182 l 1
EndSplineSet
EndChar
StartChar: degree
Encoding: 111 176 154
Width: 266
Flags: W
HStem: 394 55<197.954 258.927> 533 55<215.804 276.775>
VStem: 140.365 194<472.651 509.347 491 491>
Fore
334.365 491 m 0
 322.972 437.396 270.35 394 216.747 394 c 0
 163.144 394 128.972 437.398 140.365 491 c 0
 151.759 544.604 204.381 588 257.983 588 c 0
 311.587 588 345.759 544.602 334.365 491 c 0
195.365 491 m 0
 190.38 467.547 204.989 449 228.438 449 c 0
 251.891 449 274.381 467.551 279.365 491 c 0
 284.351 514.453 269.741 533 246.293 533 c 0
 222.84 533 200.35 514.449 195.365 491 c 0
EndSplineSet
EndChar
StartChar: thorn
Encoding: 189 254 155
Width: 385
Flags: W
HStem: -5.80957 52.5244<146.972 294.38> 294.745 50.615<221.614 347.098>
VStem: 4.04395 405.633<-166.385 169.775>
Fore
56.9639 -166.385 m 1
 4.04395 -166.385 l 1
 145.558 499.385 l 1
 198.478 499.385 l 1
 156.15 300.252 l 1
 191.976 329.603 234.954 345.36 279.419 345.36 c 0
 374.104 345.36 430.122 265.962 409.677 169.775 c 0
 389.231 73.5889 299.46 -5.80957 204.775 -5.80957 c 0
 160.311 -5.80957 124.668 12.9473 101.32 42.2979 c 1
 56.9639 -166.385 l 1
130.76 180.858 m 2
 126.454 160.602 l 2
 116.662 93.0918 157.516 46.7148 214.96 46.7148 c 0
 276.052 46.7148 340.697 98.8291 355.979 170.73 c 0
 371.263 242.63 328.771 294.745 267.68 294.745 c 0
 210.234 294.745 149.667 248.369 130.76 180.858 c 2
EndSplineSet
EndChar
StartChar: threequarters
Encoding: 125 190 156
Width: 610
Flags: W
HStem: 52.4277 51.5693<427.476 506.559 568.931 591.579> 155.567 50.616<145.413 234.666> 328.423 51.569<215.345 249.678> 453.527 51.571<212.997 272.236>
Fore
91.0078 278.763 m 1
 143.388 278.763 l 1
 140.952 267.303 l 2
 133.768 233.505 155.712 206.183 190.041 206.183 c 0
 224.368 206.183 257.928 233.504 265.112 267.303 c 0
 272.296 301.1 250.353 328.423 216.023 328.423 c 2
 204.384 328.423 l 1
 215.345 379.992 l 1
 226.984 379.992 l 2
 249.678 379.992 270.645 393.729 275.032 414.372 c 0
 279.546 435.606 265.4 453.527 242.615 453.527 c 0
 219.832 453.527 198.066 435.608 193.553 414.372 c 2
 191.116 402.912 l 1
 138.736 402.912 l 1
 141.172 414.372 l 2
 151.845 464.584 201.608 505.098 252.606 505.098 c 0
 303.605 505.098 336.146 464.583 325.473 414.372 c 0
 320.722 392.021 307.876 371.366 289.349 355.555 c 1
 312.149 335.241 323.207 303.324 315.551 267.303 c 0
 302.435 205.595 240.986 155.567 178.312 155.567 c 0
 115.635 155.567 75.4561 205.596 88.5723 267.303 c 2
 91.0078 278.763 l 1
611.271 500.322 m 1
 675.711 500.322 l 1
 208.464 -0.0976562 l 1
 144.024 -0.0976562 l 1
 611.271 500.322 l 1
517.521 103.997 m 1
 542.354 220.827 l 1
 427.476 103.997 l 1
 517.521 103.997 l 1
506.559 52.4277 m 1
 310.473 52.4277 l 1
 626.316 373.979 l 1
 568.931 103.997 l 1
 620 103.997 l 1
 591.579 52.4277 l 1
 558.938 52.4277 l 1
 547.774 -0.0976562 l 1
 495.395 -0.0976562 l 1
 506.559 52.4277 l 1
EndSplineSet
Ligature2: "'frac' Diagonal Fractions in Latin lookup 42" three fraction four
Ligature2: "'frac' Diagonal Fractions in Latin lookup 42" three slash four
EndChar
StartChar: registered
Encoding: 109 174 157
Width: 592
Flags: W
HStem: -4.98535 51.5704<157.965 453.878> 221.35 51.57<315.23 346.816> 348.365 51.57<331.268 413.605> 453.415 51.57<244.439 540.352>
Fore
448.519 100.065 m 1
 387.966 100.065 l 1
 346.816 221.35 l 1
 304.27 221.35 l 1
 278.489 100.065 l 1
 226.109 100.065 l 1
 289.849 399.935 l 1
 399.458 399.935 l 2
 448.918 399.935 479.047 359.092 468.647 310.165 c 0
 461.341 275.787 435.42 245.399 403.29 230.9 c 1
 448.519 100.065 l 1
143.519 250 m 0
 119.681 137.847 192.109 46.585 305.922 46.585 c 0
 419.734 46.585 530.959 137.847 554.798 250 c 0
 578.637 362.153 506.208 453.415 392.396 453.415 c 0
 278.583 453.415 167.357 362.153 143.519 250 c 0
607.178 250 m 0
 577.218 109.048 437.208 -4.98535 294.96 -4.98535 c 0
 152.711 -4.98535 61.1787 109.048 91.1387 250 c 0
 121.1 390.952 261.108 504.985 403.357 504.985 c 0
 545.605 504.985 637.139 390.952 607.178 250 c 0
315.23 272.92 m 1
 373.431 272.92 l 2
 391.892 272.92 411.63 288.348 416.268 310.165 c 0
 420.92 332.052 407.811 348.365 388.496 348.365 c 2
 331.268 348.365 l 1
 315.23 272.92 l 1
EndSplineSet
EndChar
StartChar: eth
Encoding: 175 240 158
Width: 392
Flags: W
HStem: -5.16309 50.6152<113.204 300.158> 299.481 52.526<188.771 307.434>
VStem: 52.582 384.224<173.422 495.001>
Fore
335.548 442.829 m 1
 438.346 333.093 426.266 216.345 417.142 173.422 c 0
 396.119 74.5195 297.489 -5.16309 196.902 -5.16309 c 0
 96.3154 -5.16309 31.5596 74.5195 52.582 173.422 c 0
 73.6035 272.324 172.234 352.007 272.821 352.007 c 0
 297.264 352.007 319.759 347.461 339.335 338.958 c 1
 324.927 366.912 305.703 392.472 283.098 414.473 c 1
 162.845 352.459 l 1
 145.904 397.103 l 1
 243.757 447.993 l 1
 213.405 469.431 185.564 480.631 158.016 489.657 c 1
 184.361 539.271 l 1
 226.083 525.476 261.74 508.251 299.175 477.46 c 1
 419.848 539.69 l 1
 436.806 495.001 l 1
 335.548 442.829 l 1
261.656 299.481 m 2
 260.677 299.481 l 2
 188.771 299.481 118.232 242.537 103.339 172.467 c 0
 88.4443 102.396 134.776 45.4521 206.681 45.4521 c 0
 278.586 45.4521 349.125 102.396 364.019 172.467 c 0
 380.282 248.981 328.175 299.481 261.656 299.481 c 2
EndSplineSet
EndChar
StartChar: multiply
Encoding: 150 215 159
Width: 384
Flags: W
HStem: 105 290<91.96 398.568>
VStem: 35.7812 422.967<105 395>
Fore
398.568 105 m 1
 321.471 105 l 1
 238.039 210.952 l 1
 111.477 105 l 1
 35.7812 105 l 1
 208.093 248.904 l 1
 91.96 395 l 1
 169.054 395 l 1
 254.062 287.047 l 1
 383.051 395 l 1
 458.748 395 l 1
 284.009 249.096 l 1
 398.568 105 l 1
EndSplineSet
EndChar
StartChar: copyright
Encoding: 104 169 160
Width: 592
Flags: W
HStem: -4.98535 51.5704<157.965 453.878> 99.1104 51.5696<270.221 388.905> 347.41 51.57<312.04 428.932> 453.415 51.57<244.439 540.352>
Fore
607.178 250 m 0
 577.218 109.048 437.208 -4.98535 294.96 -4.98535 c 0
 152.711 -4.98535 61.1787 109.048 91.1387 250 c 0
 121.1 390.952 261.108 504.985 403.357 504.985 c 0
 545.605 504.985 637.139 390.952 607.178 250 c 0
143.519 250 m 0
 119.681 137.847 192.109 46.585 305.922 46.585 c 0
 419.734 46.585 530.959 137.847 554.798 250 c 0
 578.637 362.153 506.208 453.415 392.396 453.415 c 0
 278.583 453.415 167.357 362.153 143.519 250 c 0
415.932 206.582 m 1
 455.781 180.838 l 1
 436.128 154.896 389.492 99.1104 316.116 99.1104 c 0
 237.78 99.1104 194.074 168.402 211.215 249.045 c 0
 228.356 329.688 301.521 398.98 379.855 398.98 c 0
 453.345 398.98 476.166 343.145 484.777 317.252 c 1
 433.983 291.508 l 1
 427.879 309.376 415.077 347.41 368.895 347.41 c 0
 325.16 347.41 275.671 305.857 263.595 249.045 c 0
 251.519 192.231 283.342 150.68 327.078 150.68 c 0
 374.637 150.68 404.094 191.142 415.932 206.582 c 1
EndSplineSet
EndChar
StartChar: Aacute
Encoding: 128 193 161
Width: 463
VWidth: 966
Flags: W
HStem: 148.444 51.543<193.719 356.433>
VStem: 8.2793 484.739<0.49707 641>
Fore
398.669 641 m 1
 493.018 641 l 1
 340.763 528 l 1
 279.425 528 l 1
 398.669 641 l 1
193.719 199.987 m 1
 356.433 199.987 l 1
 311.561 371.634 l 1
 193.719 199.987 l 1
159.287 148.444 m 1
 65.1201 0.49707 l 1
 8.2793 0.49707 l 1
 339.101 505.81 l 1
 455.105 0.49707 l 1
 398.265 0.49707 l 1
 366.992 148.444 l 1
 159.287 148.444 l 1
EndSplineSet
EndChar
StartChar: Acircumflex
Encoding: 129 194 162
Width: 463
VWidth: 966
Flags: W
HStem: 148.444 51.543<193.719 356.433>
VStem: 8.2793 454.598<0.49707 528>
Fore
193.719 199.987 m 1
 356.433 199.987 l 1
 311.561 371.634 l 1
 193.719 199.987 l 1
159.287 148.444 m 1
 65.1201 0.49707 l 1
 8.2793 0.49707 l 1
 339.101 505.81 l 1
 455.105 0.49707 l 1
 398.265 0.49707 l 1
 366.992 148.444 l 1
 159.287 148.444 l 1
351.444 641 m 1
 384.053 641 l 1
 462.877 528 l 1
 389.492 528 l 1
 354.22 577.351 l 1
 297.968 528 l 1
 224.583 528 l 1
 351.444 641 l 1
EndSplineSet
EndChar
StartChar: Adieresis
Encoding: 131 196 163
Width: 463
VWidth: 966
Flags: W
HStem: 148.444 51.543<193.719 356.433> 528 80<272.165 312.3 392.165 432.3>
VStem: 8.2793 446.826<0.49707 0.49707>
Fore
193.719 199.987 m 5
 356.433 199.987 l 5
 311.561 371.634 l 5
 193.719 199.987 l 5
159.287 148.444 m 5
 65.1201 0.49707 l 5
 8.2793 0.49707 l 5
 339.101 505.81 l 5
 455.105 0.49707 l 5
 398.265 0.49707 l 5
 366.992 148.444 l 5
 159.287 148.444 l 5
300.734 608 m 4
 322.7 608 336.903 589.977 332.232 568 c 4
 327.563 546.034 305.707 528 283.729 528 c 4
 261.764 528 247.561 546.023 252.232 568 c 4
 256.901 589.966 278.758 608 300.734 608 c 4
420.734 608 m 4
 442.7 608 456.903 589.977 452.232 568 c 4
 447.563 546.034 425.707 528 403.729 528 c 4
 381.764 528 367.561 546.023 372.232 568 c 4
 376.901 589.966 398.758 608 420.734 608 c 4
EndSplineSet
EndChar
StartChar: Agrave
Encoding: 127 192 164
Width: 463
VWidth: 966
Flags: W
HStem: 148.444 51.543<193.719 356.433>
VStem: 8.2793 446.826<0.49707 0.49707>
Fore
226.48 641 m 1
 320.829 641 l 1
 392.035 528 l 1
 330.697 528 l 1
 226.48 641 l 1
193.719 199.987 m 1
 356.433 199.987 l 1
 311.561 371.634 l 1
 193.719 199.987 l 1
159.287 148.444 m 1
 65.1201 0.49707 l 1
 8.2793 0.49707 l 1
 339.101 505.81 l 1
 455.105 0.49707 l 1
 398.265 0.49707 l 1
 366.992 148.444 l 1
 159.287 148.444 l 1
EndSplineSet
EndChar
StartChar: Aring
Encoding: 132 197 165
Width: 463
VWidth: 966
Flags: W
HStem: 148.444 51.543<193.545 356.259> 523 54<332.803 375.14> 637 54<345.555 387.893>
VStem: 8.10547 446.827<0.49707 0.49707>
Fore
193.545 199.987 m 1
 356.259 199.987 l 1
 311.388 371.634 l 1
 193.545 199.987 l 1
159.113 148.444 m 1
 64.9463 0.49707 l 1
 8.10547 0.49707 l 1
 338.926 505.81 l 1
 454.932 0.49707 l 1
 398.091 0.49707 l 1
 366.818 148.444 l 1
 159.113 148.444 l 1
444.348 607 m 0
 434.453 560.45 389.041 523 342.493 523 c 0
 295.943 523 266.454 560.452 276.348 607 c 0
 286.242 653.55 331.654 691 378.202 691 c 0
 424.753 691 454.242 653.548 444.348 607 c 0
330.348 607 m 0
 326.887 590.716 337.688 577 353.971 577 c 0
 370.255 577 386.887 590.717 390.348 607 c 0
 393.81 623.284 383.008 637 366.725 637 c 0
 350.44 637 333.809 623.283 330.348 607 c 0
EndSplineSet
EndChar
StartChar: Atilde
Encoding: 130 195 166
Width: 463
VWidth: 966
Flags: W
HStem: 148.444 51.543<193.719 356.433> 523 90<320.042 385.912>
VStem: 8.2793 449.7<0.49707 608>
Fore
193.719 199.987 m 1
 356.433 199.987 l 1
 311.561 371.634 l 1
 193.719 199.987 l 1
159.287 148.444 m 1
 65.1201 0.49707 l 1
 8.2793 0.49707 l 1
 339.101 505.81 l 1
 455.105 0.49707 l 1
 398.265 0.49707 l 1
 366.992 148.444 l 1
 159.287 148.444 l 1
289.521 528 m 1
 246.485 528 l 1
 249.638 540.48 l 2
 256.368 567.13 271.321 613 320.042 613 c 0
 367.156 613 391.451 560.776 406.529 583.382 c 0
 408.235 585.939 410.129 589.886 411.429 596 c 2
 413.979 608 l 1
 457.979 608 l 1
 455.429 596 l 2
 444.217 543.252 417.459 523 385.912 523 c 0
 337.669 523 305.646 592.231 292.419 539.539 c 2
 289.521 528 l 1
EndSplineSet
EndChar
StartChar: Ccedilla
Encoding: 134 199 167
Width: 543
VWidth: 965
Flags: W
HStem: 452.354 52.498<240.349 525.929>
Fore
496.377 136.701 m 1
 533.454 108.771 l 1
 468.318 41.0762 395.371 3.10352 318.15 -3.72949 c 1
 296.045 -32.249 l 1
 330.498 -45.1572 326.867 -74.8232 323.641 -90 c 0
 315.548 -128.074 277.405 -153.213 236.037 -154 c 0
 216.687 -154 197.591 -148.274 181.329 -136.075 c 2
 172.685 -129.588 l 1
 211.351 -84.2334 l 1
 220.082 -91.0156 l 2
 250.511 -114.65 298.14 -86.7988 246.425 -77.8633 c 2
 207.977 -72.4668 l 1
 263.017 -3.17969 l 1
 136.46 11.3643 58.3076 119.061 86.1387 250 c 0
 116.084 390.879 257.275 504.852 400.989 504.852 c 0
 530.748 504.852 579.036 418.139 593.213 391.751 c 1
 544.41 360.893 l 1
 532.834 381.835 494.522 452.354 389.831 452.354 c 0
 274.845 452.354 162.683 361.14 138.856 249.046 c 0
 115.029 136.951 188.416 45.7373 303.401 45.7373 c 0
 407.585 45.7373 475.807 115.669 496.377 136.701 c 1
EndSplineSet
EndChar
StartChar: Eacute
Encoding: 136 201 168
Width: 389
VWidth: 965
Flags: W
HStem: -0.0791016 51.543<111.859 355.703> 262.408 51.543<167.652 391.896> 448.536 51.543<196.259 452.038>
VStem: 47.9834 415.011<-0.0791016 500.079>
Fore
435.018 641 m 5
 282.763 528 l 5
 221.425 528 l 5
 340.669 641 l 5
 435.018 641 l 5
402.852 313.951 m 1
 391.896 262.408 l 1
 156.696 262.408 l 1
 111.859 51.4639 l 1
 366.659 51.4639 l 1
 355.703 -0.0791016 l 1
 47.9834 -0.0791016 l 1
 154.295 500.079 l 1
 462.994 500.079 l 1
 452.038 448.536 l 1
 196.259 448.536 l 1
 167.652 313.951 l 1
 402.852 313.951 l 1
EndSplineSet
EndChar
StartChar: Ecircumflex
Encoding: 137 202 169
Width: 389
VWidth: 965
Flags: W
HStem: -0.0791016 51.543<111.859 355.703> 262.408 51.543<167.652 391.896> 448.536 51.543<196.259 452.038>
VStem: 47.9834 415.011<-0.0791016 500.079>
Fore
324.824 577.443 m 1
 268.468 528 l 1
 195.082 528 l 1
 321.944 641 l 1
 355.553 641 l 1
 434.377 528 l 1
 361.061 528 l 1
 324.824 577.443 l 1
402.852 313.951 m 1
 391.896 262.408 l 1
 156.696 262.408 l 1
 111.859 51.4639 l 1
 366.659 51.4639 l 1
 355.703 -0.0791016 l 1
 47.9834 -0.0791016 l 1
 154.295 500.079 l 1
 462.994 500.079 l 1
 452.038 448.536 l 1
 196.259 448.536 l 1
 167.652 313.951 l 1
 402.852 313.951 l 1
EndSplineSet
EndChar
StartChar: Edieresis
Encoding: 138 203 170
Width: 389
VWidth: 965
Flags: W
HStem: -0.0791016 51.543<111.859 355.703> 262.408 51.543<167.652 391.896> 448.536 51.543<196.259 452.038> 528 80<242.664 282.8 362.665 402.8>
VStem: 47.9834 415.011<-0.0791016 500.079>
Fore
271.234 608 m 0
 293.2 608 307.403 589.977 302.732 568 c 0
 298.063 546.034 276.207 528 254.229 528 c 0
 232.264 528 218.061 546.023 222.732 568 c 0
 227.401 589.966 249.257 608 271.234 608 c 0
391.234 608 m 0
 413.2 608 427.403 589.977 422.732 568 c 0
 418.063 546.034 396.207 528 374.229 528 c 0
 352.264 528 338.061 546.023 342.732 568 c 0
 347.401 589.966 369.258 608 391.234 608 c 0
402.852 313.951 m 1
 391.896 262.408 l 1
 156.696 262.408 l 1
 111.859 51.4639 l 1
 366.659 51.4639 l 1
 355.703 -0.0791016 l 1
 47.9834 -0.0791016 l 1
 154.295 500.079 l 1
 462.994 500.079 l 1
 452.038 448.536 l 1
 196.259 448.536 l 1
 167.652 313.951 l 1
 402.852 313.951 l 1
EndSplineSet
EndChar
StartChar: Egrave
Encoding: 135 200 171
Width: 389
VWidth: 965
Flags: W
HStem: -0.0791016 51.543<111.859 355.703> 262.408 51.543<167.652 391.896> 448.536 51.543<196.259 452.038>
VStem: 47.9834 415.011<-0.0791016 500.079>
Fore
197.48 641 m 5
 291.829 641 l 5
 363.035 528 l 5
 301.697 528 l 5
 197.48 641 l 5
402.852 313.951 m 1
 391.896 262.408 l 1
 156.696 262.408 l 1
 111.859 51.4639 l 1
 366.659 51.4639 l 1
 355.703 -0.0791016 l 1
 47.9834 -0.0791016 l 1
 154.295 500.079 l 1
 462.994 500.079 l 1
 452.038 448.536 l 1
 196.259 448.536 l 1
 167.652 313.951 l 1
 402.852 313.951 l 1
EndSplineSet
EndChar
StartChar: Iacute
Encoding: 140 205 172
Width: 148
VWidth: 965
Flags: W
VStem: 47.9834 284.035<-0.0791016 641>
Fore
332.018 641 m 1
 179.763 528 l 1
 118.425 528 l 1
 237.669 641 l 1
 332.018 641 l 1
100.903 -0.0791016 m 1
 47.9834 -0.0791016 l 1
 154.295 500.079 l 1
 207.215 500.079 l 1
 100.903 -0.0791016 l 1
EndSplineSet
EndChar
StartChar: Icircumflex
Encoding: 141 206 173
Width: 148
VWidth: 965
Flags: W
VStem: 47.9834 257.894<-0.0791016 528>
Fore
100.903 -0.0791016 m 1
 47.9834 -0.0791016 l 1
 154.295 500.079 l 1
 207.215 500.079 l 1
 100.903 -0.0791016 l 1
196.324 577.443 m 1
 139.968 528 l 1
 66.582 528 l 1
 193.444 641 l 1
 227.054 641 l 1
 305.877 528 l 1
 232.561 528 l 1
 196.324 577.443 l 1
EndSplineSet
EndChar
StartChar: Idieresis
Encoding: 142 207 174
Width: 148
VWidth: 965
Flags: W
HStem: 528 80<114.664 154.8 234.665 274.8>
VStem: 47.9834 246.749<-0.0791016 568>
Fore
100.903 -0.0791016 m 1
 47.9834 -0.0791016 l 1
 154.295 500.079 l 1
 207.215 500.079 l 1
 100.903 -0.0791016 l 1
143.234 608 m 0
 165.2 608 179.403 589.977 174.732 568 c 0
 170.063 546.034 148.207 528 126.229 528 c 0
 104.264 528 90.0605 546.023 94.7324 568 c 0
 99.4014 589.966 121.257 608 143.234 608 c 0
263.234 608 m 0
 285.2 608 299.403 589.977 294.732 568 c 0
 290.063 546.034 268.207 528 246.229 528 c 0
 224.264 528 210.061 546.023 214.732 568 c 0
 219.401 589.966 241.258 608 263.234 608 c 0
EndSplineSet
EndChar
StartChar: Igrave
Encoding: 139 204 175
Width: 148
VWidth: 965
Flags: W
VStem: 47.9834 184.052<-0.0791016 528>
Fore
66.4805 641 m 1
 160.829 641 l 1
 232.035 528 l 1
 170.697 528 l 1
 66.4805 641 l 1
100.903 -0.0791016 m 1
 47.9834 -0.0791016 l 1
 154.295 500.079 l 1
 207.215 500.079 l 1
 100.903 -0.0791016 l 1
EndSplineSet
EndChar
StartChar: Ntilde
Encoding: 144 209 176
Width: 561
VWidth: 965
Flags: W
HStem: 543 90<373.293 439.163>
Fore
47.9834 -0.0791016 m 1
 155.521 505.845 l 1
 486.483 121.865 l 1
 566.875 500.079 l 1
 619.795 500.079 l 1
 512.258 -5.8457 l 1
 181.295 378.135 l 1
 100.903 -0.0791016 l 1
 47.9834 -0.0791016 l 1
342.773 548 m 1
 299.736 548 l 1
 302.889 560.48 l 2
 309.619 587.13 324.572 633 373.293 633 c 0
 420.407 633 444.703 580.776 459.781 603.382 c 0
 461.486 605.939 463.38 609.886 464.68 616 c 2
 467.23 628 l 1
 511.23 628 l 1
 508.68 616 l 2
 497.468 563.252 470.71 543 439.163 543 c 0
 390.92 543 358.896 612.231 345.67 559.539 c 2
 342.773 548 l 1
EndSplineSet
EndChar
StartChar: Oacute
Encoding: 146 211 177
Width: 587
VWidth: 965
Flags: W
HStem: -4.85156 51.543<154.122 453.086> 453.309 51.543<240.552 539.515>
Fore
567.018 641 m 1
 414.763 528 l 1
 353.425 528 l 1
 472.669 641 l 1
 567.018 641 l 1
607.498 250 m 0
 577.554 109.121 436.363 -4.85156 292.648 -4.85156 c 0
 148.935 -4.85156 56.1943 109.121 86.1387 250 c 0
 116.084 390.879 257.275 504.852 400.989 504.852 c 0
 544.703 504.852 637.443 390.879 607.498 250 c 0
139.059 250 m 0
 115.232 137.905 188.618 46.6914 303.604 46.6914 c 0
 418.59 46.6914 530.752 137.905 554.578 250 c 0
 578.404 362.095 505.019 453.309 390.034 453.309 c 0
 275.048 453.309 162.886 362.095 139.059 250 c 0
EndSplineSet
EndChar
StartChar: Ocircumflex
Encoding: 147 212 178
Width: 587
VWidth: 965
Flags: W
HStem: -4.85156 51.543<154.122 453.086> 453.309 51.543<240.552 539.515>
Fore
607.498 250 m 4
 577.554 109.121 436.363 -4.85156 292.648 -4.85156 c 4
 148.935 -4.85156 56.1943 109.121 86.1387 250 c 4
 116.084 390.879 257.275 504.852 400.989 504.852 c 4
 544.703 504.852 637.443 390.879 607.498 250 c 4
139.059 250 m 4
 115.232 137.905 188.618 46.6914 303.604 46.6914 c 4
 418.59 46.6914 530.752 137.905 554.578 250 c 4
 578.404 362.095 505.019 453.309 390.034 453.309 c 4
 275.048 453.309 162.886 362.095 139.059 250 c 4
415.824 577.443 m 1
 359.468 528 l 1
 286.083 528 l 1
 412.944 641 l 1
 446.553 641 l 1
 525.377 528 l 1
 452.061 528 l 1
 415.824 577.443 l 1
EndSplineSet
EndChar
StartChar: Odieresis
Encoding: 149 214 179
Width: 587
VWidth: 965
Flags: W
HStem: -4.85156 51.543<154.122 453.086> 453.309 51.543<240.552 539.515> 528 80<334.165 374.3 454.165 494.3>
Fore
607.498 250 m 0
 577.554 109.121 436.363 -4.85156 292.648 -4.85156 c 0
 148.935 -4.85156 56.1943 109.121 86.1387 250 c 0
 116.084 390.879 257.275 504.852 400.989 504.852 c 0
 544.703 504.852 637.443 390.879 607.498 250 c 0
139.059 250 m 0
 115.232 137.905 188.618 46.6914 303.604 46.6914 c 0
 418.59 46.6914 530.752 137.905 554.578 250 c 0
 578.404 362.095 505.019 453.309 390.034 453.309 c 0
 275.048 453.309 162.886 362.095 139.059 250 c 0
362.734 608 m 0
 384.7 608 398.903 589.977 394.232 568 c 0
 389.563 546.034 367.707 528 345.729 528 c 0
 323.764 528 309.561 546.023 314.232 568 c 0
 318.901 589.966 340.758 608 362.734 608 c 0
482.734 608 m 0
 504.7 608 518.903 589.977 514.232 568 c 0
 509.563 546.034 487.707 528 465.729 528 c 0
 443.764 528 429.561 546.023 434.232 568 c 0
 438.901 589.966 460.758 608 482.734 608 c 0
EndSplineSet
EndChar
StartChar: Ograve
Encoding: 145 210 180
Width: 587
VWidth: 965
Flags: W
HStem: -4.85156 51.543<154.122 453.086> 453.309 51.543<240.552 539.515>
Fore
270.479 641 m 5
 364.829 641 l 5
 436.035 528 l 5
 374.697 528 l 5
 270.479 641 l 5
607.498 250 m 0
 577.554 109.121 436.363 -4.85156 292.648 -4.85156 c 0
 148.935 -4.85156 56.1943 109.121 86.1387 250 c 0
 116.084 390.879 257.275 504.852 400.989 504.852 c 0
 544.703 504.852 637.443 390.879 607.498 250 c 0
139.059 250 m 0
 115.232 137.905 188.618 46.6914 303.604 46.6914 c 0
 418.59 46.6914 530.752 137.905 554.578 250 c 0
 578.404 362.095 505.019 453.309 390.034 453.309 c 0
 275.048 453.309 162.886 362.095 139.059 250 c 0
EndSplineSet
EndChar
StartChar: Otilde
Encoding: 148 213 181
Width: 587
VWidth: 965
Flags: W
HStem: -4.85156 51.543<154.122 453.086> 453.309 51.543<240.552 539.515> 543 90<386.293 452.163>
Fore
607.498 250 m 0
 577.554 109.121 436.363 -4.85156 292.648 -4.85156 c 0
 148.935 -4.85156 56.1943 109.121 86.1387 250 c 0
 116.084 390.879 257.275 504.852 400.989 504.852 c 0
 544.703 504.852 637.443 390.879 607.498 250 c 0
139.059 250 m 0
 115.232 137.905 188.618 46.6914 303.604 46.6914 c 0
 418.59 46.6914 530.752 137.905 554.578 250 c 0
 578.404 362.095 505.019 453.309 390.034 453.309 c 0
 275.048 453.309 162.886 362.095 139.059 250 c 0
355.773 548 m 1
 312.736 548 l 1
 315.889 560.48 l 2
 322.619 587.13 337.572 633 386.293 633 c 0
 433.407 633 457.703 580.776 472.781 603.382 c 0
 474.486 605.939 476.38 609.886 477.68 616 c 2
 480.23 628 l 1
 524.23 628 l 1
 521.68 616 l 2
 510.468 563.252 483.71 543 452.163 543 c 0
 403.92 543 371.896 612.231 358.67 559.539 c 2
 355.773 548 l 1
EndSplineSet
EndChar
StartChar: Scaron
Encoding: 195 352 182
Width: 397
VWidth: 965
Flags: W
HStem: -5.7832 52.4971<141.78 284.151> 453.286 52.497<237.335 340.687>
VStem: 65.4922 386.279<145.395 631>
Fore
421.965 397.608 m 1
 368.72 380.363 l 1
 367.216 391.374 l 2
 361.452 433.596 330.252 453.286 295.47 453.286 c 0
 250.751 453.286 215.078 420.862 206.956 382.652 c 0
 185.988 284.006 431.297 313.119 396.379 148.846 c 0
 376.659 56.0684 282.979 -5.7832 196.912 -5.7832 c 0
 123.3 -5.7832 57.8037 40.0723 65.4922 145.395 c 2
 66.3232 156.772 l 1
 120.45 163.613 l 1
 119.668 152.337 l 2
 114.446 76.9785 157.078 46.7139 208.07 46.7139 c 0
 266.594 46.7139 330.182 86.3779 343.662 149.8 c 0
 369.714 272.363 123.157 237.375 154.239 383.607 c 0
 168.021 448.447 230.776 505.783 306.629 505.783 c 0
 361.414 505.783 411.886 472.156 420.521 408.281 c 2
 421.965 397.608 l 1
324.908 518 m 1
 292.301 518 l 1
 213.476 631 l 1
 286.861 631 l 1
 322.134 581.649 l 1
 378.385 631 l 1
 451.771 631 l 1
 324.908 518 l 1
EndSplineSet
EndChar
StartChar: Uacute
Encoding: 153 218 183
Width: 468
VWidth: 965
Flags: W
HStem: -4.96484 51.5429<152.673 337.373>
VStem: 88.9414 437.73<192.616 499.965>
Fore
415.669 641 m 5
 510.018 641 l 5
 357.763 528 l 5
 296.425 528 l 5
 415.669 641 l 5
154.271 499.965 m 1
 207.19 499.965 l 1
 141.861 192.616 l 2
 124.189 109.474 173.998 46.5781 245.081 46.5781 c 0
 316.075 46.5781 390.705 109.264 408.422 192.616 c 2
 473.751 499.965 l 1
 526.671 499.965 l 1
 461.342 192.616 l 2
 438.461 84.9678 337.514 -4.96484 233.145 -4.96484 c 0
 128.774 -4.96484 66.0605 84.9678 88.9414 192.616 c 2
 154.271 499.965 l 1
EndSplineSet
EndChar
StartChar: Ucircumflex
Encoding: 154 219 184
Width: 468
VWidth: 965
Flags: W
HStem: -4.96484 51.5429<152.673 337.373>
VStem: 88.9414 437.73<192.616 499.965>
Fore
154.271 499.965 m 1
 207.19 499.965 l 1
 141.861 192.616 l 2
 124.189 109.474 173.998 46.5781 245.081 46.5781 c 0
 316.075 46.5781 390.705 109.264 408.422 192.616 c 2
 473.751 499.965 l 1
 526.671 499.965 l 1
 461.342 192.616 l 2
 438.461 84.9678 337.514 -4.96484 233.145 -4.96484 c 0
 128.774 -4.96484 66.0605 84.9678 88.9414 192.616 c 2
 154.271 499.965 l 1
465.877 528 m 1
 391.492 528 l 1
 356.22 577.351 l 1
 299.968 528 l 1
 226.583 528 l 1
 353.444 641 l 1
 387.053 641 l 1
 465.877 528 l 1
EndSplineSet
EndChar
StartChar: Udieresis
Encoding: 155 220 185
Width: 468
VWidth: 965
Flags: W
HStem: -4.96484 51.5429<152.673 337.373> 528 80<274.665 314.8 394.665 434.8>
VStem: 88.9414 437.73<192.616 499.965>
Fore
154.271 499.965 m 1
 207.19 499.965 l 1
 141.861 192.616 l 2
 124.189 109.474 173.998 46.5781 245.081 46.5781 c 0
 316.075 46.5781 390.705 109.264 408.422 192.616 c 2
 473.751 499.965 l 1
 526.671 499.965 l 1
 461.342 192.616 l 2
 438.461 84.9678 337.514 -4.96484 233.145 -4.96484 c 0
 128.774 -4.96484 66.0605 84.9678 88.9414 192.616 c 2
 154.271 499.965 l 1
303.234 608 m 0
 325.2 608 339.403 589.977 334.732 568 c 0
 330.063 546.034 308.207 528 286.229 528 c 0
 264.264 528 250.061 546.023 254.732 568 c 0
 259.401 589.966 281.258 608 303.234 608 c 0
423.234 608 m 0
 445.2 608 459.403 589.977 454.732 568 c 0
 450.063 546.034 428.207 528 406.229 528 c 0
 384.264 528 370.061 546.023 374.732 568 c 0
 379.401 589.966 401.258 608 423.234 608 c 0
EndSplineSet
EndChar
StartChar: Ugrave
Encoding: 152 217 186
Width: 468
VWidth: 965
Flags: W
HStem: -4.96484 51.5429<152.673 337.373>
VStem: 88.9414 437.73<192.616 499.965>
Fore
214.48 641 m 5
 308.829 641 l 5
 380.035 528 l 5
 318.697 528 l 5
 214.48 641 l 5
154.271 499.965 m 1
 207.19 499.965 l 1
 141.861 192.616 l 2
 124.189 109.474 173.998 46.5781 245.081 46.5781 c 0
 316.075 46.5781 390.705 109.264 408.422 192.616 c 2
 473.751 499.965 l 1
 526.671 499.965 l 1
 461.342 192.616 l 2
 438.461 84.9678 337.514 -4.96484 233.145 -4.96484 c 0
 128.774 -4.96484 66.0605 84.9678 88.9414 192.616 c 2
 154.271 499.965 l 1
EndSplineSet
EndChar
StartChar: Yacute
Encoding: 156 221 187
Width: 438
VWidth: 965
Flags: W
VStem: 114.295 422.865<500.079 500.079>
Fore
396.669 641 m 1
 491.018 641 l 1
 338.763 528 l 1
 277.425 528 l 1
 396.669 641 l 1
114.295 500.079 m 1
 176.393 500.079 l 1
 276.729 269.556 l 1
 475.062 500.079 l 1
 537.16 500.079 l 1
 291.431 214.238 l 1
 245.876 -0.0791016 l 1
 192.956 -0.0791016 l 1
 238.511 214.238 l 1
 114.295 500.079 l 1
EndSplineSet
EndChar
StartChar: Ydieresis
Encoding: 197 376 188
Width: 438
VWidth: 965
Flags: W
HStem: 528 80<259.665 299.8 379.665 419.8>
VStem: 114.295 422.865<500.079 500.079>
Fore
114.295 500.079 m 1
 176.393 500.079 l 1
 276.729 269.556 l 1
 475.062 500.079 l 1
 537.16 500.079 l 1
 291.431 214.238 l 1
 245.876 -0.0791016 l 1
 192.956 -0.0791016 l 1
 238.511 214.238 l 1
 114.295 500.079 l 1
288.234 608 m 0
 310.2 608 324.403 589.977 319.732 568 c 0
 315.063 546.034 293.207 528 271.229 528 c 0
 249.264 528 235.061 546.023 239.732 568 c 0
 244.401 589.966 266.258 608 288.234 608 c 0
408.234 608 m 0
 430.2 608 444.403 589.977 439.732 568 c 0
 435.063 546.034 413.207 528 391.229 528 c 0
 369.264 528 355.061 546.023 359.732 568 c 0
 364.401 589.966 386.258 608 408.234 608 c 0
EndSplineSet
EndChar
StartChar: Zcaron
Encoding: 198 381 189
Width: 420
VWidth: 965
Flags: W
HStem: -0.0791016 51.543<117.585 395.062> 448.536 51.543<160.042 408.119>
Fore
160.042 500.079 m 1
 517.722 500.079 l 1
 117.585 51.4639 l 1
 423.659 51.4639 l 1
 395.062 -0.0791016 l 1
 7.9834 -0.0791016 l 1
 408.119 448.536 l 1
 131.446 448.536 l 1
 160.042 500.079 l 1
336.408 518 m 1
 303.801 518 l 1
 224.976 631 l 1
 298.361 631 l 1
 333.634 581.649 l 1
 389.885 631 l 1
 463.271 631 l 1
 336.408 518 l 1
EndSplineSet
EndChar
StartChar: aacute
Encoding: 160 225 190
Width: 367
VWidth: 946
Flags: W
HStem: -5.78027 50.4903<99.8973 209.494> 161.387 43.211<207.654 309.048> 295.29 50.49<175.589 291.534> 480 20G<301.698 396.047>
VStem: 54.8916 341.155<93.3301 500>
Fore
301.698 500 m 5
 396.047 500 l 5
 243.792 387 l 5
 182.454 387 l 5
 301.698 500 l 5
334.326 -0.169922 m 1
 276.232 -0.169922 l 1
 272.61 13.3877 272.473 33.4902 276.302 46.3467 c 1
 240.578 16.9473 195.867 -5.78027 150.445 -5.78027 c 0
 68.6289 -5.78027 45.4326 48.8311 54.8916 93.3301 c 0
 78.3545 203.714 233.354 204.599 309.048 204.598 c 1
 315.089 263.27 279.397 295.29 238.939 295.29 c 0
 190.208 295.29 157.079 255.855 147.087 245.263 c 1
 109.951 272.576 l 1
 124.505 288.405 174.733 345.78 249.672 345.78 c 0
 321.803 345.78 378.841 290.168 360.381 193.491 c 2
 336.508 81.1748 l 2
 330.041 50.7471 329.127 16.5254 334.326 -0.169922 c 1
161.178 44.71 m 0
 207.427 44.71 261.476 79.9814 290.973 115.915 c 1
 300.638 161.387 l 1
 218.122 159.688 119.939 150.384 107.812 93.3301 c 0
 103.679 73.8818 114.039 44.71 161.178 44.71 c 0
EndSplineSet
EndChar
StartChar: acircumflex
Encoding: 161 226 191
Width: 367
VWidth: 946
Flags: W
HStem: -5.78027 50.4903<99.8973 209.494> 161.387 43.211<207.654 309.048> 295.29 50.49<175.589 291.534> 480 20G<265.975 298.582>
VStem: 54.8916 322.514<93.3301 387>
Fore
265.975 500 m 1
 298.582 500 l 1
 377.406 387 l 1
 304.021 387 l 1
 268.749 436.351 l 1
 212.497 387 l 1
 139.112 387 l 1
 265.975 500 l 1
334.326 -0.169922 m 1
 276.232 -0.169922 l 1
 272.61 13.3877 272.473 33.4902 276.302 46.3467 c 1
 240.578 16.9473 195.867 -5.78027 150.445 -5.78027 c 0
 68.6289 -5.78027 45.4326 48.8311 54.8916 93.3301 c 0
 78.3545 203.714 233.354 204.599 309.048 204.598 c 1
 315.089 263.27 279.397 295.29 238.939 295.29 c 0
 190.208 295.29 157.079 255.855 147.087 245.263 c 1
 109.951 272.576 l 1
 124.505 288.405 174.733 345.78 249.672 345.78 c 0
 321.803 345.78 378.841 290.168 360.381 193.491 c 2
 336.508 81.1748 l 2
 330.041 50.7471 329.127 16.5254 334.326 -0.169922 c 1
161.178 44.71 m 0
 207.427 44.71 261.476 79.9814 290.973 115.915 c 1
 300.638 161.387 l 1
 218.122 159.688 119.939 150.384 107.812 93.3301 c 0
 103.679 73.8818 114.039 44.71 161.178 44.71 c 0
EndSplineSet
EndChar
StartChar: adieresis
Encoding: 163 228 192
Width: 367
VWidth: 946
Flags: W
HStem: -5.78027 50.4903<99.8973 209.494> 161.387 43.211<207.654 309.048> 295.29 50.49<175.589 291.534> 388 80<185.906 226.042 305.906 346.042>
VStem: 54.8916 311.083<93.3301 428>
Fore
214.477 468 m 0
 236.442 468 250.646 449.977 245.975 428 c 0
 241.306 406.034 219.449 388 197.472 388 c 0
 175.506 388 161.303 406.023 165.975 428 c 0
 170.644 449.966 192.499 468 214.477 468 c 0
334.477 468 m 0
 356.442 468 370.646 449.977 365.975 428 c 0
 361.306 406.034 339.449 388 317.472 388 c 0
 295.506 388 281.303 406.023 285.975 428 c 0
 290.644 449.966 312.499 468 334.477 468 c 0
334.326 -0.169922 m 1
 276.232 -0.169922 l 1
 272.61 13.3877 272.473 33.4902 276.302 46.3467 c 1
 240.578 16.9473 195.867 -5.78027 150.445 -5.78027 c 0
 68.6289 -5.78027 45.4326 48.8311 54.8916 93.3301 c 0
 78.3545 203.714 233.354 204.599 309.048 204.598 c 1
 315.089 263.27 279.397 295.29 238.939 295.29 c 0
 190.208 295.29 157.079 255.855 147.087 245.263 c 1
 109.951 272.576 l 1
 124.505 288.405 174.733 345.78 249.672 345.78 c 0
 321.803 345.78 378.841 290.168 360.381 193.491 c 2
 336.508 81.1748 l 2
 330.041 50.7471 329.127 16.5254 334.326 -0.169922 c 1
161.178 44.71 m 0
 207.427 44.71 261.476 79.9814 290.973 115.915 c 1
 300.638 161.387 l 1
 218.122 159.688 119.939 150.384 107.812 93.3301 c 0
 103.679 73.8818 114.039 44.71 161.178 44.71 c 0
EndSplineSet
EndChar
StartChar: agrave
Encoding: 159 224 193
Width: 367
VWidth: 946
Flags: W
HStem: -5.78027 50.4903<99.8973 209.494> 161.387 43.211<207.654 309.048> 295.29 50.49<175.589 291.534> 480 20G<131.51 225.858>
VStem: 54.8916 305.489<93.3301 193.491>
Fore
131.51 500 m 1
 225.858 500 l 1
 297.064 387 l 1
 235.727 387 l 1
 131.51 500 l 1
334.326 -0.169922 m 1
 276.232 -0.169922 l 1
 272.61 13.3877 272.473 33.4902 276.302 46.3467 c 1
 240.578 16.9473 195.867 -5.78027 150.445 -5.78027 c 0
 68.6289 -5.78027 45.4326 48.8311 54.8916 93.3301 c 0
 78.3545 203.714 233.354 204.599 309.048 204.598 c 1
 315.089 263.27 279.397 295.29 238.939 295.29 c 0
 190.208 295.29 157.079 255.855 147.087 245.263 c 1
 109.951 272.576 l 1
 124.505 288.405 174.733 345.78 249.672 345.78 c 0
 321.803 345.78 378.841 290.168 360.381 193.491 c 2
 336.508 81.1748 l 2
 330.041 50.7471 329.127 16.5254 334.326 -0.169922 c 1
161.178 44.71 m 0
 207.427 44.71 261.476 79.9814 290.973 115.915 c 1
 300.638 161.387 l 1
 218.122 159.688 119.939 150.384 107.812 93.3301 c 0
 103.679 73.8818 114.039 44.71 161.178 44.71 c 0
EndSplineSet
EndChar
StartChar: aring
Encoding: 164 229 194
Width: 367
VWidth: 946
Flags: W
HStem: -5.78027 50.4903<99.8973 209.494> 161.387 43.211<207.654 309.048> 295.29 50.49<175.589 291.534> 383 54<247.719 290.056> 497 54<260.47 302.809>
VStem: 54.8916 305.489<93.3301 193.491>
Fore
359.264 467 m 0
 349.369 420.45 303.957 383 257.409 383 c 0
 210.859 383 181.37 420.452 191.264 467 c 0
 201.158 513.55 246.57 551 293.119 551 c 0
 339.669 551 369.158 513.547 359.264 467 c 0
245.264 467 m 0
 241.803 450.716 252.604 437 268.888 437 c 0
 285.171 437 301.803 450.717 305.264 467 c 0
 308.726 483.284 297.924 497 281.641 497 c 0
 265.356 497 248.725 483.283 245.264 467 c 0
334.326 -0.169922 m 1
 276.232 -0.169922 l 1
 272.61 13.3877 272.473 33.4902 276.302 46.3467 c 1
 240.578 16.9473 195.867 -5.78027 150.445 -5.78027 c 0
 68.6289 -5.78027 45.4326 48.8311 54.8916 93.3301 c 0
 78.3545 203.714 233.354 204.599 309.048 204.598 c 1
 315.089 263.27 279.397 295.29 238.939 295.29 c 0
 190.208 295.29 157.079 255.855 147.087 245.263 c 1
 109.951 272.576 l 1
 124.505 288.405 174.733 345.78 249.672 345.78 c 0
 321.803 345.78 378.841 290.168 360.381 193.491 c 2
 336.508 81.1748 l 2
 330.041 50.7471 329.127 16.5254 334.326 -0.169922 c 1
161.178 44.71 m 0
 207.427 44.71 261.476 79.9814 290.973 115.915 c 1
 300.638 161.387 l 1
 218.122 159.688 119.939 150.384 107.812 93.3301 c 0
 103.679 73.8818 114.039 44.71 161.178 44.71 c 0
EndSplineSet
EndChar
StartChar: atilde
Encoding: 162 227 195
Width: 367
VWidth: 946
Flags: W
HStem: -5.78027 50.4903<99.8973 209.494> 161.387 43.211<207.654 309.048> 295.29 50.49<175.589 291.534> 437.014 34.986<235.327 314.559>
VStem: 54.8916 317.947<93.3301 465>
Fore
165.022 400 m 2
 178.023 461.166 213.327 472 235.327 472 c 0
 272.219 472 297.083 438.32 314.559 437.014 c 2
 314.559 437.014 309.212 436.854 314.888 437 c 0
 318.671 437.098 324.367 439.259 327.288 453 c 2
 329.839 465 l 1
 372.839 465 l 1
 370.288 453 l 2
 359.235 401.002 333.459 382 303.196 382 c 0
 253.423 382 222.027 451.773 208.916 399.539 c 2
 206.019 388 l 1
 162.472 388 l 1
 165.022 400 l 2
334.326 -0.169922 m 1
 276.232 -0.169922 l 1
 272.61 13.3877 272.473 33.4902 276.302 46.3467 c 1
 240.578 16.9473 195.867 -5.78027 150.445 -5.78027 c 0
 68.6289 -5.78027 45.4326 48.8311 54.8916 93.3301 c 0
 78.3545 203.714 233.354 204.599 309.048 204.598 c 1
 315.089 263.27 279.397 295.29 238.939 295.29 c 0
 190.208 295.29 157.079 255.855 147.087 245.263 c 1
 109.951 272.576 l 1
 124.505 288.405 174.733 345.78 249.672 345.78 c 0
 321.803 345.78 378.841 290.168 360.381 193.491 c 2
 336.508 81.1748 l 2
 330.041 50.7471 329.127 16.5254 334.326 -0.169922 c 1
161.178 44.71 m 0
 207.427 44.71 261.476 79.9814 290.973 115.915 c 1
 300.638 161.387 l 1
 218.122 159.688 119.939 150.384 107.812 93.3301 c 0
 103.679 73.8818 114.039 44.71 161.178 44.71 c 0
EndSplineSet
EndChar
StartChar: ccedilla
Encoding: 166 231 196
Width: 374
VWidth: 946
Flags: W
HStem: -135 46.4941<138.928 176.898> 293.42 51.425<182.132 336.596>
VStem: 69.1348 326.272<170 251.8>
Fore
320.21 113.398 m 1
 360.633 88.2012 l 1
 341.658 64.1865 294.624 9.03613 222.899 -2.64551 c 1
 215.406 -13.2852 l 1
 249.759 -26.2119 246.131 -55.8379 242.908 -71 c 0
 234.746 -109.4 196.505 -135 155.305 -135 c 0
 135.953 -135 116.857 -129.274 100.596 -117.075 c 2
 91.9502 -110.588 l 1
 128.491 -75.2334 l 1
 137.223 -82.0156 l 2
 143.143 -86.6133 149.873 -88.5059 156.495 -88.5059 c 0
 172.19 -88.5059 187.275 -77.876 189.494 -67.4355 c 0
 191.152 -59.6357 185.603 -52.0137 167.816 -48.8633 c 2
 137.28 -43.4541 l 1
 167.981 -2.30371 l 1
 92.3477 12.0977 51.2383 85.8037 69.1348 170 c 0
 89.1045 263.952 176.999 344.845 269.959 344.845 c 0
 361.887 344.845 388.397 270.994 395.407 251.8 c 1
 344.271 226.602 l 1
 336.748 246.641 318.696 293.42 259.028 293.42 c 0
 199.877 293.42 136.251 241.403 121.272 170.935 c 0
 106.279 100.397 147.669 46.5801 206.561 46.5801 c 0
 269.625 46.5801 308.921 99.2988 320.21 113.398 c 1
EndSplineSet
EndChar
StartChar: eacute
Encoding: 168 233 197
Width: 397
VWidth: 946
Flags: W
HStem: -4.84473 51.4248<133.961 240.983> 158.78 49.555<136.131 348.696> 294.355 50.49<199.022 322.686> 481 20G<335.911 430.26>
VStem: 69.1348 361.125<170 501>
Fore
335.911 501 m 5
 430.26 501 l 5
 278.005 388 l 5
 216.667 388 l 5
 335.911 501 l 5
136.131 208.335 m 1
 348.696 208.335 l 1
 344.507 259.438 308.268 294.355 260.208 294.355 c 0
 213.142 294.355 162.054 259.445 136.131 208.335 c 1
119.141 158.78 m 1
 110.6 93.957 150.715 46.5801 206.561 46.5801 c 0
 249.59 46.5801 294.344 68.8535 330.011 113.398 c 1
 370.434 88.2012 l 1
 306.917 7.81445 230.517 -4.84473 195.63 -4.84473 c 0
 102.669 -4.84473 49.1641 76.0459 69.1348 170 c 0
 89.126 264.052 178.022 344.845 270.94 344.845 c 0
 359.509 344.845 412.795 271.982 401.539 184.843 c 2
 397.819 158.78 l 1
 119.141 158.78 l 1
EndSplineSet
EndChar
StartChar: ecircumflex
Encoding: 169 234 198
Width: 397
VWidth: 946
Flags: W
HStem: -4.84473 51.4248<133.961 240.983> 158.78 49.555<136.131 348.696> 294.355 50.49<199.022 322.686> 481 20G<288.687 321.295>
VStem: 69.1348 332.404<163.824 188.348 170 184.843>
Fore
136.131 208.335 m 1
 348.696 208.335 l 1
 344.507 259.438 308.268 294.355 260.208 294.355 c 0
 213.142 294.355 162.054 259.445 136.131 208.335 c 1
119.141 158.78 m 1
 110.6 93.957 150.715 46.5801 206.561 46.5801 c 0
 249.59 46.5801 294.344 68.8535 330.011 113.398 c 1
 370.434 88.2012 l 1
 306.917 7.81445 230.517 -4.84473 195.63 -4.84473 c 0
 102.669 -4.84473 49.1641 76.0459 69.1348 170 c 0
 89.126 264.052 178.022 344.845 270.94 344.845 c 0
 359.509 344.845 412.795 271.982 401.539 184.843 c 2
 397.819 158.78 l 1
 119.141 158.78 l 1
288.687 501 m 1
 321.295 501 l 1
 400.119 388 l 1
 326.734 388 l 1
 291.462 437.351 l 1
 235.21 388 l 1
 161.824 388 l 1
 288.687 501 l 1
EndSplineSet
EndChar
StartChar: edieresis
Encoding: 170 235 199
Width: 397
VWidth: 946
Flags: W
HStem: -4.84473 51.4248<133.961 240.983> 158.78 49.555<136.131 348.696> 294.355 50.49<199.022 322.686> 388 80<209.404 249.542 329.406 369.542>
VStem: 69.1348 332.404<163.824 188.348 170 184.843>
Fore
136.131 208.335 m 5
 348.696 208.335 l 5
 344.507 259.438 308.268 294.355 260.208 294.355 c 4
 213.142 294.355 162.054 259.445 136.131 208.335 c 5
119.141 158.78 m 5
 110.6 93.957 150.715 46.5801 206.561 46.5801 c 4
 249.59 46.5801 294.344 68.8535 330.011 113.398 c 5
 370.434 88.2012 l 5
 306.917 7.81445 230.517 -4.84473 195.63 -4.84473 c 4
 102.669 -4.84473 49.1641 76.0459 69.1348 170 c 4
 89.126 264.052 178.022 344.845 270.94 344.845 c 4
 359.509 344.845 412.795 271.982 401.539 184.843 c 6
 397.819 158.78 l 5
 119.141 158.78 l 5
237.977 468 m 0
 259.942 468 274.146 449.977 269.475 428 c 0
 264.806 406.034 242.949 388 220.972 388 c 0
 199.006 388 184.803 406.023 189.475 428 c 0
 194.144 449.966 215.998 468 237.977 468 c 0
357.977 468 m 0
 379.942 468 394.146 449.977 389.475 428 c 0
 384.806 406.034 362.949 388 340.972 388 c 0
 319.006 388 304.803 406.023 309.475 428 c 0
 314.144 449.966 335.999 468 357.977 468 c 0
EndSplineSet
EndChar
StartChar: egrave
Encoding: 167 232 200
Width: 397
VWidth: 946
Flags: W
HStem: -4.84473 51.4248<133.961 240.983> 158.78 49.555<136.131 348.696> 294.355 50.49<199.022 322.686> 481 20G<132.722 227.071>
VStem: 69.1348 332.404<163.824 188.348 170 184.843>
Fore
132.722 501 m 5
 227.071 501 l 5
 298.277 388 l 5
 236.938 388 l 5
 132.722 501 l 5
136.131 208.335 m 1
 348.696 208.335 l 1
 344.507 259.438 308.268 294.355 260.208 294.355 c 0
 213.142 294.355 162.054 259.445 136.131 208.335 c 1
119.141 158.78 m 1
 110.6 93.957 150.715 46.5801 206.561 46.5801 c 0
 249.59 46.5801 294.344 68.8535 330.011 113.398 c 1
 370.434 88.2012 l 1
 306.917 7.81445 230.517 -4.84473 195.63 -4.84473 c 0
 102.669 -4.84473 49.1641 76.0459 69.1348 170 c 0
 89.126 264.052 178.022 344.845 270.94 344.845 c 0
 359.509 344.845 412.795 271.982 401.539 184.843 c 2
 397.819 158.78 l 1
 119.141 158.78 l 1
EndSplineSet
EndChar
StartChar: iacute
Encoding: 172 237 201
Width: 147
VWidth: 949
Flags: W
HStem: 481 20G<202.958 296.26>
VStem: 47.6055 248.655<0.307617 501>
Fore
202.958 501 m 5
 296.26 501 l 5
 144.005 388 l 5
 82.4453 388 l 5
 202.958 501 l 5
100.525 0.307617 m 1
 47.6055 0.307617 l 1
 119.734 339.647 l 1
 172.654 339.647 l 1
 100.525 0.307617 l 1
EndSplineSet
EndChar
StartChar: icircumflex
Encoding: 173 238 202
Width: 147
VWidth: 949
Flags: W
HStem: 481 20G<163.687 196.296>
VStem: 36.8242 238.295<388 388>
Fore
100.525 0.307617 m 5
 47.6055 0.307617 l 5
 119.734 339.647 l 5
 172.654 339.647 l 5
 100.525 0.307617 l 5
163.687 501 m 1
 196.296 501 l 1
 275.119 388 l 1
 201.734 388 l 1
 166.462 437.351 l 1
 110.21 388 l 1
 36.8242 388 l 1
 163.687 501 l 1
EndSplineSet
EndChar
StartChar: idieresis
Encoding: 174 239 203
Width: 147
VWidth: 949
Flags: W
HStem: 388 80<84.4056 124.542 204.406 244.542>
VStem: 47.6055 216.87<0.307617 428>
Fore
100.525 0.307617 m 1
 47.6055 0.307617 l 1
 119.734 339.647 l 1
 172.654 339.647 l 1
 100.525 0.307617 l 1
112.977 468 m 0
 134.942 468 149.146 449.977 144.475 428 c 0
 139.806 406.034 117.949 388 95.9717 388 c 0
 74.0059 388 59.8027 406.023 64.4746 428 c 0
 69.1436 449.966 90.999 468 112.977 468 c 0
232.977 468 m 0
 254.942 468 269.146 449.977 264.475 428 c 0
 259.806 406.034 237.949 388 215.972 388 c 0
 194.006 388 179.803 406.023 184.475 428 c 0
 189.144 449.966 210.999 468 232.977 468 c 0
EndSplineSet
EndChar
StartChar: igrave
Encoding: 171 236 204
Width: 147
VWidth: 949
Flags: W
HStem: 481 20G<33.7217 128.071>
VStem: 33.7217 165.555<388 501>
Fore
33.7217 501 m 5
 128.071 501 l 5
 199.277 388 l 5
 137.939 388 l 5
 33.7217 501 l 5
100.525 0.307617 m 1
 47.6055 0.307617 l 1
 119.734 339.647 l 1
 172.654 339.647 l 1
 100.525 0.307617 l 1
EndSplineSet
EndChar
StartChar: ntilde
Encoding: 176 241 205
Width: 362
VWidth: 946
Flags: W
HStem: 294.518 50.49<226.832 326.237> 418.942 53.058<220.711 249.531>
VStem: 47.5635 329.701<-0.0078125 467>
Fore
163.871 340.332 m 1
 166.525 316.196 166.178 309.066 158.872 274.689 c 1
 189.787 309.478 237.892 345.008 274.76 345.008 c 0
 353.012 345.008 373.428 278.995 358.245 207.562 c 2
 314.124 -0.0078125 l 1
 261.204 -0.0078125 l 1
 305.324 207.562 l 2
 313.18 244.519 311.655 294.518 263.048 294.518 c 0
 216.513 294.518 145.52 211.872 136.654 170.162 c 2
 100.483 -0.0078125 l 1
 47.5635 -0.0078125 l 1
 98.6396 240.287 l 2
 105.107 270.715 109.997 323.637 104.798 340.332 c 1
 163.871 340.332 l 1
169.022 400 m 2
 182.023 461.166 217.327 472 239.327 472 c 0
 276.094 472 302.974 437 318.784 437 c 0
 320.89 437 328.683 440.743 331.926 456 c 2
 334.273 467.043 l 1
 377.264 467 l 1
 374.288 453 l 2
 363.235 401.002 337.459 382 307.196 382 c 0
 270.979 382 244.493 418.942 227.7 418.942 c 0
 221.414 418.942 216.486 413.766 212.916 399.539 c 2
 210.472 388 l 1
 166.472 388 l 1
 169.022 400 l 2
EndSplineSet
EndChar
StartChar: oacute
Encoding: 178 243 206
Width: 430
VWidth: 946
Flags: W
HStem: -4.84473 50.4892<132.485 319.438> 294.355 50.49<185.35 372.303> 481 20G<335.911 430.26>
VStem: 69.1348 364.56<151.652 188.348 170 170>
Fore
335.911 501 m 5
 430.26 501 l 5
 278.005 388 l 5
 216.667 388 l 5
 335.911 501 l 5
433.695 170 m 0
 413.113 73.1689 314.837 -4.84473 214.25 -4.84473 c 0
 113.663 -4.84473 48.5527 73.1689 69.1348 170 c 0
 89.7168 266.831 187.992 344.845 288.579 344.845 c 0
 389.166 344.845 454.277 266.83 433.695 170 c 0
122.055 170 m 0
 107.473 101.397 154.057 45.6445 225.963 45.6445 c 0
 297.867 45.6445 368.153 101.397 382.735 170 c 0
 397.317 238.603 350.732 294.355 278.828 294.355 c 0
 206.922 294.355 136.637 238.603 122.055 170 c 0
EndSplineSet
EndChar
StartChar: ocircumflex
Encoding: 179 244 207
Width: 430
VWidth: 946
Flags: W
HStem: -4.84473 50.4892<132.485 319.438> 294.355 50.49<185.35 372.303> 481 20G<305.187 337.795>
VStem: 69.1348 364.56<151.652 188.348 170 170>
Fore
433.695 170 m 0
 413.113 73.1689 314.837 -4.84473 214.25 -4.84473 c 0
 113.663 -4.84473 48.5527 73.1689 69.1348 170 c 0
 89.7168 266.831 187.992 344.845 288.579 344.845 c 0
 389.166 344.845 454.277 266.83 433.695 170 c 0
122.055 170 m 0
 107.473 101.397 154.057 45.6445 225.963 45.6445 c 0
 297.867 45.6445 368.153 101.397 382.735 170 c 0
 397.317 238.603 350.732 294.355 278.828 294.355 c 0
 206.922 294.355 136.637 238.603 122.055 170 c 0
305.187 501 m 1
 337.795 501 l 1
 416.619 388 l 1
 343.234 388 l 1
 307.962 437.351 l 1
 251.71 388 l 1
 178.324 388 l 1
 305.187 501 l 1
EndSplineSet
EndChar
StartChar: odieresis
Encoding: 181 246 208
Width: 430
VWidth: 946
Flags: W
HStem: -4.84473 50.4892<132.485 319.438> 294.355 50.49<185.35 372.303> 388 80<225.906 266.042 345.906 386.042>
VStem: 69.1348 364.56<151.652 188.348 170 170>
Fore
433.695 170 m 0
 413.113 73.1689 314.837 -4.84473 214.25 -4.84473 c 0
 113.663 -4.84473 48.5527 73.1689 69.1348 170 c 0
 89.7168 266.831 187.992 344.845 288.579 344.845 c 0
 389.166 344.845 454.277 266.83 433.695 170 c 0
122.055 170 m 0
 107.473 101.397 154.057 45.6445 225.963 45.6445 c 0
 297.867 45.6445 368.153 101.397 382.735 170 c 0
 397.317 238.603 350.732 294.355 278.828 294.355 c 0
 206.922 294.355 136.637 238.603 122.055 170 c 0
254.477 468 m 0
 276.442 468 290.646 449.977 285.975 428 c 0
 281.306 406.034 259.449 388 237.472 388 c 0
 215.506 388 201.303 406.023 205.975 428 c 0
 210.644 449.966 232.499 468 254.477 468 c 0
374.477 468 m 0
 396.442 468 410.646 449.977 405.975 428 c 0
 401.306 406.034 379.449 388 357.472 388 c 0
 335.506 388 321.303 406.023 325.975 428 c 0
 330.644 449.966 352.499 468 374.477 468 c 0
EndSplineSet
EndChar
StartChar: ograve
Encoding: 177 242 209
Width: 430
VWidth: 946
Flags: W
HStem: -4.84473 50.4892<132.485 319.438> 294.355 50.49<185.35 372.303> 481 20G<176.722 271.071>
VStem: 69.1348 364.56<151.652 188.348 170 170>
Fore
176.722 501 m 5
 271.071 501 l 5
 342.277 388 l 5
 280.938 388 l 5
 176.722 501 l 5
433.695 170 m 0
 413.113 73.1689 314.837 -4.84473 214.25 -4.84473 c 0
 113.663 -4.84473 48.5527 73.1689 69.1348 170 c 0
 89.7168 266.831 187.992 344.845 288.579 344.845 c 0
 389.166 344.845 454.277 266.83 433.695 170 c 0
122.055 170 m 0
 107.473 101.397 154.057 45.6445 225.963 45.6445 c 0
 297.867 45.6445 368.153 101.397 382.735 170 c 0
 397.317 238.603 350.732 294.355 278.828 294.355 c 0
 206.922 294.355 136.637 238.603 122.055 170 c 0
EndSplineSet
EndChar
StartChar: otilde
Encoding: 180 245 210
Width: 430
VWidth: 946
Flags: W
HStem: -4.84473 50.4892<132.485 319.438> 294.355 50.49<185.35 372.303> 418.941 53.059<254.711 283.529>
VStem: 69.1348 364.56<151.652 188.348 170 170>
Fore
433.695 170 m 0
 413.113 73.1689 314.837 -4.84473 214.25 -4.84473 c 0
 113.663 -4.84473 48.5527 73.1689 69.1348 170 c 0
 89.7168 266.831 187.992 344.845 288.579 344.845 c 0
 389.166 344.845 454.277 266.83 433.695 170 c 0
122.055 170 m 0
 107.473 101.397 154.057 45.6445 225.963 45.6445 c 0
 297.867 45.6445 368.153 101.397 382.735 170 c 0
 397.317 238.603 350.732 294.355 278.828 294.355 c 0
 206.922 294.355 136.637 238.603 122.055 170 c 0
203.022 400 m 2
 216.023 461.166 251.327 472 273.327 472 c 0
 310.095 472 336.974 437 352.783 437 c 0
 354.89 437 362.683 440.743 365.926 456 c 2
 368.273 467.043 l 1
 411.264 467 l 1
 408.288 453 l 2
 397.235 401.002 371.459 382 341.196 382 c 0
 304.979 382 278.491 418.941 261.699 418.941 c 0
 255.414 418.941 250.486 413.766 246.916 399.539 c 2
 244.472 388 l 1
 200.472 388 l 1
 203.022 400 l 2
EndSplineSet
EndChar
StartChar: scaron
Encoding: 196 353 211
Width: 304
VWidth: 946
Flags: W
HStem: -5.64062 50.332<122.928 205.563> 295.595 49.91<185.744 240.16>
Fore
310.688 266.007 m 1
 257.449 249.091 l 1
 255.915 259.9 l 2
 252.3 285.365 234.505 295.595 215.656 295.595 c 0
 192.647 295.595 172.456 280.512 167.646 257.886 c 0
 156.169 203.89 317.324 215.159 293.614 103.61 c 0
 279.681 38.0605 213.076 -5.64062 150.364 -5.64062 c 0
 97.2432 -5.64062 50.376 26.999 55.8457 100.276 c 2
 56.6748 111.382 l 1
 110.827 118.089 l 1
 109.981 106.932 l 2
 106.612 62.5107 131.833 44.6914 161.515 44.6914 c 0
 195.398 44.6914 233.072 67.7461 240.695 103.61 c 0
 256.066 175.927 92.0664 155.89 113.746 257.886 c 0
 125.527 313.312 177.946 345.505 226.123 345.505 c 0
 257.688 345.505 301.232 330.158 309.143 276.49 c 2
 310.688 266.007 l 1
244.399 358 m 1
 211.791 358 l 1
 132.967 471 l 1
 206.353 471 l 1
 241.624 421.649 l 1
 297.876 471 l 1
 371.261 471 l 1
 244.399 358 l 1
EndSplineSet
EndChar
StartChar: uacute
Encoding: 185 250 212
Width: 360
VWidth: 945
Flags: W
HStem: -5.00781 50.4902<133.809 244.343> 481 20G<317.911 412.26>
VStem: 76.1504 336.11<132.438 501>
Fore
317.911 501 m 5
 412.26 501 l 5
 260.005 388 l 5
 198.667 388 l 5
 317.911 501 l 5
120.271 340.008 m 1
 173.191 340.008 l 1
 129.07 132.438 l 2
 118.417 82.3184 146.542 45.4824 188.986 45.4824 c 0
 231.568 45.4824 277.247 82.6475 287.83 132.438 c 2
 331.951 340.008 l 1
 384.871 340.008 l 1
 340.751 132.438 l 2
 324.912 57.9229 254.205 -5.00781 179.235 -5.00781 c 0
 104.264 -5.00781 60.3115 57.9219 76.1504 132.438 c 2
 120.271 340.008 l 1
EndSplineSet
EndChar
StartChar: ucircumflex
Encoding: 186 251 213
Width: 360
VWidth: 945
Flags: W
HStem: -5.00781 50.4902<133.809 244.343> 481 20G<270.187 302.795>
VStem: 76.1504 308.721<132.438 340.008>
Fore
120.271 340.008 m 1
 173.191 340.008 l 1
 129.07 132.438 l 2
 118.417 82.3184 146.542 45.4824 188.986 45.4824 c 0
 231.568 45.4824 277.247 82.6475 287.83 132.438 c 2
 331.951 340.008 l 1
 384.871 340.008 l 1
 340.751 132.438 l 2
 324.912 57.9229 254.205 -5.00781 179.235 -5.00781 c 0
 104.264 -5.00781 60.3115 57.9219 76.1504 132.438 c 2
 120.271 340.008 l 1
270.187 501 m 1
 302.795 501 l 1
 381.619 388 l 1
 308.234 388 l 1
 272.962 437.351 l 1
 216.71 388 l 1
 143.324 388 l 1
 270.187 501 l 1
EndSplineSet
EndChar
StartChar: udieresis
Encoding: 187 252 214
Width: 360
VWidth: 945
Flags: W
HStem: -5.00781 50.4902<133.809 244.343> 388 80<190.906 231.042 310.906 351.042>
VStem: 76.1504 308.721<132.438 340.008>
Fore
120.271 340.008 m 1
 173.191 340.008 l 1
 129.07 132.438 l 2
 118.417 82.3184 146.542 45.4824 188.986 45.4824 c 0
 231.568 45.4824 277.247 82.6475 287.83 132.438 c 2
 331.951 340.008 l 1
 384.871 340.008 l 1
 340.751 132.438 l 2
 324.912 57.9229 254.205 -5.00781 179.235 -5.00781 c 0
 104.264 -5.00781 60.3115 57.9219 76.1504 132.438 c 2
 120.271 340.008 l 1
219.477 468 m 0
 241.442 468 255.646 449.977 250.975 428 c 0
 246.306 406.034 224.449 388 202.472 388 c 0
 180.506 388 166.303 406.023 170.975 428 c 0
 175.644 449.966 197.499 468 219.477 468 c 0
339.477 468 m 0
 361.442 468 375.646 449.977 370.975 428 c 0
 366.306 406.034 344.449 388 322.472 388 c 0
 300.506 388 286.303 406.023 290.975 428 c 0
 295.644 449.966 317.499 468 339.477 468 c 0
EndSplineSet
EndChar
StartChar: ugrave
Encoding: 184 249 215
Width: 360
VWidth: 945
Flags: W
HStem: -5.00781 50.4902<133.809 244.343> 481 20G<145.722 240.071>
VStem: 76.1504 308.721<132.438 340.008>
Fore
145.722 501 m 5
 240.071 501 l 5
 311.277 388 l 5
 249.938 388 l 5
 145.722 501 l 5
120.271 340.008 m 1
 173.191 340.008 l 1
 129.07 132.438 l 2
 118.417 82.3184 146.542 45.4824 188.986 45.4824 c 0
 231.568 45.4824 277.247 82.6475 287.83 132.438 c 2
 331.951 340.008 l 1
 384.871 340.008 l 1
 340.751 132.438 l 2
 324.912 57.9229 254.205 -5.00781 179.235 -5.00781 c 0
 104.264 -5.00781 60.3115 57.9219 76.1504 132.438 c 2
 120.271 340.008 l 1
EndSplineSet
EndChar
StartChar: yacute
Encoding: 188 253 216
Width: 338
VWidth: 940
Flags: W
HStem: 481 20G<305.911 400.26>
VStem: 39.082 363.647<-163.482 340.482>
Fore
305.911 501 m 5
 400.26 501 l 5
 248.005 388 l 5
 186.667 388 l 5
 305.911 501 l 5
80.3721 340.482 m 1
 135.998 340.482 l 1
 187.109 79.9912 l 1
 346.229 340.482 l 1
 402.729 340.482 l 1
 95.6025 -163.482 l 1
 39.082 -163.482 l 1
 145.154 10.3711 l 1
 80.3721 340.482 l 1
EndSplineSet
EndChar
StartChar: ydieresis
Encoding: 190 255 217
Width: 338
VWidth: 940
Flags: W
HStem: 393 80<180.969 221.105 300.969 341.105>
VStem: 39.082 363.647<-163.482 340.482>
Fore
80.3721 340.482 m 1
 135.998 340.482 l 1
 187.109 79.9912 l 1
 346.229 340.482 l 1
 402.729 340.482 l 1
 95.6025 -163.482 l 1
 39.082 -163.482 l 1
 145.154 10.3711 l 1
 80.3721 340.482 l 1
209.539 473 m 0
 231.505 473 245.708 454.977 241.037 433 c 0
 236.368 411.034 214.512 393 192.535 393 c 0
 170.569 393 156.365 411.023 161.037 433 c 0
 165.706 454.966 187.562 473 209.539 473 c 0
329.539 473 m 0
 351.505 473 365.708 454.977 361.037 433 c 0
 356.368 411.034 334.512 393 312.535 393 c 0
 290.568 393 276.365 411.023 281.037 433 c 0
 285.706 454.966 307.562 473 329.539 473 c 0
EndSplineSet
EndChar
StartChar: zcaron
Encoding: 199 382 218
Width: 329
VWidth: 946
Flags: W
HStem: -0.169922 50.4902<119.79 296.826> 289.68 50.49<134.656 283.214>
VStem: 7.96387 386.096<-0.169922 340.17>
Fore
134.656 340.17 m 1
 394.06 340.17 l 1
 119.79 50.3203 l 1
 325.199 50.3203 l 1
 296.826 -0.169922 l 1
 7.96387 -0.169922 l 1
 283.214 289.68 l 1
 106.284 289.68 l 1
 134.656 340.17 l 1
256.899 358 m 1
 224.291 358 l 1
 145.467 471 l 1
 218.853 471 l 1
 254.124 421.649 l 1
 310.376 471 l 1
 383.761 471 l 1
 256.899 358 l 1
EndSplineSet
EndChar
StartChar: uni00AD
Encoding: 108 173 220
Width: 366
Flags: W
HStem: 143 54<79.874 358.396>
VStem: 68.3955 301.478<143 197>
Fore
369.874 197 m 1
 358.396 143 l 1
 68.3955 143 l 1
 79.874 197 l 1
 369.874 197 l 1
EndSplineSet
EndChar
StartChar: uni00B2
Encoding: 113 178 221
Width: 263
Flags: W
HStem: 297.058 54.942<150.064 313.142> 606 54<228.714 304.909>
VStem: 75.1172 290.663<296.942 540>
Fore
313.142 297.058 m 1
 75.1172 296.942 l 1
 80.8682 324 l 2
 106.46 444.4 294.335 467.334 309.568 539 c 0
 317.944 578.408 296.117 606 266.81 606 c 0
 237.505 606 203.943 578.405 195.568 539 c 2
 193.018 527 l 1
 139.018 527 l 1
 141.568 539 l 2
 155.343 603.804 215.738 660 279.287 660 c 0
 342.671 660 379.566 604.856 365.78 540 c 0
 344.431 439.555 196.375 413.724 150.064 352 c 1
 324.82 352 l 1
 313.142 297.058 l 1
EndSplineSet
EndChar
StartChar: uni00B3
Encoding: 114 179 222
Width: 263
Flags: W
HStem: 293 53<158.535 250.552> 474 54<231.229 266.625> 605 54<229.061 290.134>
VStem: 100.148 244.734<410 564>
Fore
206.331 552 m 1
 152.331 552 l 1
 154.882 564 l 2
 166.058 616.577 217.499 659 270.075 659 c 0
 322.651 659 356.058 616.576 344.882 564 c 0
 339.907 540.595 326.594 518.967 307.438 502.411 c 1
 330.874 481.14 342.166 447.719 334.148 410 c 0
 320.414 345.385 256.893 293 192.279 293 c 0
 127.664 293 86.4141 345.386 100.148 410 c 2
 102.699 422 l 1
 156.699 422 l 1
 154.148 410 l 2
 146.626 374.61 169.153 346 204.545 346 c 0
 239.935 346 274.626 374.609 282.148 410 c 0
 289.671 445.39 267.143 474 231.752 474 c 2
 219.752 474 l 1
 231.229 528 l 1
 243.229 528 l 2
 266.625 528 288.287 542.384 292.882 564 c 0
 297.608 586.235 283.087 605 259.597 605 c 0
 236.108 605 213.608 586.237 208.882 564 c 2
 206.331 552 l 1
EndSplineSet
EndChar
StartChar: uni00B5
Encoding: 116 181 223
Width: 357
Flags: W
HStem: -4.61719 51.5703<139.065 242.752>
VStem: 29.1553 352.987<-88.6572 339.868>
Fore
120.241 339.868 m 1
 172.621 339.868 l 1
 129.238 135.768 l 2
 118.357 84.5771 145.948 46.9531 187.96 46.9531 c 0
 230.108 46.9531 275.57 84.9131 286.379 135.768 c 2
 329.762 339.868 l 1
 382.142 339.868 l 1
 338.759 135.768 l 2
 322.581 59.6592 252.174 -4.61719 177.969 -4.61719 c 0
 148.043 -4.61719 123.129 5.75488 105.247 22.8994 c 1
 81.7383 -87.7021 l 2
 78.0859 -104.884 78.9834 -121.352 83.0439 -135.102 c 2
 85.9814 -145.046 l 1
 35.5537 -169.072 l 1
 32.1084 -159.12 l 2
 24.9062 -138.309 23.6914 -114.364 29.1553 -88.6572 c 2
 120.241 339.868 l 1
EndSplineSet
EndChar
StartChar: uni00B9
Encoding: 120 185 224
Width: 263
Flags: W
HStem: 298 370.785<244.342 323.154>
VStem: 191.342 131.812<298 668.785>
Fore
248.396 566.422 m 1
 212.722 545.363 l 1
 191.794 590.135 l 1
 323.154 668.785 l 1
 244.342 298 l 1
 191.342 298 l 1
 248.396 566.422 l 1
EndSplineSet
EndChar
StartChar: uni0E01
Encoding: 209 3585 225
Width: 397
VWidth: 955
Flags: W
HStem: 354.032 50.983<219.58 336.193>
VStem: 47.9971 355.623<-0.0146484 253.011>
Fore
151.982 288.424 m 1
 202.053 256.787 l 1
 183.297 249.234 149.689 229.438 140.452 185.978 c 2
 100.918 -0.0146484 l 1
 47.9971 -0.0146484 l 1
 87.5312 185.978 l 2
 92.5527 209.606 110.201 232.406 130.401 248.88 c 1
 91.2529 271.705 l 1
 142.555 383.695 233.096 405.015 278.149 405.015 c 0
 365.032 405.015 421.412 336.714 403.62 253.011 c 2
 349.838 -0.0146484 l 1
 296.918 -0.0146484 l 1
 350.7 253.011 l 2
 364.38 317.369 320.297 354.032 267.312 354.032 c 0
 227.192 354.032 179.927 334.194 151.982 288.424 c 1
EndSplineSet
EndChar
StartChar: uni0E02
Encoding: 210 3586 226
Width: 412
VWidth: 955
Flags: W
HStem: -5.01465 50.9824<140.273 291.705> 212.134 50.983<146.449 220.062> 349.032 50.983<210.249 239.248>
VStem: 79.6826 369.342<146.989 400.015>
Fore
181.773 349.032 m 1
 210.249 400.015 l 1
 303.005 400.015 l 1
 276.516 275.391 l 2
 269.138 240.684 233.436 212.134 197.409 212.134 c 2
 146.449 212.134 l 1
 132.603 146.989 l 2
 120.676 90.8779 157.746 45.9678 215.99 45.9678 c 0
 274.232 45.9678 330.396 90.877 342.323 146.989 c 2
 396.105 400.015 l 1
 449.025 400.015 l 1
 395.243 146.989 l 2
 377.452 63.2861 292.037 -5.01465 205.153 -5.01465 c 0
 118.27 -5.01465 61.8916 63.2861 79.6826 146.989 c 2
 104.367 263.117 l 1
 208.246 263.117 l 2
 215.627 263.117 222.08 268.263 223.595 275.391 c 2
 239.248 349.032 l 1
 181.773 349.032 l 1
EndSplineSet
EndChar
StartChar: uni0E03
Encoding: 211 3587 227
Width: 412
VWidth: 955
Flags: W
HStem: -4.75098 50.9824<140.355 290.86> 212.397 50.983<146.066 219.523>
VStem: 79.2998 369.343<147.253 400.278>
Fore
215.385 362.107 m 1
 257.03 400.278 l 1
 302.623 400.278 l 1
 276.133 275.654 l 2
 268.71 240.73 233.268 212.397 197.027 212.397 c 2
 146.066 212.397 l 1
 132.22 147.253 l 2
 120.366 91.4863 157.721 46.2314 215.606 46.2314 c 0
 273.494 46.2314 330.087 91.4854 341.94 147.253 c 2
 395.723 400.278 l 1
 448.643 400.278 l 1
 394.86 147.253 l 2
 377.026 63.3506 291.861 -4.75098 204.771 -4.75098 c 0
 117.679 -4.75098 61.4658 63.3496 79.2998 147.253 c 2
 103.983 263.38 l 1
 207.864 263.38 l 2
 214.886 263.38 221.773 268.885 223.212 275.654 c 2
 231.154 313.019 l 1
 186.011 271.643 l 1
 182.264 318.14 165.997 343.452 130.824 364.558 c 1
 165.892 409.188 l 1
 189.405 395.085 201.45 384.807 215.385 362.107 c 1
EndSplineSet
EndChar
StartChar: uni0E04
Encoding: 212 3588 228
Width: 411
VWidth: 955
Flags: W
HStem: 174.648 50.983<148.879 241.579> 354.032 50.983<205.316 356.748>
VStem: 47.9971 369.343<-0.0146484 253.011>
Fore
270.057 225.631 m 1
 241.579 174.648 l 1
 138.043 174.648 l 1
 100.917 -0.0146484 l 1
 47.9971 -0.0146484 l 1
 101.779 253.011 l 2
 119.57 336.714 204.984 405.015 291.868 405.015 c 0
 378.753 405.015 435.132 336.714 417.34 253.011 c 2
 363.558 -0.0146484 l 1
 310.638 -0.0146484 l 1
 364.42 253.011 l 2
 376.347 309.122 339.275 354.032 281.032 354.032 c 0
 222.789 354.032 166.626 309.123 154.699 253.011 c 2
 148.879 225.631 l 1
 270.057 225.631 l 1
EndSplineSet
EndChar
StartChar: uni0E05
Encoding: 213 3589 229
Width: 412
VWidth: 955
Flags: W
HStem: 174.834 50.982<149.357 241.059>
VStem: 48.4766 371.512<0.170898 263.414>
Fore
269.534 225.816 m 1
 241.059 174.834 l 1
 138.521 174.834 l 1
 101.396 0.170898 l 1
 48.4766 0.170898 l 1
 104.407 263.302 l 2
 116.248 319.01 151.07 365.088 200.894 392.666 c 2
 225.319 406.471 l 1
 235.245 385.767 l 2
 262.929 329.989 285.105 323.044 340.939 384.77 c 2
 359.219 404.978 l 1
 378.023 392.976 l 2
 419.974 365.807 429.742 314.159 419.989 263.414 c 2
 364.037 0.170898 l 1
 311.116 0.170898 l 1
 367.047 263.302 l 2
 373.306 292.747 369.216 317.191 356.063 334.497 c 1
 331.112 311.335 300.241 289.737 267.806 289.737 c 0
 235.36 289.737 213.68 311.327 198.574 334.494 c 1
 178.066 317.188 163.584 292.744 157.325 263.302 c 2
 149.357 225.816 l 1
 269.534 225.816 l 1
EndSplineSet
EndChar
StartChar: uni0E06
Encoding: 214 3590 230
Width: 411
VWidth: 955
Flags: W
HStem: -4.75098 50.9824<175.098 323.486> 212.397 50.983<146.066 219.523>
VStem: 47.9932 400.65<-0.0302734 400.278>
Fore
130.824 364.558 m 1
 165.892 409.188 l 1
 189.405 395.085 201.45 384.807 215.385 362.107 c 1
 257.03 400.278 l 1
 302.623 400.278 l 1
 276.133 275.654 l 2
 268.71 240.73 233.268 212.397 197.027 212.397 c 2
 146.066 212.397 l 1
 140.648 186.906 l 2
 128.034 127.562 191.231 46.2314 245.008 46.2314 c 0
 305.376 46.2314 331.74 99.2627 341.94 147.253 c 2
 395.723 400.278 l 1
 448.643 400.278 l 1
 394.86 147.253 l 2
 377.591 66.0059 324.469 -4.75098 234.171 -4.75098 c 0
 184.004 -4.75098 143.004 34.4766 117.767 79.2588 c 1
 100.913 -0.0302734 l 1
 47.9932 -0.0302734 l 1
 103.983 263.38 l 1
 207.864 263.38 l 2
 214.886 263.38 221.773 268.885 223.212 275.654 c 2
 231.154 313.019 l 1
 186.011 271.643 l 1
 180.527 323.805 165.997 343.452 130.824 364.558 c 1
EndSplineSet
EndChar
StartChar: uni0E07
Encoding: 215 3591 231
Width: 411
VWidth: 955
Flags: W
HStem: -5.01465 50.9824<139.834 291.267> 349.032 50.983<279.047 355.686>
VStem: 79.2432 337.034<146.989 248.011>
Fore
108.271 283.556 m 1
 164.804 300.551 l 1
 132.163 146.989 l 2
 120.236 90.8779 157.307 45.9678 215.551 45.9678 c 0
 273.794 45.9678 329.957 90.877 341.885 146.989 c 2
 363.357 248.011 l 2
 375.284 304.122 338.213 349.032 279.969 349.032 c 2
 268.21 349.032 l 1
 279.047 400.015 l 1
 290.806 400.015 l 2
 377.689 400.015 434.069 331.714 416.277 248.011 c 2
 394.805 146.989 l 2
 377.013 63.2861 291.598 -5.01465 204.714 -5.01465 c 0
 117.83 -5.01465 61.4521 63.2861 79.2432 146.989 c 2
 108.271 283.556 l 1
EndSplineSet
EndChar
StartChar: uni0E08
Encoding: 216 3592 232
Width: 395
VWidth: 955
Flags: W
HStem: 174.648 50.983<239.063 331.764> 354.032 50.983<189.316 340.748>
VStem: 83.3711 317.969<241.682 255.796 241.682 253.011>
Fore
210.588 174.648 m 1
 239.063 225.631 l 1
 342.601 225.631 l 1
 348.42 253.011 l 2
 360.347 309.122 323.275 354.032 265.032 354.032 c 0
 206.789 354.032 150.626 309.123 138.699 253.011 c 2
 136.291 241.682 l 1
 83.3711 241.682 l 1
 85.7793 253.011 l 2
 103.57 336.714 188.984 405.015 275.868 405.015 c 0
 362.753 405.015 419.132 336.714 401.34 253.011 c 2
 347.558 -0.0146484 l 1
 294.638 -0.0146484 l 1
 331.764 174.648 l 1
 210.588 174.648 l 1
EndSplineSet
EndChar
StartChar: uni0E09
Encoding: 217 3593 233
Width: 394
VWidth: 955
Flags: W
HStem: -2.93066 50.9825<129.414 230.272> 353.948 50.983<188.554 339.987>
VStem: 47.7002 352.877<167.956 252.927>
Fore
47.7002 167.956 m 1
 76.1768 218.938 l 1
 151.293 218.938 l 1
 136.456 149.135 l 2
 120.15 68.125 141.007 48.0518 179.649 48.0518 c 0
 237.218 48.0518 321.855 131.541 333.609 186.838 c 2
 347.657 252.927 l 2
 359.584 309.038 322.514 353.948 264.27 353.948 c 0
 206.027 353.948 149.864 309.039 137.938 252.927 c 9
 85.0176 252.927 l 17
 102.809 336.63 188.223 404.931 275.106 404.931 c 0
 361.991 404.931 418.369 336.63 400.577 252.927 c 2
 346.795 -0.0986328 l 1
 293.875 -0.0986328 l 1
 309.456 73.2051 l 1
 267.882 30.4775 216.315 -2.93066 169.793 -2.93066 c 0
 74.9297 -2.93066 68.6182 74.1455 83.5068 148.999 c 2
 87.5361 167.956 l 1
 47.7002 167.956 l 1
EndSplineSet
EndChar
StartChar: uni0E0A
Encoding: 218 3594 234
Width: 411
VWidth: 955
Flags: W
HStem: -5.01465 50.9824<139.835 291.268> 212.134 50.983<146.011 219.622> 275.391 50.982<286.914 337.874> 349.032 50.983<209.81 238.809>
VStem: 79.2432 369.344<146.989 400.015>
Fore
181.334 349.032 m 1
 209.81 400.015 l 1
 302.566 400.015 l 1
 286.914 326.373 l 1
 337.874 326.373 l 2
 365.633 326.373 384.599 347.943 390.649 376.412 c 2
 395.667 400.015 l 1
 448.587 400.015 l 1
 443.57 376.412 l 2
 437.13 346.115 418.02 318.676 392.583 299.938 c 1
 410.053 281.199 417.499 253.76 411.06 223.464 c 2
 394.805 146.989 l 2
 377.013 63.2861 291.598 -5.01465 204.714 -5.01465 c 0
 117.83 -5.01465 61.4521 63.2861 79.2432 146.989 c 2
 103.927 263.117 l 1
 207.809 263.117 l 2
 215.188 263.117 221.641 268.263 223.156 275.391 c 2
 238.809 349.032 l 1
 181.334 349.032 l 1
327.037 275.391 m 2
 276.077 275.391 l 1
 268.7 240.684 232.996 212.134 196.972 212.134 c 2
 146.011 212.134 l 1
 132.163 146.989 l 2
 120.236 90.877 157.308 45.9678 215.551 45.9678 c 0
 273.795 45.9678 329.958 90.8779 341.885 146.989 c 2
 358.14 223.464 l 2
 362.339 243.22 360.749 275.391 327.037 275.391 c 2
EndSplineSet
EndChar
StartChar: uni0E0B
Encoding: 219 3595 235
Width: 411
VWidth: 955
Flags: W
HStem: -5.01465 50.9824<139.835 291.268> 212.134 50.983<146.011 219.622> 275.391 50.982<286.914 370.863>
VStem: 79.2432 369.344<146.989 400.015>
Fore
327.037 275.391 m 2
 276.077 275.391 l 1
 268.7 240.684 232.996 212.134 196.972 212.134 c 2
 146.011 212.134 l 1
 132.163 146.989 l 2
 120.236 90.877 157.308 45.9678 215.551 45.9678 c 0
 273.795 45.9678 329.958 90.8779 341.885 146.989 c 2
 358.14 223.464 l 2
 362.339 243.22 360.749 275.391 327.037 275.391 c 2
130.824 364.558 m 1
 165.892 409.188 l 1
 189.405 395.085 201.45 384.807 215.385 362.107 c 1
 257.03 400.278 l 1
 302.566 400.015 l 1
 286.914 326.373 l 1
 337.874 326.373 l 2
 365.633 326.373 384.599 347.943 390.649 376.412 c 2
 395.667 400.015 l 1
 448.587 400.015 l 1
 443.57 376.412 l 2
 437.13 346.115 418.02 318.676 392.583 299.938 c 1
 410.053 281.199 417.499 253.76 411.06 223.464 c 2
 394.805 146.989 l 2
 377.013 63.2861 291.598 -5.01465 204.714 -5.01465 c 0
 117.83 -5.01465 61.4521 63.2861 79.2432 146.989 c 2
 103.927 263.117 l 1
 207.809 263.117 l 2
 215.188 263.117 221.641 268.263 223.156 275.391 c 2
 231.154 313.019 l 1
 186.011 271.643 l 1
 181.684 320.027 165.997 343.452 130.824 364.558 c 1
EndSplineSet
EndChar
StartChar: uni0E0C
Encoding: 220 3596 236
Width: 629
VWidth: 955
Flags: W
HStem: -5.84766 50.9834<406.938 524.832> 354.032 50.983<219.739 336.351>
Fore
389.838 185.811 m 2
 376.517 123.139 422.019 45.1357 473.616 45.1357 c 0
 513.013 45.1357 543.944 67.0938 560.75 146.157 c 2
 614.732 400.127 l 1
 667.653 400.127 l 1
 613.671 146.157 l 2
 590.525 37.2676 532.621 -5.84766 462.779 -5.84766 c 0
 419.824 -5.84766 385.833 23.0781 364.011 64.3018 c 1
 350.304 -0.182617 l 1
 296.961 -0.182617 l 1
 350.779 253.011 l 2
 364.459 317.369 320.456 354.032 267.473 354.032 c 0
 227.354 354.032 180.086 334.194 152.143 288.424 c 1
 202.213 256.787 l 1
 183.456 249.234 149.849 229.438 140.611 185.978 c 2
 111.913 50.9678 l 1
 155.671 50.9678 l 1
 127.193 -0.0146484 l 1
 48.1572 -0.0146484 l 1
 87.6914 185.978 l 2
 92.7129 209.606 110.361 232.406 130.561 248.88 c 1
 91.4121 271.705 l 1
 142.715 383.695 233.255 405.015 278.31 405.015 c 0
 365.192 405.015 421.57 336.714 403.779 253.011 c 2
 389.838 185.811 l 2
EndSplineSet
EndChar
StartChar: uni0E0D
Encoding: 221 3597 237
Width: 632
VWidth: 952
Flags: W
HStem: -108.802 50.0383<371.221 485.683> -4.94824 50.9824<387.853 484.439> 354.032 50.983<219.739 336.351>
Fore
350.779 253.011 m 2
 364.459 317.369 320.456 354.032 267.473 354.032 c 0
 227.354 354.032 180.086 334.194 152.143 288.424 c 1
 202.213 256.787 l 1
 183.456 249.234 149.849 229.438 140.611 185.978 c 2
 111.913 50.9678 l 1
 155.671 50.9678 l 1
 127.193 -0.0146484 l 1
 48.1572 -0.0146484 l 1
 87.6914 185.978 l 2
 92.7129 209.606 110.361 232.406 130.561 248.88 c 1
 91.4121 271.705 l 1
 142.715 383.695 233.255 405.015 278.31 405.015 c 0
 365.192 405.015 421.226 336.713 403.779 253.011 c 2
 381.258 147.056 l 2
 368.939 89.1016 402.357 46.0342 450.705 46.0342 c 0
 498.988 46.0342 549.988 88.957 562.338 147.056 c 2
 616.12 400.081 l 1
 669.04 400.081 l 1
 593.183 43.2021 l 2
 575.82 -38.4814 499.783 -108.802 417.793 -108.802 c 0
 345.713 -108.802 321.51 -59.2686 312.668 -42.9688 c 1
 363.851 -17.5273 l 1
 369.166 -26.751 384.423 -58.7637 428.43 -58.7637 c 0
 472.471 -58.7637 525.961 -19 537.005 32.3184 c 1
 509.7 8 474.153 -4.94824 439.868 -4.94824 c 0
 358.046 -4.94824 310.521 64.2744 327.917 146.111 c 2
 350.779 253.011 l 2
EndSplineSet
Substitution2: "Single Substitution lookup 8" uni0E0D.descless
EndChar
StartChar: uni0E0E
Encoding: 222 3598 238
Width: 398
VWidth: 951
Flags: W
HStem: -133.075 50.9822<-7.16504 107.288> 354.093 50.982<219.752 336.365>
VStem: -35.6426 439.435<-133.075 253.071>
Fore
9.31348 0.0458984 m 1
 37.791 51.0283 l 1
 59.0068 51.0283 l 1
 87.7041 186.039 l 2
 92.7266 209.667 110.373 232.467 130.572 248.941 c 1
 91.4238 271.766 l 1
 142.728 383.756 233.268 405.075 278.321 405.075 c 0
 365.205 405.075 421.584 336.774 403.792 253.071 c 2
 321.714 -133.075 l 5
 263.291 -133.075 l 5
 196.267 -83.5703 l 5
 113.803 -133.075 l 5
 -35.6426 -133.075 l 5
 -7.16504 -82.0928 l 5
 107.288 -82.0928 l 5
 206.825 -22.0928 l 5
 280.893 -76.1572 l 5
 350.872 253.071 l 2
 364.552 317.43 320.469 354.093 267.484 354.093 c 0
 227.366 354.093 180.098 334.255 152.154 288.484 c 1
 202.225 256.848 l 1
 183.47 249.295 149.861 229.499 140.624 186.039 c 2
 101.09 0.0458984 l 1
 9.31348 0.0458984 l 1
EndSplineSet
EndChar
StartChar: uni0E0F
Encoding: 223 3599 239
Width: 398
VWidth: 951
Flags: W
HStem: -133.339 50.9826<-7.22266 38.0645> 353.829 50.983<219.696 336.309>
VStem: -35.6982 439.434<-133.339 252.808>
Fore
9.25781 -0.217773 m 1
 37.7344 50.7656 l 1
 58.9512 50.7656 l 1
 87.6475 185.775 l 2
 92.6699 209.403 110.317 232.203 130.516 248.678 c 1
 91.3672 271.503 l 1
 142.67 383.493 233.212 404.812 278.265 404.812 c 0
 365.148 404.812 421.527 336.512 403.736 252.808 c 2
 321.658 -133.339 l 1
 259.88 -133.339 l 1
 223.289 -87.9326 l 1
 153.425 -142.246 l 1
 102.874 -88.0557 l 1
 51.5674 -133.339 l 1
 -35.6982 -133.339 l 1
 -7.22266 -82.3564 l 1
 38.0645 -82.3564 l 1
 112.373 -16.1758 l 1
 165.579 -73.4336 l 1
 238.922 -16.3652 l 1
 282.229 -69.8672 l 1
 350.816 252.808 l 2
 364.496 317.166 320.413 353.829 267.428 353.829 c 0
 227.309 353.829 180.041 333.991 152.099 288.221 c 1
 202.168 256.584 l 1
 183.413 249.031 149.806 229.235 140.567 185.775 c 2
 101.034 -0.217773 l 1
 9.25781 -0.217773 l 1
EndSplineSet
EndChar
StartChar: uni0E10
Encoding: 224 3600 240
Width: 401
VWidth: 951
Flags: W
HStem: -152.324 50.982<-7.90332 37.3838> 174.46 50.982<245.023 337.723> 353.844 50.982<195.275 323.478>
VStem: -36.3809 465.899<-152.324 362.964>
Fore
238.24 -35.3506 m 1
 282.48 -89.0684 l 1
 290.998 -49 l 1
 276.961 -19 l 1
 349.315 -19 l 1
 320.977 -152.324 l 1
 259.198 -152.324 l 1
 222.607 -106.918 l 1
 152.743 -161.231 l 1
 102.192 -107.042 l 1
 50.8848 -152.324 l 1
 -36.3809 -152.324 l 1
 -7.90332 -101.342 l 1
 37.3838 -101.342 l 1
 111.691 -35.1611 l 1
 164.897 -92.4189 l 1
 238.24 -35.3506 l 1
216.547 174.46 m 1
 245.023 225.442 l 1
 348.56 225.442 l 1
 354.379 252.822 l 2
 366.306 308.934 329.234 353.844 270.991 353.844 c 0
 212.748 353.844 156.586 308.935 144.659 252.822 c 2
 142.251 241.493 l 1
 89.3311 241.493 l 1
 91.7393 252.822 l 2
 109.53 336.525 194.944 404.826 281.827 404.826 c 0
 313.866 404.826 341.281 395.348 362.866 379.759 c 1
 408.625 405.317 l 1
 429.518 362.964 l 1
 395.15 343.811 l 1
 409.846 318.524 414.516 286.767 407.3 252.822 c 2
 353.518 -0.203125 l 1
 300.597 -0.203125 l 1
 337.723 174.46 l 1
 216.547 174.46 l 1
EndSplineSet
Substitution2: "Single Substitution lookup 8" uni0E10.descless
EndChar
StartChar: uni0E11
Encoding: 225 3601 241
Width: 411
VWidth: 955
Flags: W
HStem: 355.101 50.982<325.707 403.302>
VStem: 47.75 370.541<0.109375 258.8>
Fore
84.5186 364.697 m 1
 119.583 409.327 l 1
 143.102 395.225 155.143 384.945 169.076 362.247 c 1
 210.721 400.418 l 1
 256.314 400.418 l 1
 243.294 339.16 l 1
 284.354 372.377 334.065 406.083 370.222 406.083 c 0
 456.918 406.083 434.123 333.287 418.291 258.8 c 2
 363.305 0.109375 l 1
 310.391 0.109375 l 1
 365.377 258.8 l 2
 379.055 323.152 393.167 355.101 359.385 355.101 c 0
 333.479 355.101 230.775 276.188 137.75 174.585 c 1
 100.664 0.109375 l 1
 47.75 0.109375 l 1
 87.4844 187.046 l 2
 89.1201 194.741 144.061 249.741 178.204 281.917 c 1
 184.845 313.158 l 1
 139.708 271.784 l 1
 135.756 317.335 119.689 343.593 84.5186 364.697 c 1
EndSplineSet
EndChar
StartChar: uni0E12
Encoding: 226 3602 242
Width: 654
VWidth: 955
Flags: W
HStem: -4.69922 50.9824<117.144 242.505 430.981 548.874> 201.12 50.983<192.87 262.754> 289.645 50.982<274.175 306.788>
Fore
164.395 201.12 m 1
 192.87 252.103 l 1
 228.786 252.103 l 2
 301.157 252.103 322.962 188.005 309.695 125.59 c 0
 299.306 76.7129 257.831 -4.69922 164.401 -4.69922 c 0
 77.8643 -4.69922 57.8809 93.5342 78.1406 188.847 c 0
 94.7451 266.964 145.636 351.441 222.73 399.729 c 2
 234.327 406.993 l 1
 239.028 396.848 l 2
 258.988 353.768 277.994 340.627 290.723 340.627 c 0
 303.081 340.627 326.069 354.172 364.295 396.057 c 2
 372.951 405.542 l 1
 381.354 399.052 l 2
 421.51 368.023 442.062 319.542 430.891 266.985 c 2
 413.88 186.958 l 2
 400.559 124.286 446.061 46.2832 497.658 46.2832 c 0
 537.055 46.2832 567.985 68.2422 584.791 147.305 c 2
 638.572 400.33 l 1
 691.493 400.33 l 1
 637.711 147.305 l 2
 614.565 38.416 556.663 -4.69922 486.821 -4.69922 c 0
 443.867 -4.69922 409.874 24.2256 388.053 65.4492 c 1
 374.146 0.0214844 l 1
 321.226 0.0214844 l 1
 377.971 266.985 l 2
 383.497 292.987 379.913 315.675 367.437 333.301 c 1
 339.153 308.15 307.322 289.645 279.886 289.645 c 0
 249.125 289.645 226.062 309.119 209.932 332.918 c 1
 163.724 291.398 140.198 231.836 131.061 188.847 c 0
 114.404 110.484 130.55 46.2832 175.237 46.2832 c 0
 226.982 46.2832 250.363 95.4248 256.775 125.59 c 0
 265.416 166.244 252.414 201.12 217.949 201.12 c 2
 164.395 201.12 l 1
EndSplineSet
EndChar
StartChar: uni0E13
Encoding: 227 3603 243
Width: 630
VWidth: 955
Flags: W
HStem: -5.84766 50.9834<373.562 469.997> 353.864 50.984<219.443 336.054>
Fore
155.375 50.8008 m 1
 126.897 -0.182617 l 1
 47.8604 -0.182617 l 1
 87.3945 185.811 l 2
 92.417 209.438 110.064 232.238 130.264 248.713 c 1
 91.1143 271.538 l 1
 142.419 383.528 232.959 404.848 278.013 404.848 c 0
 364.897 404.848 421.274 336.546 403.482 252.843 c 2
 380.806 146.157 l 2
 363.85 66.3867 385.205 45.1357 424.014 45.1357 c 0
 474.868 45.1357 555.11 122.464 568.575 185.811 c 2
 614.13 400.127 l 1
 667.05 400.127 l 1
 581.961 -0.182617 l 1
 529.041 -0.182617 l 1
 542.748 64.3018 l 1
 503.4 23.0781 457.111 -5.84766 414.156 -5.84766 c 0
 344.305 -5.84766 304.74 37.2686 327.886 146.157 c 2
 350.562 252.843 l 2
 364.242 317.201 320.159 353.864 267.176 353.864 c 0
 227.057 353.864 179.789 334.026 151.846 288.256 c 1
 201.916 256.619 l 1
 183.16 249.066 149.552 229.271 140.314 185.811 c 2
 111.617 50.8008 l 1
 155.375 50.8008 l 1
EndSplineSet
EndChar
StartChar: uni0E14
Encoding: 228 3604 244
Width: 422
VWidth: 955
Flags: W
HStem: -4.875 50.9824<117.107 231.004> 200.944 50.983<192.833 262.718> 353.893 50.982<180.231 365.465>
VStem: 78.1035 349.787<188.671 252.871 188.671 252.871>
Fore
164.357 200.944 m 1
 192.833 251.927 l 1
 228.749 251.927 l 2
 301.12 251.927 322.926 187.829 309.658 125.414 c 0
 294.975 56.332 242.457 -4.875 164.364 -4.875 c 0
 87.4922 -4.875 54.1738 76.0908 78.1035 188.671 c 0
 99.3359 288.562 177.662 404.875 300.459 404.875 c 0
 387.266 404.875 445.729 336.796 427.891 252.871 c 2
 374.108 -0.154297 l 1
 321.188 -0.154297 l 1
 374.971 252.871 l 2
 386.838 308.705 347.963 353.893 289.622 353.893 c 0
 205.475 353.893 148.161 269.298 131.023 188.671 c 0
 113.985 108.515 130.513 46.1074 175.2 46.1074 c 0
 218.126 46.1074 247.295 80.9873 256.738 125.414 c 0
 265.38 166.068 252.378 200.944 217.912 200.944 c 2
 164.357 200.944 l 1
EndSplineSet
EndChar
StartChar: uni0E15
Encoding: 229 3605 245
Width: 422
VWidth: 955
Flags: W
HStem: -4.69922 50.9824<117.144 242.505> 200.12 51.983<192.87 262.543> 287.645 50.982<273.75 306.362>
VStem: 78.1406 352.324<188.847 264.985>
Fore
164.182 200.12 m 1
 192.87 252.103 l 1
 228.786 252.103 l 2
 301.157 252.103 322.963 188.005 309.696 125.59 c 0
 299.307 76.7129 257.833 -4.69922 164.401 -4.69922 c 0
 77.8643 -4.69922 57.8809 93.5342 78.1406 188.847 c 0
 94.7451 266.964 145.212 349.441 222.305 397.729 c 2
 233.902 404.993 l 1
 238.603 394.848 l 2
 258.564 351.768 277.569 338.627 290.298 338.627 c 0
 302.655 338.627 325.646 352.172 363.869 394.057 c 2
 372.527 403.542 l 1
 380.928 397.052 l 2
 421.085 366.023 441.637 317.542 430.465 264.985 c 2
 374.146 0.0214844 l 1
 321.226 0.0214844 l 1
 377.545 264.985 l 2
 383.072 290.987 379.487 313.675 367.011 331.301 c 1
 338.729 306.15 306.897 287.645 279.461 287.645 c 0
 248.701 287.645 225.636 307.119 209.508 330.918 c 1
 163.299 289.398 140.198 231.836 131.061 188.847 c 0
 114.404 110.484 130.55 46.2832 175.237 46.2832 c 0
 226.982 46.2832 250.364 95.4248 256.776 125.59 c 0
 265.417 166.244 252.203 200.12 217.736 200.12 c 2
 164.182 200.12 l 1
EndSplineSet
EndChar
StartChar: uni0E16
Encoding: 230 3606 246
Width: 398
VWidth: 955
Flags: W
HStem: 354.032 50.983<219.739 336.351>
VStem: 48.1572 355.622<-0.0146484 253.011>
Fore
155.671 50.9678 m 1
 127.193 -0.0146484 l 1
 48.1572 -0.0146484 l 1
 87.6914 185.978 l 2
 92.7129 209.606 110.361 232.406 130.561 248.88 c 1
 91.4121 271.705 l 1
 142.715 383.695 233.255 405.015 278.31 405.015 c 0
 365.192 405.015 421.572 336.714 403.779 253.011 c 2
 349.997 -0.0146484 l 1
 297.077 -0.0146484 l 1
 350.859 253.011 l 2
 364.539 317.369 320.456 354.032 267.473 354.032 c 0
 227.354 354.032 180.086 334.194 152.143 288.424 c 1
 202.213 256.787 l 1
 183.456 249.234 149.849 229.438 140.611 185.978 c 2
 111.913 50.9678 l 1
 155.671 50.9678 l 1
EndSplineSet
EndChar
StartChar: uni0E17
Encoding: 231 3607 247
Width: 412
VWidth: 955
Flags: W
HStem: 354.032 50.983<256.492 389.349>
VStem: 48.4365 369.342<-0.0146484 253.011>
Fore
48.4365 -0.0146484 m 1
 133.524 400.294 l 1
 186.444 400.294 l 1
 169.591 321.005 l 1
 213.863 365.785 271.542 405.015 321.709 405.015 c 0
 412.017 405.015 435.049 334.26 417.779 253.011 c 2
 363.997 -0.0146484 l 1
 311.077 -0.0146484 l 1
 364.859 253.011 l 2
 375.06 301.002 371.239 354.032 310.872 354.032 c 0
 257.168 354.032 159.357 272.861 146.709 213.357 c 2
 101.355 -0.0146484 l 1
 48.4365 -0.0146484 l 1
EndSplineSet
EndChar
StartChar: uni0E18
Encoding: 232 3608 248
Width: 412
VWidth: 955
Flags: W
HStem: -0.0146484 50.9824<112.192 217.054> 174.648 50.983<149.318 348.202> 354.032 50.983<205.756 357.189>
VStem: 48.4365 369.342<-0.0146484 253.011>
Fore
48.4365 -0.0146484 m 1
 80.748 152 l 1
 133.668 152 l 1
 112.192 50.9678 l 1
 217.054 50.9678 l 2
 275.297 50.9678 331.459 95.877 343.387 151.989 c 2
 348.202 174.648 l 1
 85.5625 174.648 l 1
 102.219 253.011 l 2
 120.011 336.714 205.425 405.015 292.309 405.015 c 0
 379.192 405.015 435.57 336.714 417.779 253.011 c 9
 364.859 253.011 l 17
 376.786 309.122 339.716 354.032 281.472 354.032 c 0
 223.229 354.032 167.065 309.123 155.138 253.011 c 2
 149.318 225.631 l 1
 411.959 225.631 l 1
 396.307 151.989 l 2
 378.515 68.2861 293.101 -0.0146484 206.217 -0.0146484 c 2
 48.4365 -0.0146484 l 1
EndSplineSet
EndChar
StartChar: uni0E19
Encoding: 233 3609 249
Width: 412
VWidth: 955
Flags: W
HStem: -3.07031 50.9824<108.526 240.22>
VStem: 80.0967 368.94<148.934 400.07>
Fore
133.477 400.07 m 1
 186.396 400.07 l 1
 133.016 148.934 l 2
 122.814 100.942 126.636 47.9121 187.003 47.9121 c 0
 244.826 47.9121 339.021 131.456 350.764 186.698 c 2
 396.117 400.07 l 1
 449.037 400.07 l 1
 363.949 -0.238281 l 1
 311.029 -0.238281 l 1
 327.945 79.3457 l 1
 283.44 34.8994 225.438 -3.07031 176.166 -3.07031 c 0
 85.8594 -3.07031 62.8262 67.6836 80.0967 148.934 c 2
 133.477 400.07 l 1
EndSplineSet
EndChar
StartChar: uni0E1A
Encoding: 234 3610 250
Width: 412
VWidth: 955
Flags: W
HStem: -5.01465 50.9824<140.274 291.706>
VStem: 79.6826 369.342<146.989 400.015>
Fore
133.465 400.015 m 1
 187.385 400.015 l 1
 133.603 146.989 l 2
 121.676 90.8779 157.747 45.9678 215.991 45.9678 c 0
 274.233 45.9678 329.396 90.877 341.323 146.989 c 2
 395.105 400.015 l 1
 449.025 400.015 l 1
 395.243 146.989 l 2
 377.452 63.2861 292.038 -5.01465 205.154 -5.01465 c 0
 118.271 -5.01465 61.8916 63.2861 79.6826 146.989 c 2
 133.465 400.015 l 1
EndSplineSet
EndChar
StartChar: uni0E1B
Encoding: 235 3611 251
Width: 412
VWidth: 957
Flags: W
HStem: -5.2207 50.9824<140.23 291.663>
VStem: 79.6396 389.41<146.783 494.221>
Fore
133.422 399.809 m 1
 187.341 399.809 l 1
 133.559 146.783 l 2
 121.632 90.6719 157.703 45.7617 215.947 45.7617 c 0
 274.19 45.7617 329.353 90.6709 341.279 146.783 c 2
 415.13 494.221 l 1
 469.05 494.221 l 1
 395.199 146.783 l 2
 377.408 63.0791 291.994 -5.2207 205.11 -5.2207 c 0
 118.227 -5.2207 61.8477 63.0801 79.6396 146.783 c 2
 133.422 399.809 l 1
EndSplineSet
EndChar
StartChar: uni0E1C
Encoding: 236 3612 252
Width: 445
VWidth: 955
Flags: W
HStem: -4.9873 50.9834<124.664 183.471 258.891 356.438> 350.004 50.983<196.867 233.917>
VStem: 80.0859 402.605<198 400.043>
Fore
281.792 400.043 m 1
 333.731 400.043 l 1
 273.929 118.693 l 2
 266.277 82.6934 268.082 45.9961 306.497 45.9961 c 0
 344.913 45.9961 362.317 82.6934 369.969 118.693 c 2
 429.771 400.043 l 1
 482.691 400.043 l 1
 422.889 118.693 l 2
 404.955 34.3223 351.117 -4.9873 295.66 -4.9873 c 0
 267.376 -4.9873 243.796 11.6846 230.319 38.0098 c 1
 205.65 11.6846 174.985 -4.9873 146.7 -4.9873 c 0
 80.8438 -4.9873 53.917 74.8857 80.0859 198 c 0
 105.974 319.792 167.137 400.987 232.992 400.987 c 2
 244.753 400.987 l 1
 233.917 350.004 l 1
 222.155 350.004 l 2
 196.867 350.004 153.937 296.468 133.006 198 c 0
 112.072 99.5127 132.25 45.9961 157.537 45.9961 c 0
 198.651 45.9961 216.314 91.9961 221.989 118.693 c 2
 281.792 400.043 l 1
EndSplineSet
EndChar
StartChar: uni0E1D
Encoding: 237 3613 253
Width: 445
VWidth: 957
Flags: W
HStem: -5.2207 50.9824<124.614 183.422 258.841 356.388> 349.77 50.983<196.817 233.867>
VStem: 80.0361 422.674<197.766 494.221>
Fore
281.742 399.809 m 1
 333.682 399.809 l 1
 273.879 118.459 l 2
 266.228 82.459 268.031 45.7617 306.447 45.7617 c 0
 344.863 45.7617 362.268 82.459 369.919 118.459 c 2
 449.79 494.221 l 1
 502.71 494.221 l 1
 422.839 118.459 l 2
 404.905 34.0879 351.067 -5.2207 295.61 -5.2207 c 0
 267.326 -5.2207 243.746 11.4502 230.27 37.7754 c 1
 205.601 11.4502 174.936 -5.2207 146.65 -5.2207 c 0
 80.7949 -5.2207 53.8682 74.6523 80.0361 197.766 c 0
 105.924 319.558 167.087 400.753 232.942 400.753 c 2
 244.704 400.753 l 1
 233.867 349.77 l 1
 222.105 349.77 l 2
 196.817 349.77 153.886 296.233 132.956 197.766 c 0
 112.022 99.2783 132.2 45.7617 157.487 45.7617 c 0
 198.602 45.7617 216.265 91.7617 221.939 118.459 c 2
 281.742 399.809 l 1
EndSplineSet
EndChar
StartChar: uni0E1E
Encoding: 238 3614 254
Width: 458
VWidth: 955
Flags: W
HStem: -5.01465 50.9824<108.692 189.18 267.29 369.488>
VStem: 73.2236 422.402<118.666 400.015>
Fore
133.025 400.015 m 1
 185.946 400.015 l 1
 126.144 118.666 l 2
 118.315 81.8369 120.687 45.9678 160.67 45.9678 c 0
 203.791 45.9678 221.969 89.9922 228.063 118.666 c 2
 287.866 400.015 l 1
 340.786 400.015 l 1
 280.983 118.666 l 2
 273.429 83.124 275.722 45.9678 316.491 45.9678 c 0
 357.258 45.9678 375.349 83.124 382.903 118.666 c 2
 442.706 400.015 l 1
 495.626 400.015 l 1
 435.823 118.666 l 2
 417.835 34.0391 362.76 -5.01465 305.654 -5.01465 c 0
 276.143 -5.01465 251.724 11.9736 237.633 39.2041 c 1
 211.966 11.9736 180.326 -5.01465 150.814 -5.01465 c 0
 93.6973 -5.01465 55.2363 34.043 73.2236 118.666 c 2
 133.025 400.015 l 1
EndSplineSet
EndChar
StartChar: uni0E1F
Encoding: 239 3615 255
Width: 458
VWidth: 957
Flags: W
HStem: -5.2207 50.9824<108.648 189.135 267.246 369.444>
VStem: 73.1797 442.47<118.459 494.221>
Fore
132.982 399.809 m 1
 185.902 399.809 l 1
 126.1 118.459 l 2
 118.271 81.6309 120.643 45.7617 160.626 45.7617 c 0
 203.747 45.7617 221.925 89.7861 228.02 118.459 c 2
 287.822 399.809 l 1
 340.742 399.809 l 1
 280.939 118.459 l 2
 273.385 82.917 275.679 45.7617 316.447 45.7617 c 0
 357.214 45.7617 375.305 82.917 382.859 118.459 c 2
 462.729 494.221 l 1
 515.65 494.221 l 1
 435.779 118.459 l 2
 417.791 33.833 362.718 -5.2207 305.61 -5.2207 c 0
 276.099 -5.2207 251.681 11.7676 237.589 38.998 c 1
 211.922 11.7676 180.282 -5.2207 150.771 -5.2207 c 0
 93.6533 -5.2207 55.1924 33.8359 73.1797 118.459 c 2
 132.982 399.809 l 1
EndSplineSet
EndChar
StartChar: uni0E20
Encoding: 240 3616 256
Width: 397
VWidth: 955
Flags: W
HStem: 354.032 50.983<219.262 335.874>
VStem: 5.82422 397.478<-0.0146484 253.011>
Fore
5.82422 -0.0146484 m 1
 34.3018 50.9678 l 1
 58.5176 50.9678 l 1
 87.2148 185.978 l 2
 92.2363 209.606 109.884 232.406 130.083 248.88 c 1
 90.9346 271.705 l 1
 142.237 383.695 232.778 405.015 277.832 405.015 c 0
 364.716 405.015 421.094 336.714 403.302 253.011 c 2
 349.52 -0.0146484 l 1
 296.601 -0.0146484 l 1
 350.383 253.011 l 2
 364.062 317.369 319.979 354.032 266.995 354.032 c 0
 226.876 354.032 179.608 334.194 151.665 288.424 c 1
 201.734 256.787 l 1
 182.98 249.234 149.372 229.438 140.135 185.978 c 2
 100.601 -0.0146484 l 1
 5.82422 -0.0146484 l 1
EndSplineSet
EndChar
StartChar: uni0E21
Encoding: 241 3617 257
Width: 411
VWidth: 955
Flags: W
HStem: -5.01465 50.9824<175.043 323.428>
VStem: 47.9375 400.65<-0.293945 400.015>
Fore
133.025 400.015 m 1
 185.946 400.015 l 1
 140.592 186.643 l 2
 127.979 127.299 191.176 45.9678 244.952 45.9678 c 0
 305.318 45.9678 331.684 98.999 341.885 146.989 c 2
 395.667 400.015 l 1
 448.587 400.015 l 1
 394.805 146.989 l 2
 377.535 65.7422 324.413 -5.01465 234.115 -5.01465 c 0
 183.948 -5.01465 142.948 34.2129 117.711 78.9951 c 1
 100.857 -0.293945 l 1
 47.9375 -0.293945 l 1
 133.025 400.015 l 1
EndSplineSet
EndChar
StartChar: uni0E22
Encoding: 242 3618 258
Width: 411
VWidth: 955
Flags: W
HStem: -4.9873 50.9834<138.819 292.319> 223.491 47.206<193.76 261.531> 349.004 50.983<229.483 291.894>
VStem: 72.5117 376.25<137.576 400.043>
Fore
290.411 270.697 m 1
 261.531 223.491 l 1
 253.454 223.491 l 2
 193.76 223.491 137.37 189.125 126.412 137.576 c 0
 114.733 82.6279 156.793 45.9961 216.707 45.9961 c 0
 274.87 45.9961 329.354 82.6279 341.032 137.576 c 2
 396.821 400.043 l 1
 448.762 400.043 l 1
 392.973 137.576 l 2
 374.88 52.4551 290.455 -4.9873 204.89 -4.9873 c 0
 119.827 -4.9873 53.7217 49.1758 72.5117 137.576 c 0
 80.1758 173.631 102.441 204.608 140.747 223.491 c 1
 95.6748 223.491 l 1
 101.093 248.982 l 2
 118.885 332.688 204.086 399.987 290.97 399.987 c 2
 302.729 399.987 l 1
 291.894 349.004 l 1
 280.133 349.004 l 2
 229.483 349.004 180.693 316.286 161.041 270.697 c 1
 290.411 270.697 l 1
EndSplineSet
EndChar
StartChar: uni0E23
Encoding: 243 3619 259
Width: 411
VWidth: 955
Flags: W
HStem: 0.125 50.9824<204.884 274.886> 174.509 50.982<148.85 347.734> 353.893 50.982<205.287 356.719>
VStem: 85.0928 332.218<174.509 252.871>
Fore
204.884 51.1074 m 1
 216.644 51.1074 l 2
 274.886 51.1074 331.05 96.0166 342.977 152.129 c 2
 347.734 174.509 l 1
 85.0928 174.509 l 1
 101.749 252.871 l 2
 119.541 336.574 204.955 404.875 291.839 404.875 c 0
 378.723 404.875 435.102 336.574 417.311 252.871 c 9
 364.391 252.871 l 17
 376.317 308.982 339.246 353.893 281.002 353.893 c 0
 222.76 353.893 166.597 308.983 154.669 252.871 c 2
 148.85 225.491 l 1
 411.49 225.491 l 1
 395.897 152.129 l 2
 378.105 68.4258 292.69 0.125 205.807 0.125 c 2
 194.048 0.125 l 1
 204.884 51.1074 l 1
EndSplineSet
EndChar
StartChar: uni0E24
Encoding: 244 3620 260
Width: 397
VWidth: 951
Flags: W
HStem: 353.785 50.984<219.459 336.072>
VStem: 47.876 355.623<-0.261719 252.765>
Fore
155.39 50.7217 m 1
 126.912 -0.261719 l 1
 47.876 -0.261719 l 1
 87.4102 185.731 l 2
 92.4326 209.36 110.08 232.159 130.279 248.634 c 1
 91.1309 271.459 l 1
 142.435 383.449 232.975 404.769 278.028 404.769 c 0
 364.912 404.769 421.29 336.468 403.499 252.765 c 2
 319.213 -143.769 l 1
 266.293 -143.769 l 1
 350.579 252.765 l 2
 364.259 317.122 320.176 353.785 267.191 353.785 c 0
 227.072 353.785 179.805 333.947 151.861 288.178 c 1
 201.932 256.541 l 1
 183.176 248.987 149.568 229.191 140.33 185.731 c 2
 111.633 50.7217 l 1
 155.39 50.7217 l 1
EndSplineSet
EndChar
StartChar: uni0E25
Encoding: 245 3621 261
Width: 411
VWidth: 955
Flags: W
HStem: 0.125 50.9824<140.926 217.566> 174.509 50.982<138.013 347.734> 353.893 50.982<205.287 356.719>
VStem: 80.3359 336.975<152.129 252.871>
Fore
228.403 51.1074 m 1
 217.566 0.125 l 1
 205.807 0.125 l 2
 118.923 0.125 62.5439 68.4258 80.3359 152.129 c 2
 95.9297 225.491 l 1
 358.57 225.491 l 1
 364.391 252.871 l 2
 376.317 308.982 339.246 353.893 281.002 353.893 c 0
 222.76 353.893 166.597 308.983 154.669 252.871 c 9
 101.749 252.871 l 17
 119.541 336.574 204.955 404.875 291.839 404.875 c 0
 378.723 404.875 435.102 336.574 417.311 252.871 c 2
 363.528 -0.154297 l 1
 310.608 -0.154297 l 1
 347.734 174.509 l 1
 138.013 174.509 l 1
 133.256 152.129 l 2
 121.329 96.0176 158.399 51.1074 216.644 51.1074 c 2
 228.403 51.1074 l 1
EndSplineSet
EndChar
StartChar: uni0E26
Encoding: 246 3622 262
Width: 397
VWidth: 951
Flags: W
HStem: 353.785 50.984<219.211 335.824>
VStem: 5.77148 397.479<-0.261719 252.765>
Fore
5.77148 -0.261719 m 1
 34.249 50.7217 l 1
 58.4648 50.7217 l 1
 87.1621 185.731 l 2
 92.1846 209.36 109.831 232.159 130.03 248.634 c 1
 90.8818 271.459 l 1
 142.186 383.449 232.727 404.769 277.779 404.769 c 0
 364.663 404.769 421.041 336.468 403.25 252.765 c 2
 318.964 -143.769 l 1
 266.045 -143.769 l 1
 350.331 252.765 l 2
 364.011 317.122 319.928 353.785 266.942 353.785 c 0
 226.823 353.785 179.556 333.947 151.612 288.178 c 1
 201.683 256.541 l 1
 182.928 248.987 149.32 229.191 140.082 185.731 c 2
 100.549 -0.261719 l 1
 5.77148 -0.261719 l 1
EndSplineSet
EndChar
StartChar: uni0E27
Encoding: 247 3623 263
Width: 420
VWidth: 955
Flags: W
HStem: -4.875 50.9824<123.857 298.397> 353.893 50.982<221.086 364.115>
Fore
64.2119 123.316 m 1
 118.708 143.344 l 1
 124.922 98.4824 144.979 46.1074 215.386 46.1074 c 0
 279.241 46.1074 353.711 111.341 372.757 200.944 c 0
 391.713 290.124 344.89 353.893 280.808 353.893 c 0
 234.868 353.893 186.77 324.726 145.579 257.999 c 1
 100.282 276.644 l 1
 155.272 366.875 226.002 404.875 291.644 404.875 c 0
 393.161 404.875 448.624 308.901 425.477 200 c 0
 402.329 91.1006 306.064 -4.875 204.549 -4.875 c 0
 137.516 -4.875 77.5127 30.3379 64.2119 123.316 c 1
EndSplineSet
EndChar
StartChar: uni0E28
Encoding: 248 3624 264
Width: 411
VWidth: 955
Flags: W
HStem: 174.762 50.982<148.903 241.603> 355.09 50.982<205.73 335.742>
VStem: 48.0205 403.546<0.0986328 373.118>
Fore
270.079 225.744 m 1
 241.603 174.762 l 1
 138.066 174.762 l 1
 100.941 0.0986328 l 1
 48.0205 0.0986328 l 1
 102.004 254.068 l 2
 119.796 337.771 205.209 406.072 292.094 406.072 c 0
 325.669 406.072 354.613 395.983 376.256 378.843 c 1
 421.983 408.957 l 1
 451.566 373.118 l 1
 406.742 342.932 l 1
 420.228 317.743 424.474 286.571 417.364 253.124 c 2
 363.582 0.0986328 l 1
 310.662 0.0986328 l 1
 364.444 253.124 l 2
 376.381 309.283 339.355 355.09 281.257 355.09 c 0
 223.159 355.09 166.66 309.283 154.724 253.124 c 2
 148.903 225.744 l 1
 270.079 225.744 l 1
EndSplineSet
EndChar
StartChar: uni0E29
Encoding: 249 3625 265
Width: 410
VWidth: 955
Flags: W
HStem: -5.01465 50.9824<138.523 289.893> 211.189 50.984<284.633 354.156 417.915 428.292>
VStem: 78.8496 377.92<146.989 262.173>
Fore
234.451 275.059 m 1
 290.983 292.053 l 1
 284.633 262.173 l 1
 364.993 262.173 l 1
 394.293 400.015 l 1
 447.214 400.015 l 1
 417.915 262.173 l 1
 456.77 262.173 l 1
 428.292 211.189 l 1
 408.056 211.189 l 1
 394.409 146.989 l 2
 376.618 63.2861 291.205 -5.01465 204.321 -5.01465 c 0
 117.438 -5.01465 61.0586 63.2861 78.8496 146.989 c 2
 132.632 400.015 l 1
 185.552 400.015 l 1
 131.77 146.989 l 2
 119.812 90.7373 155.982 45.9678 214.177 45.9678 c 0
 272.42 45.9678 328.584 90.877 340.511 146.989 c 2
 354.156 211.189 l 1
 220.876 211.189 l 1
 234.451 275.059 l 1
EndSplineSet
EndChar
StartChar: uni0E2A
Encoding: 250 3626 266
Width: 411
VWidth: 955
Flags: W
HStem: 0.238281 50.9824<140.95 217.591> 174.622 50.982<138.037 347.758> 354.006 51.927<205.122 335.713>
VStem: 80.3604 371.177<152.242 372.979>
Fore
421.954 408.817 m 1
 451.537 372.979 l 1
 406.713 342.792 l 1
 420.198 317.604 424.444 286.432 417.334 252.984 c 2
 363.553 -0.0410156 l 1
 310.632 -0.0410156 l 1
 347.758 174.622 l 1
 138.037 174.622 l 1
 133.28 152.242 l 2
 121.354 96.1309 158.423 51.2207 216.667 51.2207 c 2
 228.428 51.2207 l 1
 217.591 0.238281 l 1
 205.831 0.238281 l 2
 118.946 0.238281 62.5684 68.5391 80.3604 152.242 c 2
 95.9531 225.604 l 1
 358.595 225.604 l 1
 364.414 252.984 l 2
 376.342 309.096 339.271 354.006 281.026 354.006 c 0
 222.638 354.006 166.811 309.992 154.895 253.929 c 9
 101.975 253.929 l 17
 119.766 337.632 205.18 405.933 292.063 405.933 c 0
 325.64 405.933 354.583 395.844 376.226 378.703 c 1
 421.954 408.817 l 1
EndSplineSet
EndChar
StartChar: uni0E2B
Encoding: 251 3627 267
Width: 411
VWidth: 955
Flags: W
HStem: -0.113281 405.688<363.537 392.642>
VStem: 47.9756 396.394<-0.113281 364>
Fore
155.487 256.72 m 1
 223.897 329.771 332.801 393.125 392.642 405.575 c 1
 444.37 364 l 1
 420.583 365 361.97 348 345.631 334.616 c 1
 398.521 316.584 418.058 256.385 404.476 192.488 c 2
 363.537 -0.113281 l 1
 310.616 -0.113281 l 1
 351.555 192.488 l 2
 360.706 235.54 359.145 300.118 297.992 300.118 c 0
 255.205 300.118 142.686 192.251 129.774 135.754 c 2
 100.896 -0.113281 l 1
 47.9756 -0.113281 l 1
 133.064 400.195 l 1
 185.984 400.195 l 1
 155.487 256.72 l 1
EndSplineSet
EndChar
StartChar: uni0E2C
Encoding: 252 3628 268
Width: 458
VWidth: 957
Flags: W
HStem: -5.05957 50.9834<108.641 190.8 265.649 369.478> 348.987 50.984<340.776 425.85>
VStem: 73.2139 436.45<118.621 466.06>
Fore
133.017 399.971 m 1
 185.937 399.971 l 1
 126.134 118.621 l 2
 118.579 83.0791 120.872 45.9238 161.642 45.9238 c 0
 204.762 45.9238 221.98 90.0488 228.054 118.621 c 2
 269.795 314.999 l 1
 322.715 314.999 l 1
 280.974 118.621 l 2
 273.419 83.0791 275.714 45.9238 316.481 45.9238 c 0
 357.248 45.9238 375.339 83.0791 382.894 118.621 c 2
 421.224 298.949 l 2
 427.276 327.423 417.512 348.987 389.72 348.987 c 2
 329.939 348.987 l 1
 340.776 399.971 l 1
 400.557 399.971 l 2
 428.315 399.971 447.281 421.541 453.332 450.009 c 2
 456.744 466.06 l 1
 509.664 466.06 l 1
 506.252 450.009 l 2
 499.812 419.713 480.703 392.273 455.266 373.535 c 1
 472.734 354.797 480.182 327.356 473.742 297.061 c 2
 435.813 118.621 l 2
 417.826 33.9951 362.752 -5.05957 305.645 -5.05957 c 0
 274.879 -5.05957 249.774 6.54492 235.772 30.4502 c 1
 211.606 6.54199 181.57 -5.05957 150.805 -5.05957 c 0
 93.6875 -5.05957 55.2266 33.998 73.2139 118.621 c 2
 133.017 399.971 l 1
EndSplineSet
EndChar
StartChar: uni0E2D
Encoding: 253 3629 269
Width: 456
VWidth: 955
Flags: W
HStem: -3.93066 50.9825<151.9 331.518> 174.509 50.982<129.401 262.647> 352.948 50.983<233.543 397.464>
VStem: 80.5117 380.239<181.652 214.115 200 200>
Fore
292.887 225.491 m 1
 262.647 174.509 l 1
 129.401 174.509 l 1
 125.012 100.633 171.571 47.0518 237.142 47.0518 c 0
 309.739 47.0518 387.511 113.619 405.871 200 c 0
 424.253 286.481 375.697 352.948 303.142 352.948 c 0
 249.604 352.948 187.382 327.749 146.266 244.589 c 1
 98.0352 258.174 l 1
 155.646 374.146 248.211 403.931 313.979 403.931 c 0
 421.553 403.931 484.141 310.038 460.751 200 c 0
 437.362 89.9629 334.858 -3.93066 227.284 -3.93066 c 0
 119.709 -3.93066 57.1221 89.9619 80.5117 200 c 2
 85.9297 225.491 l 1
 292.887 225.491 l 1
EndSplineSet
EndChar
StartChar: uni0E2E
Encoding: 254 3630 270
Width: 456
VWidth: 955
Flags: W
HStem: -3.90723 50.9834<151.905 331.523> 174.533 49.983<129.406 262.652> 352.973 50.982<233.548 359.15>
VStem: 80.5166 394.138<200.024 370.617>
Fore
292.68 224.516 m 1
 262.652 174.533 l 1
 129.406 174.533 l 1
 125.018 100.657 171.576 47.0762 237.146 47.0762 c 0
 309.744 47.0762 387.516 113.644 405.876 200.024 c 0
 424.259 286.506 375.703 352.973 303.146 352.973 c 0
 249.609 352.973 187.387 327.772 146.271 244.613 c 1
 98.04 258.198 l 1
 155.651 374.171 248.216 403.955 313.983 403.955 c 0
 348.727 403.955 378.556 393.7 402.558 377.372 c 1
 442.917 404.771 l 1
 474.655 370.617 l 1
 435.9 343.629 l 1
 462.485 306.714 472.459 255.08 460.757 200.024 c 0
 437.367 89.9863 334.863 -3.90723 227.289 -3.90723 c 0
 119.714 -3.90723 57.127 89.9863 80.5166 200.024 c 2
 85.7227 224.516 l 1
 292.68 224.516 l 1
EndSplineSet
EndChar
StartChar: uni0E2F
Encoding: 255 3631 271
Width: 384
VWidth: 955
Flags: W
HStem: 241.653 50.983<175.781 272.221> 354.004 50.983<185.57 227.906>
VStem: 105.62 316.371<318.127 400.322>
Fore
371.849 400.322 m 1
 421.991 400.322 l 1
 336.902 0.0126953 l 1
 283.982 0.0126953 l 1
 349.082 306.28 l 1
 310.581 275.367 253.996 241.653 193.245 241.653 c 0
 138.793 241.653 95.8379 272.106 105.62 318.127 c 0
 115.479 364.514 172.292 404.987 226.982 404.987 c 2
 238.742 404.987 l 1
 227.906 354.004 l 1
 216.146 354.004 l 2
 185.57 354.004 160.611 332.479 157.561 318.127 c 0
 153.828 300.566 185.757 292.636 203.102 292.636 c 0
 268.026 292.636 350.344 356.967 371.849 400.322 c 1
EndSplineSet
EndChar
StartChar: uni0E30
Encoding: 256 3632 272
Width: 219
Flags: W
HStem: 28 54<119.43 183.601> 279 54<172.781 236.952>
VStem: 53.9512 212.48<28 333>
Fore
266.431 333 m 1
 236.952 279 l 1
 107.304 279 l 1
 124.233 358.649 l 1
 182.06 376.649 l 1
 172.781 333 l 1
 266.431 333 l 1
213.079 82 m 1
 183.601 28 l 1
 53.9512 28 l 1
 70.8818 107.649 l 1
 128.707 125.649 l 1
 119.43 82 l 1
 213.079 82 l 1
EndSplineSet
EndChar
StartChar: uni0E31
Encoding: 257 3633 273
Width: 0
Flags: W
HStem: 440 54<-37.9971 173.947>
VStem: -103.476 324.901<440 494>
Fore
221.425 494 m 1
 173.947 440 l 1
 -103.476 440 l 1
 -86.5449 519.649 l 1
 -28.7188 537.649 l 1
 -37.9971 494 l 1
 221.425 494 l 1
EndSplineSet
EndChar
StartChar: uni0E32
Encoding: 258 3634 274
Width: 304
Flags: W
HStem: 354.032 50.983<166.129 281.889>
VStem: 103.043 207.275<253.011 306.002>
Fore
116.215 367.974 m 1
 141.943 385.013 177.233 405.015 214.248 405.015 c 0
 304.557 405.015 327.588 334.26 310.318 253.011 c 2
 256.536 -0.0146484 l 1
 203.616 -0.0146484 l 1
 257.398 253.011 l 2
 267.599 301.002 263.779 354.032 203.411 354.032 c 0
 167.348 354.032 125.539 321.631 103.043 306.002 c 1
 116.215 367.974 l 1
EndSplineSet
EndChar
StartChar: uni0E33
Encoding: 259 3635 275
Width: 304
Flags: W
HStem: 354.032 50.983<166.129 281.889> 419.92 36.813<19.2502 51.3756> 492.625 36.813<29.097 61.2225>
VStem: -16.6035 326.922<253.011 474.68>
Fore
116.215 367.974 m 1
 141.943 385.013 177.233 405.015 214.248 405.015 c 0
 304.557 405.015 327.588 334.26 310.318 253.011 c 2
 256.536 -0.0146484 l 1
 203.616 -0.0146484 l 1
 257.398 253.011 l 2
 267.599 301.002 263.779 354.032 203.411 354.032 c 0
 167.348 354.032 125.539 321.631 103.043 306.002 c 1
 116.215 367.974 l 1
97.0762 474.68 m 0
 90.6934 444.653 59.7646 419.92 28.5967 419.92 c 0
 -2.57031 419.92 -22.9863 444.652 -16.6035 474.68 c 0
 -10.2217 504.705 20.707 529.438 51.875 529.438 c 0
 83.042 529.438 103.458 504.706 97.0762 474.68 c 0
21.6084 474.68 m 0
 19.8047 466.195 23.2129 456.733 36.4219 456.733 c 0
 45.2285 456.733 56.1592 461.954 58.8643 474.68 c 0
 60.667 483.163 57.2598 492.625 44.0508 492.625 c 0
 35.2441 492.625 24.3135 487.405 21.6084 474.68 c 0
EndSplineSet
MultipleSubs2: "Multiple Substitution lookup 7" uni0E4D uni0E32
Substitution2: "Single Substitution lookup 6" uni0E32
LCarets2: 1 0 
EndChar
StartChar: uni0E34
Encoding: 260 3636 276
Width: 0
Flags: W
HStem: 440 54<-223.419 45.5244>
VStem: -270.897 327.9<440 494>
Fore
-270.897 440 m 1
 -223.419 494 l 1
 57.0029 494 l 1
 45.5244 440 l 1
 -270.897 440 l 1
EndSplineSet
LCarets2: 1 0 
EndChar
StartChar: uni0E35
Encoding: 261 3637 277
Width: 0
Flags: W
HStem: 440 54<-223.419 3.00293>
VStem: -270.897 336.19<440 533>
Fore
3.00293 494 m 1
 11.293 533 l 1
 65.293 533 l 1
 45.5244 440 l 1
 -270.897 440 l 1
 -223.419 494 l 1
 3.00293 494 l 1
EndSplineSet
LCarets2: 1 0 
EndChar
StartChar: uni0E36
Encoding: 262 3638 278
Width: 0
Flags: W
HStem: 440 54<-222.419 -27.3608> 440 35<9.60042 43.328> 522 34<19.5909 53.3173>
VStem: -269.897 358.75<440 498>
Fore
7.95898 498.5 m 4x70
 5.20215 485.528 13.4922 475 26.4648 475 c 4
 39.4365 475 52.2021 485.528 54.959 498.5 c 4
 57.7168 511.472 49.4258 522 36.4541 522 c 4
 23.4824 522 10.7168 511.472 7.95898 498.5 c 4x70
88.8535 498 m 4
 82.0928 466.197 50.3281 440 18.5244 440 c 6
 -269.897 440 l 5x70
 -222.419 494 l 5
 -27.8721 494 l 5xb0
 -27.6709 495.362 -27.4238 496.695 -27.1465 498 c 4
 -20.3867 529.803 11.3779 556 43.1816 556 c 4
 74.9844 556 95.6133 529.804 88.8535 498 c 4
EndSplineSet
EndChar
StartChar: uni0E37
Encoding: 263 3639 279
Width: 0
Flags: W
HStem: 440 93<-63.707 -17.9971 11.293 45.5244> 440 54<-223.419 -71.9971 -17.9971 3.00293>
VStem: -270.897 336.19<440 533>
Fore
3.00293 494 m 1x60
 11.293 533 l 1
 65.293 533 l 1
 45.5244 440 l 1xa0
 -270.897 440 l 1
 -223.419 494 l 1
 -71.9971 494 l 1x60
 -63.707 533 l 1
 -9.70703 533 l 1xa0
 -17.9971 494 l 1
 3.00293 494 l 1x60
EndSplineSet
EndChar
StartChar: uni0E38
Encoding: 264 3640 280
Width: 0
Flags: W
VStem: -160.504 106.127<-84 -30>
Fore
-160.504 -84 m 1
 -131.025 -30 l 1
 -54.377 -30 l 1
 -84.3477 -171 l 1
 -138.348 -171 l 1
 -119.854 -84 l 1
 -160.504 -84 l 1
EndSplineSet
EndChar
StartChar: uni0E39
Encoding: 265 3641 281
Width: 0
Flags: W
HStem: -176 54<-191.396 -138.472>
VStem: -279.504 225.127<-84 -30>
Fore
-279.504 -84 m 1
 -250.025 -30 l 1
 -182.377 -30 l 1
 -194.067 -85 l 2
 -198.394 -105.354 -185.289 -122 -164.932 -122 c 0
 -144.578 -122 -124.395 -105.357 -120.067 -85 c 2
 -108.377 -30 l 1
 -54.377 -30 l 1
 -66.0674 -85 l 2
 -76.8057 -135.52 -125.892 -176 -176.41 -176 c 0
 -226.93 -176 -258.806 -135.518 -248.067 -85 c 2
 -247.854 -84 l 1
 -279.504 -84 l 1
EndSplineSet
EndChar
StartChar: uni0E3A
Encoding: 266 3642 282
Width: 0
Flags: W
HStem: -98 74<-106.688 -69.2435>
VStem: -124.966 74.0002<-79.3488 -42.6529 -61 -61>
Fore
-80.1016 -24 m 0
 -59.6328 -24 -46.6191 -40.5488 -50.9658 -61 c 0
 -55.3164 -81.4688 -75.3789 -98 -95.8301 -98 c 0
 -116.3 -98 -129.312 -81.4512 -124.966 -61 c 0
 -120.615 -40.5312 -100.553 -24 -80.1016 -24 c 0
EndSplineSet
EndChar
StartChar: uni0E3F
Encoding: 267 3647 283
Width: 435
VWidth: 965
Flags: W
HStem: -0.0791016 51.543<111.859 142.983 207.939 330.103> 250.954 51.543<165.218 196.342 261.298 290.656> 448.536 51.543<196.259 238.339 303.295 385.434>
VStem: 47.9834 397.051<-0.0791016 374.085>
Fore
334.614 500.079 m 2
 409.202 500.079 459.908 444.06 445.034 374.085 c 0
 437.101 336.76 411.698 304.039 378.479 281.607 c 1
 422.386 255.866 445.992 208.008 434.021 151.687 c 0
 415.858 66.2363 324.116 -0.0791016 232.223 -0.0791016 c 2
 196.983 -0.0791016 l 1
 187.647 -44 l 1
 133.647 -44 l 1
 142.983 -0.0791016 l 1
 47.9834 -0.0791016 l 1
 154.295 500.079 l 1
 249.295 500.079 l 1
 258.631 544 l 1
 312.631 544 l 1
 303.295 500.079 l 1
 334.614 500.079 l 2
391.134 374.085 m 2
 391.337 375.039 l 2
 399.346 412.718 370.726 448.536 321.698 448.536 c 2
 292.339 448.536 l 1
 261.298 302.497 l 1
 290.656 302.497 l 2
 340.042 302.497 383.156 336.553 391.134 374.085 c 2
250.342 250.954 m 1
 207.939 51.4639 l 1
 243.178 51.4639 l 2
 310.043 51.4639 369.85 98.7539 381.102 151.687 c 0
 392.341 204.566 352.582 250.954 285.581 250.954 c 2
 250.342 250.954 l 1
207.298 302.497 m 1
 238.339 448.536 l 1
 196.259 448.536 l 1
 165.218 302.497 l 1
 207.298 302.497 l 1
196.342 250.954 m 1
 154.262 250.954 l 1
 111.859 51.4639 l 1
 153.939 51.4639 l 1
 196.342 250.954 l 1
EndSplineSet
EndChar
StartChar: uni0E40
Encoding: 268 3648 284
Width: 148
VWidth: 955
Flags: W
HStem: -0.154297 400.308<100.887 133.056>
VStem: 47.9668 138.009<-0.154297 400.154>
Fore
100.887 -0.154297 m 1
 47.9668 -0.154297 l 1
 133.056 400.154 l 1
 185.976 400.154 l 1
 100.887 -0.154297 l 1
EndSplineSet
EndChar
StartChar: uni0E41
Encoding: 269 3649 285
Width: 237
VWidth: 955
Flags: W
HStem: -0.154297 400.308<100.887 133.056>
VStem: 47.9668 226.208<-0.154297 400.154>
Fore
100.887 -0.154297 m 1
 47.9668 -0.154297 l 1
 133.056 400.154 l 1
 185.976 400.154 l 1
 100.887 -0.154297 l 1
189.086 -0.154297 m 1
 136.166 -0.154297 l 1
 221.254 400.154 l 1
 274.175 400.154 l 1
 189.086 -0.154297 l 1
EndSplineSet
EndChar
StartChar: uni0E42
Encoding: 270 3650 286
Width: 164
VWidth: 960
Flags: W
HStem: 529.836 50.982<113.151 179.468 197.203 331.926>
VStem: 63.8691 296.533<0.181641 580.818>
Fore
167.461 51.1641 m 1
 138.984 0.181641 l 1
 63.8691 0.181641 l 1
 154.978 428.814 l 2
 165.178 476.805 161.358 529.836 100.99 529.836 c 2
 84.6738 529.836 l 1
 113.151 580.818 l 1
 360.402 580.818 l 1
 331.926 529.836 l 1
 197.203 529.836 l 1
 212.963 502.894 215.554 464.835 207.897 428.814 c 2
 127.625 51.1641 l 1
 167.461 51.1641 l 1
EndSplineSet
EndChar
StartChar: uni0E43
Encoding: 271 3651 287
Width: 176
VWidth: 960
Flags: W
HStem: 533.752 51.926<157.644 227.206>
VStem: 75.9893 206.159<487.49 498.857 487.49 499.764>
Fore
175.701 51.3037 m 1
 147.225 0.321289 l 1
 76.0283 0.321289 l 1
 159.511 393.077 l 2
 174.963 465.774 224.532 477.671 229.027 498.819 c 0
 231.11 508.621 218.032 533.752 187.452 533.752 c 2
 186.472 533.752 l 2
 157.644 533.752 134.119 513.492 131.248 499.984 c 0
 131.22 499.854 131.146 499.464 131.124 499.334 c 2
 129.166 487.49 l 1
 75.9893 487.49 l 1
 78.0498 498.536 l 2
 78.1104 498.857 78.3027 499.821 78.3711 500.143 c 0
 88.0127 545.501 144.083 584.653 196.409 585.678 c 2
 197.51 585.679 l 2
 250.479 585.679 291.551 544 282.148 499.764 c 0
 271.174 448.134 224.141 448.165 212.632 394.021 c 2
 139.785 51.3037 l 1
 175.701 51.3037 l 1
EndSplineSet
EndChar
StartChar: uni0E44
Encoding: 272 3652 288
Width: 165
VWidth: 961
Flags: W
VStem: 64.1562 232.952<-0.121094 581.459>
Fore
165.79 50.8613 m 1
 137.312 -0.121094 l 1
 64.1562 -0.121094 l 1
 157.472 438.896 l 2
 165.765 477.912 189.346 507.575 212.553 530.477 c 1
 187.792 530.477 l 1
 137.233 478.632 l 1
 85.7705 534.952 l 1
 100.461 604.065 l 1
 148.194 553.327 l 1
 173.642 581.459 l 1
 297.108 581.459 l 1
 288.812 539.447 l 1
 256.321 517.438 221.325 490.328 210.192 437.952 c 2
 127.914 50.8613 l 1
 165.79 50.8613 l 1
EndSplineSet
EndChar
StartChar: uni0E45
Encoding: 273 3653 289
Width: 304
VWidth: 951
Flags: W
HStem: 349.785 50.984<165.227 280.986>
VStem: 102.14 207.276<248.765 301.755>
Fore
115.312 363.728 m 1
 141.041 380.766 176.331 400.769 213.345 400.769 c 0
 303.654 400.769 326.686 330.014 309.416 248.765 c 2
 225.13 -147.769 l 1
 172.21 -147.769 l 1
 256.496 248.765 l 2
 266.696 296.755 262.876 349.785 202.508 349.785 c 0
 166.444 349.785 124.636 317.384 102.14 301.755 c 1
 115.312 363.728 l 1
EndSplineSet
EndChar
StartChar: uni0E46
Encoding: 274 3654 290
Width: 401
VWidth: 951
Flags: W
HStem: 179.097 50.982<143.181 217.961> 288.615 52.871<241.872 296.819>
VStem: 98.3438 312.149<265.548 286.192 267.845 283.895>
Fore
225.073 234.827 m 1
 226.931 185.937 l 1
 207.822 181.559 197.572 179.097 178.968 179.097 c 0
 112.095 179.097 86.915 230.129 98.3438 283.895 c 0
 107.563 327.272 141.095 374.386 195.548 394.364 c 2
 216.85 402.902 l 1
 225.756 385.568 l 2
 232.654 370.45 248.212 341.486 269.346 341.486 c 0
 290.479 341.486 318.1 370.171 331.426 385.289 c 2
 350.458 407.646 l 1
 370.199 392.303 l 2
 404.6 364.746 421.34 318.873 410.493 267.845 c 2
 322.194 -147.57 l 1
 269.274 -147.57 l 1
 357.172 265.956 l 2
 362.521 291.118 357.228 313.938 344.768 331.845 c 1
 318.686 307.4 289.114 288.615 257.127 288.615 c 0
 223.271 288.615 200.718 309.247 184.24 335.523 c 1
 165.763 322.979 153.515 303.706 149.304 283.895 c 0
 143.452 256.367 153.714 230.079 188.825 230.079 c 0
 202.249 230.079 214.389 232.851 225.073 234.827 c 1
EndSplineSet
EndChar
StartChar: uni0E47
Encoding: 275 3655 291
Width: 0
Flags: W
HStem: 432.955 44.276<-20.7515 27.0132> 542 44<-164.18 83.8555>
VStem: -221.958 333.165<513 586>
Fore
41.1221 484.817 m 1
 52.2754 444.751 l 1
 30.3789 437.69 10.2988 432.955 -8.28125 432.955 c 0
 -23.208 432.955 -37.166 436.01 -50.3223 443.37 c 2
 -91.7939 469.043 l 1
 -142.938 440 l 1
 -150.476 440 l 2
 -190.972 440 -231.789 466.752 -221.958 513 c 0
 -212.125 559.264 -159.957 586 -119.441 586 c 2
 111.207 586 l 1
 83.8555 542 l 1
 -129.794 542 l 2
 -156.245 542 -172.065 527.474 -175.147 512.97 c 0
 -178.01 499.508 -169.899 486.065 -149.137 484.269 c 1
 -83.792 520.896 l 1
 -19.4189 481.815 l 2
 -12.3809 478.56 -5.24609 477.231 2.22949 477.231 c 0
 14.0234 477.231 26.667 480.539 41.1221 484.817 c 1
EndSplineSet
EndChar
StartChar: uni0E48
Encoding: 276 3656 292
Width: 0
Flags: W
VStem: 19.582 76.5313<572 678>
Fore
73.582 572 m 1
 19.582 572 l 1
 42.1133 678 l 1
 96.1133 678 l 1
 73.582 572 l 1
EndSplineSet
MultipleSubs2: "Multiple Substitution lookup 5" uni0E4D uni0E48
Substitution2: "Single Substitution lookup 4" uni0E48.low
EndChar
